<?xml version="1.0" encoding="utf-8"?>
<!-- Generator: Adobe Illustrator 26.1.0, SVG Export Plug-In . SVG Version: 6.00 Build 0)  -->
<svg version="1.1" id="Layer_1" xmlns="http://www.w3.org/2000/svg" xmlns:xlink="http://www.w3.org/1999/xlink" x="0px" y="0px"
	 viewBox="0 0 760 420" style="enable-background:new 0 0 760 420;" xml:space="preserve">
<style type="text/css">
	.st0{clip-path:url(#SVGID_00000057861349463225276260000017254316857416492693_);fill:#B3D3F0;}
	.st1{clip-path:url(#SVGID_00000151522684047859477940000016513175498533432721_);}
	.st2{fill:#FFFFFF;}
	.st3{fill:#99B9E0;}
	.st4{fill:#D7F6FF;}
	.st5{clip-path:url(#SVGID_00000020376429698949368880000010056350670232269500_);}
	.st6{opacity:0.51;fill:#FFFFFF;enable-background:new    ;}
	.st7{fill:#803D00;}
	.st8{fill:#853F00;}
	.st9{fill:#833E00;}
	.st10{enable-background:new    ;}
	.st11{clip-path:url(#SVGID_00000142860930827565346320000016709628722837619351_);fill:#853F00;}
	.st12{clip-path:url(#SVGID_00000151507895950845463580000000809889274420549259_);fill:#853F00;}
	.st13{fill:#843F00;}
	.st14{clip-path:url(#SVGID_00000039851064156598069210000002969580653835707792_);fill:#853F00;}
	.st15{fill:#843E00;}
	.st16{clip-path:url(#SVGID_00000041261632562695501450000006896765738275164070_);fill:#853F00;}
	.st17{fill:#813D00;}
	.st18{fill:#FC7800;}
	.st19{clip-path:url(#SVGID_00000136399245339712496970000000442264638352946623_);}
	.st20{opacity:0.33;fill:#FFFFFF;enable-background:new    ;}
	.st21{fill:#509D8F;}
	.st22{fill:#2C837C;}
	.st23{fill:#90B6D3;}
	.st24{fill:#E9F7FF;}
	.st25{fill:#FF7900;}
	.st26{clip-path:url(#SVGID_00000085948522619433015230000004398241450224359094_);}
	.st27{opacity:0.18;fill:#FFFFFF;enable-background:new    ;}
	.st28{fill:#CE4A00;}
	.st29{fill:#512DBD;}
	.st30{clip-path:url(#SVGID_00000119830037652043446520000018282089899994528167_);}
	.st31{fill:#2C1867;}
	.st32{clip-path:url(#SVGID_00000047753550043242995460000015117713268597810097_);}
	.st33{fill:#BB416B;}
	.st34{fill:#E0497D;}
	.st35{clip-path:url(#SVGID_00000050635323937960601640000009122441177014498185_);}
	.st36{fill:#161E3A;}
	.st37{fill:#253160;}
	.st38{fill:#344583;}
	.st39{fill:#C6DBF3;}
	.st40{fill:#B9E5EF;}
	.st41{fill:#4A707F;}
	.st42{fill:#658A9D;}
	.st43{fill:none;stroke:#000000;stroke-width:0.5605;stroke-miterlimit:10;}
	.st44{fill:none;stroke:#000000;stroke-width:0.56;stroke-miterlimit:10;}
	.st45{fill:none;stroke:#000000;stroke-width:0.5201;stroke-miterlimit:10;}
	.st46{fill:#13596F;}
	.st47{clip-path:url(#SVGID_00000005960334291953770110000008651222820070871965_);enable-background:new    ;}
	.st48{fill:#7E3F19;}
	.st49{fill:#A3315D;}
</style>
<g>
	<g>
		<defs>
			<rect id="SVGID_1_" width="760" height="420"/>
		</defs>
		<clipPath id="SVGID_00000005266868508390859040000012457217170291451311_">
			<use xlink:href="#SVGID_1_"  style="overflow:visible;"/>
		</clipPath>
		
			<rect x="-11.2" y="-16.1" style="clip-path:url(#SVGID_00000005266868508390859040000012457217170291451311_);fill:#B3D3F0;" width="780.9" height="452"/>
	</g>
	<g>
		<defs>
			<rect id="SVGID_00000170238091303794666480000015711579867766193280_" width="760" height="420"/>
		</defs>
		<clipPath id="SVGID_00000124876930317686624080000003747747615366202815_">
			<use xlink:href="#SVGID_00000170238091303794666480000015711579867766193280_"  style="overflow:visible;"/>
		</clipPath>
		<g style="clip-path:url(#SVGID_00000124876930317686624080000003747747615366202815_);">
			<rect x="-29.2" y="53.2" class="st2" width="274.4" height="163.8"/>
			<rect x="-29.2" y="64.5" class="st3" width="264.7" height="145"/>
			<g>
				<g>
					
						<rect id="XMLID_00000027567596822257281030000001386072976094453134_" x="-29.2" y="64.5" class="st4" width="259.4" height="145"/>
				</g>
				<g>
					<defs>
						<rect id="SVGID_00000008831368986839197830000011908229423481133492_" x="-29.2" y="64.5" width="259.4" height="145"/>
					</defs>
					<clipPath id="SVGID_00000120526257324591311480000012788400907090056114_">
						<use xlink:href="#SVGID_00000008831368986839197830000011908229423481133492_"  style="overflow:visible;"/>
					</clipPath>
					<g style="clip-path:url(#SVGID_00000120526257324591311480000012788400907090056114_);">
						
							<rect x="-26" y="155.9" transform="matrix(0.7813 -0.6242 0.6242 0.7813 -76.8095 121.6387)" class="st6" width="322.2" height="29.1"/>
						
							<rect x="-90.6" y="87.3" transform="matrix(0.7813 -0.6242 0.6242 0.7813 -52.8534 67.9666)" class="st6" width="322.2" height="44.1"/>
					</g>
				</g>
			</g>
			<rect x="107.3" y="64.5" class="st2" width="15.1" height="152.5"/>
			<rect x="107.3" y="64.5" class="st3" width="5.2" height="152.5"/>
			<polygon class="st7" points="136.1,44.3 129.8,48.7 134,42.7 140.3,38.3 			"/>
			<polygon class="st8" points="138.1,47.3 131.8,51.7 129.8,48.7 136.1,44.3 			"/>
			<polygon class="st9" points="131.1,37.6 124.8,41.9 124.5,37.3 130.8,33 			"/>
			<g class="st10">
				<g>
					<defs>
						<path id="SVGID_00000158713944131768607610000008138246453979008899_" d="M142,53.7l-6.3,4.4c0.1-0.1,0.2-0.1,0.2-0.2
							c0.6-0.5,0.9-1.3,0.8-2.4c-0.1-1-0.5-1.9-1.2-2.5c-0.7-0.7-1.6-1.1-2.8-1.2l6.3-4.4c1.2,0.1,2.1,0.5,2.8,1.2
							c0.7,0.7,1.1,1.5,1.2,2.5c0.1,1-0.2,1.8-0.8,2.4C142.2,53.6,142.1,53.6,142,53.7z"/>
					</defs>
					<clipPath id="SVGID_00000088813308499528121690000007117232404399527601_">
						<use xlink:href="#SVGID_00000158713944131768607610000008138246453979008899_"  style="overflow:visible;"/>
					</clipPath>
					<path style="clip-path:url(#SVGID_00000088813308499528121690000007117232404399527601_);fill:#853F00;" d="M142,53.7l-6.3,4.4
						c0.1-0.1,0.2-0.1,0.2-0.2c0.6-0.5,0.9-1.3,0.8-2.4c-0.1-1-0.5-1.9-1.2-2.5c-0.7-0.7-1.6-1.1-2.8-1.2l6.3-4.4
						c1.2,0.1,2.1,0.5,2.8,1.2c0.7,0.7,1.1,1.5,1.2,2.5c0.1,1-0.2,1.8-0.8,2.4C142.2,53.6,142.1,53.6,142,53.7"/>
				</g>
			</g>
			<g class="st10">
				<g>
					<defs>
						<path id="SVGID_00000169549002995702544240000001974776526028470448_" d="M145.1,57.8l-6.3,4.4c-1.4,1-3.2,1.4-5.2,1.2
							c-1.8-0.2-3.5-0.7-5-1.7c-1.5-1-2.6-2.4-3.4-4.2l6.3-4.4c0.8,1.8,1.9,3.2,3.4,4.2c1.5,1,3.2,1.6,5,1.7
							C141.9,59.1,143.7,58.7,145.1,57.8z"/>
					</defs>
					<clipPath id="SVGID_00000006697540364239525460000016293731719460151984_">
						<use xlink:href="#SVGID_00000169549002995702544240000001974776526028470448_"  style="overflow:visible;"/>
					</clipPath>
					<path style="clip-path:url(#SVGID_00000006697540364239525460000016293731719460151984_);fill:#853F00;" d="M145.1,57.8
						l-6.3,4.4c-1.4,1-3.2,1.4-5.2,1.2c-1.8-0.2-3.5-0.7-5-1.7c-1.5-1-2.6-2.4-3.4-4.2l6.3-4.4c0.8,1.8,1.9,3.2,3.4,4.2
						c1.5,1,3.2,1.6,5,1.7C141.9,59.1,143.7,58.7,145.1,57.8"/>
				</g>
			</g>
			<polygon class="st9" points="145.2,101.7 138.9,106 138.5,100.1 144.8,95.8 			"/>
			<polygon class="st9" points="145.8,110.4 139.5,114.8 139.2,110.6 145.5,106.2 			"/>
			<polygon class="st9" points="134.4,105.3 128.1,109.7 127.8,105.1 134.1,100.7 			"/>
			<polygon class="st9" points="122.6,73.6 116.3,78 116,73.4 122.3,69 			"/>
			<polygon class="st7" points="226.6,46.2 220.3,50.6 216,51.5 222.3,47.1 			"/>
			<polygon class="st13" points="222.3,47.1 216,51.5 214.5,47.2 220.8,42.8 			"/>
			<polygon class="st9" points="228,65.9 221.7,70.2 220.3,50.6 226.6,46.2 			"/>
			<g class="st10">
				<g>
					<defs>
						<path id="SVGID_00000049192383157497474580000006132907845094398115_" d="M223.6,102.1l6.3-4.4c0.6-0.4,1.4-0.6,2.3-0.5
							c0.9,0.1,1.6,0.4,2.2,1.1c0.6,0.6,1,1.4,1,2.4c0.1,1.3-0.7,2.9-2.4,4.8l-6.3,4.4c1.7-1.8,2.4-3.4,2.4-4.8
							c-0.1-1-0.4-1.8-1-2.4c-0.6-0.6-1.4-1-2.2-1.1S224.2,101.7,223.6,102.1z"/>
					</defs>
					<clipPath id="SVGID_00000023277999687633879080000007645010343594558645_">
						<use xlink:href="#SVGID_00000049192383157497474580000006132907845094398115_"  style="overflow:visible;"/>
					</clipPath>
					<path style="clip-path:url(#SVGID_00000023277999687633879080000007645010343594558645_);fill:#853F00;" d="M233.1,105.4
						l-6.3,4.4c1.7-1.8,2.4-3.4,2.4-4.8c-0.1-1-0.4-1.8-1-2.4c-0.6-0.6-1.4-1-2.2-1.1c-0.9-0.1-1.6,0.1-2.3,0.5l6.3-4.4
						c0.6-0.4,1.4-0.6,2.3-0.5c0.9,0.1,1.6,0.4,2.2,1.1c0.6,0.6,1,1.4,1,2.4C235.5,102,234.7,103.6,233.1,105.4"/>
				</g>
			</g>
			<polygon class="st15" points="228.4,99.8 222.1,104.2 218,101.4 224.4,97.1 			"/>
			<g class="st10">
				<g>
					<defs>
						<path id="SVGID_00000120545949969266188690000014757562082989909131_" d="M220.6,98l6.3-4.4c-1.1,0.8-2,1.9-2.6,3.4l-6.3,4.4
							C218.6,99.9,219.5,98.8,220.6,98z"/>
					</defs>
					<clipPath id="SVGID_00000111906818982667812910000000715696517610858631_">
						<use xlink:href="#SVGID_00000120545949969266188690000014757562082989909131_"  style="overflow:visible;"/>
					</clipPath>
					<path style="clip-path:url(#SVGID_00000111906818982667812910000000715696517610858631_);fill:#853F00;" d="M224.4,97.1
						l-6.3,4.4c0.6-1.5,1.4-2.6,2.6-3.4l6.3-4.4C225.8,94.4,224.9,95.6,224.4,97.1"/>
				</g>
			</g>
			<polygon class="st7" points="225.6,113.5 219.3,117.9 226.8,109.8 233.1,105.4 			"/>
			<polygon class="st9" points="225.9,117.2 219.6,121.6 219.3,117.9 225.6,113.5 			"/>
			<g>
				<polygon class="st17" points="132.8,51.8 139.1,47.4 138.1,47.3 131.8,51.7 				"/>
				<polygon class="st17" points="140.3,38.3 131.1,37.6 124.8,41.9 134,42.7 				"/>
				<polygon class="st17" points="150.2,106.6 143.9,111 144.9,111.1 139.5,114.8 144.2,115.2 150.5,110.8 147.3,110.6 152.7,106.8 
									"/>
				<polygon class="st17" points="140.8,85.3 134.5,89.7 127.8,105.1 134.1,100.7 				"/>
				<polygon class="st17" points="134.4,105.3 128.1,109.7 139.2,110.6 145.5,106.2 				"/>
				<polygon class="st17" points="116.3,78 154.2,81.2 160.5,76.8 122.6,73.6 				"/>
				<polygon class="st17" points="232.6,66.3 228,65.9 221.7,70.2 226.3,70.6 				"/>
				<polygon class="st17" points="219.6,121.6 235.3,122.9 241.6,118.5 225.9,117.2 				"/>
				<polygon class="st17" points="213.6,81.2 207.3,85.6 245.2,88.8 251.6,84.4 				"/>
			</g>
			<polygon class="st9" points="213.6,81.2 207.3,85.6 207,81.1 213.3,76.7 			"/>
			<polygon class="st7" points="188.4,73.6 182.1,78 186.5,73.4 192.8,69 			"/>
			<polygon class="st13" points="194,85.5 187.6,89.9 182.5,84.5 188.8,80.1 			"/>
			<polygon class="st13" points="185.6,76.6 179.2,81 174.1,75.5 180.4,71.2 			"/>
			<polygon class="st7" points="180.4,71.2 174.1,75.5 176.9,72.6 183.3,68.2 			"/>
			<polygon class="st7" points="181.1,81.3 174.8,85.6 179.2,81 185.6,76.6 			"/>
			<polygon class="st13" points="184.4,84.7 178.1,89.1 174.8,85.6 181.1,81.3 			"/>
			<g>
				<g>
					<path id="XMLID_00000011711564938911796780000012456550975747046037_" class="st18" d="M131.1,37.6l-0.3-4.6l14.8,1.2l0.3,4
						l-4,5.7c1.6,0.6,3,1.6,4.1,3c1.1,1.3,1.7,2.9,1.8,4.6c0.2,2.6-0.5,4.5-2,5.8c-1.5,1.3-3.5,1.8-5.8,1.7c-1.8-0.2-3.5-0.7-5-1.7
						c-1.5-1-2.6-2.4-3.4-4.2l3.8-2.1c0.7,2,2.2,3,4.3,3.2c1.2,0.1,2.1-0.1,2.7-0.7c0.6-0.5,0.9-1.3,0.8-2.4c-0.1-1-0.5-1.9-1.2-2.5
						c-0.7-0.7-1.6-1.1-2.8-1.2l-1-0.1l-2-3l4.2-6L131.1,37.6z M152.4,102.3l-2.5-0.2l-0.4-5.9l-4.7-0.4l0.4,5.9l-6.1-0.5l6.7-15.4
						l-5-0.4l-6.7,15.4l0.3,4.6l11.1,0.9l0.3,4.2l4.7,0.4l-0.3-4.2l2.5,0.2L152.4,102.3z M122.3,69l0.3,4.6l37.9,3.2l-0.3-4.6
						L122.3,69z M226.6,46.2l1.4,19.7l4.6,0.4l-1.7-24.9l-4-0.3l-6,1.8l1.4,4.3L226.6,46.2z M232.4,113l4.3-4.5
						c2.4-2.5,3.5-5,3.3-7.6c-0.2-2.4-1.1-4.4-2.7-5.9c-1.6-1.5-3.5-2.4-5.6-2.6c-1.7-0.1-3.1,0.2-4.5,1c-1.3,0.8-2.3,2-2.9,3.7
						l4.1,2.7c0.7-1.9,2-2.7,3.7-2.6c0.9,0.1,1.6,0.4,2.2,1.1c0.6,0.6,1,1.4,1,2.4c0.1,1.3-0.7,2.9-2.4,4.8l-7.4,8.1l0.2,3.7
						l15.7,1.3l-0.3-4.7L232.4,113z M251.2,79.9l-37.9-3.2l0.3,4.6l37.9,3.2L251.2,79.9z M196.1,72.5l-3.3-3.5l-4.4,4.7l-5.1-5.4
						l-2.8,3l5.1,5.4l-4.4,4.7l3.3,3.5l4.4-4.7l5.1,5.4l2.8-3l-5.1-5.5L196.1,72.5z"/>
				</g>
				<g>
					<defs>
						<path id="SVGID_00000016064051322215952380000016517219363482911423_" d="M131.1,37.6l-0.3-4.6l14.8,1.2l0.3,4l-4,5.7
							c1.6,0.6,3,1.6,4.1,3c1.1,1.3,1.7,2.9,1.8,4.6c0.2,2.6-0.5,4.5-2,5.8c-1.5,1.3-3.5,1.8-5.8,1.7c-1.8-0.2-3.5-0.7-5-1.7
							c-1.5-1-2.6-2.4-3.4-4.2l3.8-2.1c0.7,2,2.2,3,4.3,3.2c1.2,0.1,2.1-0.1,2.7-0.7c0.6-0.5,0.9-1.3,0.8-2.4
							c-0.1-1-0.5-1.9-1.2-2.5c-0.7-0.7-1.6-1.1-2.8-1.2l-1-0.1l-2-3l4.2-6L131.1,37.6z M152.4,102.3l-2.5-0.2l-0.4-5.9l-4.7-0.4
							l0.4,5.9l-6.1-0.5l6.7-15.4l-5-0.4l-6.7,15.4l0.3,4.6l11.1,0.9l0.3,4.2l4.7,0.4l-0.3-4.2l2.5,0.2L152.4,102.3z M122.3,69
							l0.3,4.6l37.9,3.2l-0.3-4.6L122.3,69z M226.6,46.2l1.4,19.7l4.6,0.4l-1.7-24.9l-4-0.3l-6,1.8l1.4,4.3L226.6,46.2z M232.4,113
							l4.3-4.5c2.4-2.5,3.5-5,3.3-7.6c-0.2-2.4-1.1-4.4-2.7-5.9c-1.6-1.5-3.5-2.4-5.6-2.6c-1.7-0.1-3.1,0.2-4.5,1
							c-1.3,0.8-2.3,2-2.9,3.7l4.1,2.7c0.7-1.9,2-2.7,3.7-2.6c0.9,0.1,1.6,0.4,2.2,1.1c0.6,0.6,1,1.4,1,2.4c0.1,1.3-0.7,2.9-2.4,4.8
							l-7.4,8.1l0.2,3.7l15.7,1.3l-0.3-4.7L232.4,113z M251.2,79.9l-37.9-3.2l0.3,4.6l37.9,3.2L251.2,79.9z M196.1,72.5l-3.3-3.5
							l-4.4,4.7l-5.1-5.4l-2.8,3l5.1,5.4l-4.4,4.7l3.3,3.5l4.4-4.7l5.1,5.4l2.8-3l-5.1-5.5L196.1,72.5z"/>
					</defs>
					<clipPath id="SVGID_00000005266609304363547970000000264489086425750657_">
						<use xlink:href="#SVGID_00000016064051322215952380000016517219363482911423_"  style="overflow:visible;"/>
					</clipPath>
					<g style="clip-path:url(#SVGID_00000005266609304363547970000000264489086425750657_);">
						
							<rect x="128.9" y="97.3" transform="matrix(0.7813 -0.6242 0.6242 0.7813 -14.7803 169.2035)" class="st20" width="210.2" height="16.9"/>
						
							<rect x="105.6" y="85.3" transform="matrix(0.7813 -0.6242 0.6242 0.7813 -9.7045 151.0402)" class="st20" width="210.2" height="8.2"/>
						
							<rect x="29.6" y="42.2" transform="matrix(0.7813 -0.6242 0.6242 0.7813 -1.875 95.0867)" class="st20" width="210.2" height="15.9"/>
						
							<rect x="57.6" y="67.1" transform="matrix(0.7813 -0.6242 0.6242 0.7813 -11.2807 117.9535)" class="st20" width="210.2" height="15.9"/>
					</g>
				</g>
			</g>
			<g>
				<rect x="393.3" y="351.1" class="st2" width="349.3" height="79.1"/>
				<rect x="393.3" y="351.1" class="st4" width="349.3" height="22.5"/>
				<rect x="613.4" y="351.1" class="st4" width="129.2" height="79.1"/>
				<path class="st2" d="M759.3,354H368.9c-1.1,0-2.1-0.9-2.1-2.1v-7.6c0-1.1,0.9-2.1,2.1-2.1h390.4c1.2,0,2.1,0.9,2.1,2.1v7.6
					C761.3,353,760.4,354,759.3,354z"/>
				<path class="st4" d="M760,354H600.6c-0.7,0-1.3-0.6-1.3-1.3v-9.1c0-0.7,0.6-1.3,1.3-1.3H760c0.7,0,1.3,0.6,1.3,1.3v9.1
					C761.3,353.4,760.7,354,760,354z"/>
				<g>
					<g>
						<path class="st21" d="M298.7,413.4v-1.7c0-11-9-20-20-20h83.4c11,0,20,8.9,20,20v1.7c0,11-9,20-20,20h-83.4
							C289.8,433.5,298.7,424.5,298.7,413.4z"/>
						<path class="st22" d="M142.9,391.8h83.4h52.5c11,0,20,8.9,20,20v1.7c0,11-9,20-20,20h-52.5h-83.4c-11,0-20-8.9-20-20v-1.7
							C122.8,400.7,131.8,391.8,142.9,391.8z"/>
					</g>
					<g>
						<path class="st21" d="M263.3,330.2l-17.2-126.1c-1.5-10.7-11.6-19.4-22.7-19.4H246c11,0,21.2,8.7,22.7,19.4l17.2,126
							c1.5,10.7-6.3,19.4-17.4,19.4h-22.5C257,349.6,264.8,340.9,263.3,330.2z"/>
						<path class="st22" d="M110.1,184.8h22.5h90.9c11,0,21.2,8.7,22.7,19.4l17.2,126c1.5,10.7-6.3,19.4-17.4,19.4h-90.9h-22.5
							c-11,0-21.2-8.7-22.7-19.4L92.7,204.2C91.3,193.5,99.1,184.8,110.1,184.8z"/>
					</g>
					<g>
						<path class="st23" d="M202.4,424.8h-5.6c0.9,0,1.9-0.1,2.7-0.2c0.8-0.2,1.7-0.4,2.5-0.7c6.7-2.2,10.9-8.6,9.9-16.1
							l-15.9-116.3l-7.7-56.6h5.6l7.7,56.6l15.9,116.4C218.9,417.1,212.1,424.8,202.4,424.8z"/>
						<path class="st24" d="M202,423.8c-0.8,0.3-1.7,0.5-2.6,0.6c-0.9,0.2-1.8,0.2-2.8,0.2c-9.6,0-18.6-7.6-19.9-17L161,291.4
							l-7.7-56.6h35.1l7.7,56.6l15.9,116.3C212.9,415.2,208.8,421.6,202,423.8z"/>
					</g>
					<g>
						<g>
							<path class="st23" d="M220.7,291.4h-79.8c-4.1,0-7.8-3.2-8.4-7.2l-5.6-42.1c-0.5-4,2.3-7.3,6.5-7.3h79.8
								c4.1,0,7.9,3.3,8.4,7.3l5.6,42.1C227.7,288.1,224.8,291.4,220.7,291.4z"/>
							<path class="st24" d="M216.1,291.4h-75.4c-4,0-7.7-3.2-8.2-7.1l0-0.1l-5.6-42.1l0-0.2c-0.5-3.9,2.3-7.1,6.3-7.1h75.4
								c4,0,7.7,3.2,8.2,7.1l5.7,42.5C222.9,288.2,220.1,291.4,216.1,291.4z"/>
						</g>
						<g>
							<g>
								
									<ellipse transform="matrix(0.6242 -0.7813 0.7813 0.6242 -140.0965 200.7554)" class="st23" cx="138.6" cy="246" rx="3.6" ry="4.1"/>
								
									<ellipse transform="matrix(0.6242 -0.7813 0.7813 0.6242 -115.2835 252.3469)" class="st23" cx="204.7" cy="246" rx="3.6" ry="4.1"/>
							</g>
							<g>
								
									<ellipse transform="matrix(0.6242 -0.7813 0.7813 0.6242 -160.7958 214.356)" class="st23" cx="142.4" cy="274.3" rx="3.6" ry="4.1"/>
								
									<ellipse transform="matrix(0.6242 -0.7813 0.7813 0.6242 -135.9828 265.9475)" class="st23" cx="208.4" cy="274.3" rx="3.6" ry="4.1"/>
							</g>
						</g>
					</g>
				</g>
				<g>
					<g>
						<g>
							<path id="XMLID_00000119116321099704967330000012852271371748411045_" class="st25" d="M336.8,124.8
								c23.8-3.1,48.8,15,56.5,40.8c0.1,0.4-0.1,0.8-0.5,0.8l-42.5,6.2c-0.4,0.1-0.8-0.2-0.9-0.6l-13.2-46.4
								C336.2,125.2,336.4,124.8,336.8,124.8z"/>
						</g>
						<g>
							<defs>
								<path id="SVGID_00000060031201692285696560000009358968126529903010_" d="M336.8,124.8c23.8-3.1,48.8,15,56.5,40.8
									c0.1,0.4-0.1,0.8-0.5,0.8l-42.5,6.2c-0.4,0.1-0.8-0.2-0.9-0.6l-13.2-46.4C336.2,125.2,336.4,124.8,336.8,124.8z"/>
							</defs>
							<clipPath id="SVGID_00000048461759724400928200000000695593824389564337_">
								<use xlink:href="#SVGID_00000060031201692285696560000009358968126529903010_"  style="overflow:visible;"/>
							</clipPath>
							<g style="clip-path:url(#SVGID_00000048461759724400928200000000695593824389564337_);">
								
									<rect x="317.3" y="132.3" transform="matrix(0.7813 -0.6242 0.6242 0.7813 -7.9696 256.3536)" class="st27" width="89.1" height="14.6"/>
								
									<rect x="303" y="127.8" transform="matrix(0.7813 -0.6242 0.6242 0.7813 -6.0108 245.6325)" class="st27" width="89.1" height="7.1"/>
								
									<rect x="342.3" y="155.5" transform="matrix(0.7813 -0.6242 0.6242 0.7813 -15.4038 276.5271)" class="st27" width="89.1" height="9.4"/>
							</g>
						</g>
					</g>
					<path class="st28" d="M392.9,166.4l-42.5,6.2c-0.4,0.1-0.8-0.2-0.9-0.6l-13.2-46.4c-0.1-0.3,0-0.6,0.2-0.7l-6.4,4.7
						c-0.2,0.1-0.3,0.4-0.2,0.7l13.2,46.4c0.1,0.4,0.5,0.7,0.9,0.6l42.5-6.2c0.1,0,0.2-0.1,0.3-0.1l6.4-4.7
						C393.1,166.3,393,166.4,392.9,166.4z"/>
					<g>
						<g>
							<path id="XMLID_00000088127639689962333630000011181859593028820109_" class="st29" d="M389,181.7c0.4-0.1,0.8,0.2,0.9,0.6
								c7,25.9-6.2,49.6-29.7,53.4c-0.4,0.1-0.8-0.2-0.9-0.6l-13.2-46.4c-0.1-0.4,0.1-0.8,0.5-0.8L389,181.7z"/>
						</g>
						<g>
							<defs>
								<path id="SVGID_00000085226794078601726470000005873412488726901139_" d="M389,181.7c0.4-0.1,0.8,0.2,0.9,0.6
									c7,25.9-6.2,49.6-29.7,53.4c-0.4,0.1-0.8-0.2-0.9-0.6l-13.2-46.4c-0.1-0.4,0.1-0.8,0.5-0.8L389,181.7z"/>
							</defs>
							<clipPath id="SVGID_00000124156084841874515340000002803932726863923860_">
								<use xlink:href="#SVGID_00000085226794078601726470000005873412488726901139_"  style="overflow:visible;"/>
							</clipPath>
							<g style="clip-path:url(#SVGID_00000124156084841874515340000002803932726863923860_);">
								
									<rect x="332" y="208.2" transform="matrix(0.7813 -0.6242 0.6242 0.7813 -52.1459 282.1255)" class="st27" width="89.1" height="14.6"/>
								
									<rect x="314.6" y="195.6" transform="matrix(0.7813 -0.6242 0.6242 0.7813 -45.7722 267.6903)" class="st27" width="89.1" height="7.1"/>
							</g>
						</g>
					</g>
					<path class="st31" d="M360.2,235.8c-0.4,0.1-0.8-0.2-0.9-0.6l-13.2-46.4l-6.4,4.7l13.2,46.4c0.1,0.4,0.5,0.7,0.9,0.6
						c6.1-1,11.5-3.3,16-6.7l6.4-4.7C371.7,232.5,366.3,234.8,360.2,235.8z"/>
					<path class="st22" d="M296.8,195.8c-0.4,0.1-0.8-0.2-0.9-0.6c-5.2-19.2,0.7-37.1,13.7-46.8l-6.4,4.7
						c-13,9.6-18.9,27.6-13.7,46.8c0.1,0.4,0.5,0.7,0.9,0.6l42.5-6.2l6.4-4.7L296.8,195.8z"/>
					<g>
						<g>
							<path id="XMLID_00000102538918626713098780000000719021707452703122_" class="st21" d="M325.6,141.7c0.4-0.1,0.8,0.2,0.9,0.6
								l13.2,46.4c0.1,0.4-0.1,0.8-0.5,0.8l-42.5,6.2c-0.4,0.1-0.8-0.2-0.9-0.6C288.9,169.2,302.1,145.6,325.6,141.7z"/>
						</g>
						<g>
							<defs>
								<path id="SVGID_00000066478039952365653460000008746817345884124595_" d="M325.6,141.7c0.4-0.1,0.8,0.2,0.9,0.6l13.2,46.4
									c0.1,0.4-0.1,0.8-0.5,0.8l-42.5,6.2c-0.4,0.1-0.8-0.2-0.9-0.6C288.9,169.2,302.1,145.6,325.6,141.7z"/>
							</defs>
							<clipPath id="SVGID_00000072965268819334150700000005613582942446464924_">
								<use xlink:href="#SVGID_00000066478039952365653460000008746817345884124595_"  style="overflow:visible;"/>
							</clipPath>
							<g style="clip-path:url(#SVGID_00000072965268819334150700000005613582942446464924_);">
								
									<rect x="277.3" y="162.9" transform="matrix(0.7813 -0.6242 0.6242 0.7813 -35.8037 238.0798)" class="st27" width="89.1" height="14.6"/>
								
									<rect x="259.9" y="150.3" transform="matrix(0.7813 -0.6242 0.6242 0.7813 -29.43 223.6446)" class="st27" width="89.1" height="7.1"/>
							</g>
						</g>
					</g>
					<path class="st33" d="M353.7,239.3c-23.8,3.1-48.8-15-56.5-40.8c-0.1-0.3,0-0.6,0.2-0.7l-6.4,4.7c-0.2,0.1-0.3,0.4-0.2,0.7
						c7.7,25.8,32.8,43.9,56.5,40.8c0.1,0,0.2-0.1,0.2-0.1l6.4-4.7C353.8,239.3,353.8,239.3,353.7,239.3z"/>
					<g>
						<g>
							<path id="XMLID_00000090280508550391098120000011210049574348941961_" class="st34" d="M340,191.5c0.4-0.1,0.8,0.2,0.9,0.6
								l13.2,46.4c0.1,0.4-0.1,0.8-0.5,0.8c-23.8,3.1-48.8-15-56.5-40.8c-0.1-0.4,0.1-0.8,0.5-0.8L340,191.5z"/>
						</g>
						<g>
							<defs>
								<path id="SVGID_00000173137761946086079150000011439873947957600946_" d="M340,191.5c0.4-0.1,0.8,0.2,0.9,0.6l13.2,46.4
									c0.1,0.4-0.1,0.8-0.5,0.8c-23.8,3.1-48.8-15-56.5-40.8c-0.1-0.4,0.1-0.8,0.5-0.8L340,191.5z"/>
							</defs>
							<clipPath id="SVGID_00000183222345142023960000000015113796033521846175_">
								<use xlink:href="#SVGID_00000173137761946086079150000011439873947957600946_"  style="overflow:visible;"/>
							</clipPath>
							<g style="clip-path:url(#SVGID_00000183222345142023960000000015113796033521846175_);">
								
									<rect x="290.4" y="225.8" transform="matrix(0.7813 -0.6242 0.6242 0.7813 -70.1876 259.309)" class="st27" width="89.1" height="8"/>
								
									<rect x="272.5" y="206.8" transform="matrix(0.7813 -0.6242 0.6242 0.7813 -63.5612 244.4707)" class="st27" width="89.1" height="12.2"/>
							</g>
						</g>
					</g>
					<g>
						<g>
							<polygon class="st36" points="537.8,331.9 594.4,331.9 585.5,296.5 528.9,296.5 							"/>
							<polygon class="st37" points="532.3,331.9 588.8,331.9 579.9,296.5 523.4,296.5 							"/>
						</g>
						<polygon class="st37" points="684.8,150.2 690.2,150.7 697.5,157.4 434.7,303.1 427.6,296.4 						"/>
						<path class="st37" d="M439,305.1h223.6c2.7,0,4.9-1.8,5.5-4.4l30.9-138c0.8-3.5-1.9-6.9-5.5-6.9H469.9c-2.6,0-4.9,1.8-5.5,4.4
							l-30.9,138C432.7,301.8,435.4,305.1,439,305.1z"/>
						<path class="st38" d="M431,297.6h223.6c2.7,0,4.9-1.8,5.5-4.4l30.9-138c0.8-3.5-1.9-6.9-5.5-6.9H461.9c-2.6,0-4.9,1.8-5.5,4.4
							l-30.9,138C424.7,294.2,427.4,297.6,431,297.6z"/>
						<path class="st39" d="M685,158.2l-5.1,22.9l-9.4,41.9l-15,67c-0.5,2.5-2.7,4.2-5.3,4.2H436.9c-3.5,0-6-3.2-5.3-6.6l8.6-38.3
							l12.7-56.8l8.2-36.6c0.5-2.5,2.7-4.2,5.3-4.2h213.4c1.8,0,3.4,0.9,4.4,2.3C685,155.1,685.4,156.7,685,158.2z"/>
						<path class="st27" d="M684.2,153.9L479,294.2h-26.1l208.5-142.5h18.4C681.6,151.7,683.2,152.6,684.2,153.9z"/>
						<polygon class="st27" points="679.9,181.1 670.5,223 566.4,294.2 514.5,294.2 						"/>
						<polygon class="st27" points="583,151.7 440.2,249.3 452.9,192.4 512.5,151.7 						"/>
						<path class="st37" d="M496.6,342.4h133.1v-1.1c0-6.1-5-11.1-11.1-11.1H507.8c-6.1,0-11.1,5-11.1,11.1V342.4z"/>
					</g>
					<g>
						<path class="st40" d="M617.2,51.1l-10.6,170.4c-0.1,1.5-1.4,2.8-3,2.8l-171.5-0.2c-1.6,0-2.7-1.2-2.6-2.8L440.2,51
							c0.1-1.5,1.4-2.8,3-2.8l171.4,0.2C616.2,48.4,617.3,49.6,617.2,51.1z"/>
						<path class="st41" d="M617.2,51.1l-0.8,13.2l-184.9-0.2l0.8-13.2c0.1-1.5,1.5-2.8,3.1-2.8l179,0.2
							C616.1,48.4,617.3,49.6,617.2,51.1z"/>
						<path class="st4" d="M609.4,51.1l-10.6,171c-0.1,1.5-1.4,2.8-3,2.8l-171.5-0.2c-1.6,0-2.7-1.2-2.6-2.8l10.6-171
							c0.1-1.5,1.4-2.8,3-2.8l171.4,0.2C608.3,48.4,609.5,49.6,609.4,51.1z"/>
						<path class="st40" d="M518.6,106.4l-19.7,0c-0.9,0-1.7,0.7-1.7,1.6l-0.6,10.2c-0.1,0.9,0.6,1.6,1.5,1.6l19.7,0
							c0.9,0,1.7-0.7,1.7-1.6l0.6-10.2C520.2,107.1,519.5,106.4,518.6,106.4z"/>
						<path class="st40" d="M461.5,165.9l-31.1,0c-0.6,0-1.1-0.5-1-1.1l0.9-14.5c0-0.6,0.6-1.1,1.2-1.1l31.1,0c0.6,0,1.1,0.5,1,1.1
							l-0.9,14.5C462.6,165.4,462.1,165.9,461.5,165.9z"/>
						<g>
							<path class="st2" d="M489.5,110.3l-38.9,0c-0.8,0-1.4-0.6-1.3-1.4l0.5-7.5c0-0.8,0.7-1.4,1.5-1.4l38.9,0
								c0.8,0,1.4,0.6,1.3,1.4l-0.5,7.5C491,109.6,490.3,110.3,489.5,110.3z"/>
							<path class="st2" d="M488.6,126l-38.9,0c-0.8,0-1.4-0.6-1.3-1.4l0.5-7.5c0-0.8,0.7-1.4,1.5-1.4l38.9,0c0.8,0,1.4,0.6,1.3,1.4
								l-0.5,7.5C490,125.3,489.4,126,488.6,126z"/>
							<path class="st2" d="M566.1,110.3l-38.1,0c-0.8,0-1.4-0.6-1.3-1.4l0.5-7.5c0-0.8,0.7-1.4,1.5-1.4l38.1,0
								c0.8,0,1.4,0.6,1.3,1.4l-0.5,7.5C567.6,109.7,566.9,110.3,566.1,110.3z"/>
							<path class="st2" d="M565.2,126.1l-38.1,0c-0.8,0-1.4-0.6-1.3-1.4l0.5-7.5c0-0.8,0.7-1.4,1.5-1.4l38.1,0
								c0.8,0,1.4,0.6,1.3,1.4l-0.5,7.5C566.6,125.4,565.9,126.1,565.2,126.1z"/>
							<path class="st2" d="M593.6,191.8l-163.3-0.1c-1.6,0-2.8-1.2-2.7-2.8l1-16.4c0.1-1.5,1.4-2.8,3-2.8l163.3,0.1
								c1.6,0,2.8,1.2,2.7,2.8l-1,16.4C596.5,190.6,595.2,191.8,593.6,191.8z"/>
						</g>
						<path class="st40" d="M596.8,166l-44.5,0c-0.7,0-1.3-0.6-1.2-1.3l0.9-14.1c0-0.7,0.7-1.3,1.4-1.3l44.5,0
							c0.7,0,1.3,0.6,1.2,1.3l-0.9,14.1C598.1,165.4,597.5,166,596.8,166z"/>
						<path class="st42" d="M609.4,51.1l-0.8,13.2l-177.1-0.2l0.8-13.2c0.1-1.5,1.4-2.8,3-2.8l171.4,0.2
							C608.3,48.4,609.5,49.6,609.4,51.1z"/>
						<g>
							<path d="M487.8,54.9h-2.3l-0.1,1.3h2.2l-0.1,1.1h-2.2l-0.1,2.2h-1.1l0.4-5.6h3.4L487.8,54.9z"/>
							<path d="M489.6,56.2c0.1-0.3,0.3-0.5,0.5-0.6c0.2-0.1,0.5-0.2,0.8-0.2l-0.1,1.2c-0.3,0-0.6,0-0.9,0.2
								c-0.3,0.2-0.4,0.4-0.4,0.8l-0.1,1.9h-1l0.2-4h1L489.6,56.2z"/>
							<path d="M494.4,55.5h1l-0.2,4h-1l0-0.5c-0.3,0.4-0.8,0.6-1.4,0.6c-0.5,0-1-0.2-1.4-0.6c-0.4-0.4-0.5-0.9-0.5-1.5
								s0.3-1.1,0.7-1.5c0.4-0.4,0.9-0.6,1.4-0.6c0.6,0,1,0.2,1.3,0.6L494.4,55.5z M492.3,58.3c0.2,0.2,0.5,0.3,0.8,0.3
								s0.6-0.1,0.8-0.3c0.2-0.2,0.4-0.5,0.4-0.8c0-0.3-0.1-0.6-0.3-0.8c-0.2-0.2-0.5-0.3-0.8-0.3s-0.6,0.1-0.8,0.3
								c-0.2,0.2-0.4,0.5-0.4,0.8C492,57.8,492.1,58.1,492.3,58.3z"/>
							<path d="M498.1,59.6c-0.6,0-1.1-0.2-1.5-0.6c-0.4-0.4-0.6-0.9-0.5-1.5s0.3-1.1,0.7-1.5s1-0.6,1.6-0.6c0.4,0,0.8,0.1,1.1,0.3
								s0.5,0.4,0.7,0.8l-0.9,0.5c-0.1-0.2-0.2-0.3-0.4-0.4c-0.2-0.1-0.3-0.1-0.5-0.1c-0.3,0-0.6,0.1-0.8,0.3
								c-0.2,0.2-0.3,0.5-0.4,0.8s0.1,0.6,0.3,0.8c0.2,0.2,0.5,0.3,0.8,0.3c0.2,0,0.4,0,0.6-0.1c0.2-0.1,0.3-0.2,0.4-0.4l0.9,0.5
								c-0.2,0.3-0.5,0.6-0.8,0.8C498.9,59.5,498.5,59.6,498.1,59.6z"/>
							<path d="M503,56.5h-0.9l-0.1,1.7c0,0.1,0,0.2,0.1,0.3c0.1,0.1,0.2,0.1,0.3,0.1c0.1,0,0.3,0,0.5,0l-0.1,0.9
								c-0.7,0.1-1.2,0-1.5-0.2s-0.4-0.6-0.4-1.2l0.1-1.7h-0.7l0.1-1h0.7l0-0.8l1.1-0.3l-0.1,1.1h0.9L503,56.5z"/>
							<path d="M503.6,59.5l0.2-4h1l-0.2,4H503.6z M504.4,55c-0.2,0-0.3-0.1-0.4-0.2s-0.2-0.3-0.2-0.5c0-0.2,0.1-0.3,0.2-0.5
								s0.3-0.2,0.5-0.2c0.2,0,0.3,0.1,0.5,0.2c0.1,0.1,0.2,0.3,0.2,0.5c0,0.2-0.1,0.3-0.2,0.5S504.6,55,504.4,55z"/>
							<path d="M509.1,59c-0.4,0.4-1,0.6-1.6,0.6s-1.1-0.2-1.5-0.6c-0.4-0.4-0.6-0.9-0.5-1.5c0-0.6,0.3-1.1,0.7-1.5s1-0.6,1.6-0.6
								c0.6,0,1.1,0.2,1.5,0.6c0.4,0.4,0.6,0.9,0.5,1.5C509.8,58.1,509.6,58.6,509.1,59z M506.8,58.3c0.2,0.2,0.5,0.3,0.8,0.3
								s0.6-0.1,0.8-0.3c0.2-0.2,0.4-0.5,0.4-0.8c0-0.3-0.1-0.6-0.3-0.8c-0.2-0.2-0.5-0.3-0.8-0.3s-0.6,0.1-0.8,0.3
								c-0.2,0.2-0.3,0.5-0.4,0.8C506.6,57.8,506.6,58.1,506.8,58.3z"/>
							<path d="M513,55.4c0.5,0,0.8,0.2,1.1,0.4c0.3,0.3,0.4,0.7,0.4,1.2l-0.2,2.5h-1l0.2-2.3c0-0.3,0-0.5-0.2-0.6
								c-0.1-0.1-0.3-0.2-0.6-0.2c-0.3,0-0.5,0.1-0.7,0.2c-0.2,0.2-0.3,0.4-0.3,0.8l-0.1,2.2h-1l0.2-4h1l0,0.5
								C512,55.6,512.4,55.4,513,55.4z"/>
							<path d="M520,59.7c-0.9,0-1.5-0.3-2.1-0.8s-0.8-1.3-0.7-2.1c0-0.8,0.4-1.5,1-2.1c0.6-0.6,1.3-0.8,2.2-0.8
								c0.5,0,1,0.1,1.4,0.4s0.7,0.6,1,1l-1,0.5c-0.1-0.2-0.3-0.5-0.6-0.6c-0.2-0.1-0.5-0.2-0.9-0.2c-0.5,0-1,0.2-1.4,0.5
								s-0.6,0.8-0.6,1.3s0.1,1,0.4,1.3c0.3,0.3,0.8,0.5,1.3,0.5c0.3,0,0.6-0.1,0.9-0.2s0.5-0.3,0.6-0.6l0.9,0.6
								c-0.3,0.4-0.6,0.7-1.1,1C521,59.5,520.5,59.7,520,59.7z"/>
							<path d="M526.4,55.5h1l-0.2,4h-1l0-0.5c-0.3,0.4-0.8,0.6-1.4,0.6c-0.5,0-1-0.2-1.4-0.6s-0.5-0.9-0.5-1.5
								c0-0.6,0.3-1.1,0.7-1.5s0.9-0.6,1.4-0.6c0.6,0,1,0.2,1.3,0.6L526.4,55.5z M524.3,58.3c0.2,0.2,0.5,0.3,0.8,0.3
								s0.6-0.1,0.8-0.3c0.2-0.2,0.3-0.5,0.4-0.8c0-0.3-0.1-0.6-0.3-0.8c-0.2-0.2-0.5-0.3-0.8-0.3s-0.6,0.1-0.8,0.3
								c-0.2,0.2-0.3,0.5-0.4,0.8S524.1,58.1,524.3,58.3z"/>
							<path d="M528.2,59.5l0.4-5.9h1l-0.4,5.9H528.2z"/>
							<path d="M532.2,59.7c-0.6,0-1.1-0.2-1.5-0.6c-0.4-0.4-0.6-0.9-0.5-1.5s0.3-1.1,0.7-1.5s1-0.6,1.6-0.6c0.4,0,0.8,0.1,1.1,0.3
								s0.5,0.4,0.7,0.8l-0.9,0.5c-0.1-0.2-0.2-0.3-0.3-0.4c-0.2-0.1-0.3-0.1-0.5-0.1c-0.3,0-0.6,0.1-0.8,0.3
								c-0.2,0.2-0.3,0.5-0.4,0.8c0,0.3,0.1,0.6,0.3,0.8c0.2,0.2,0.5,0.3,0.8,0.3c0.2,0,0.4,0,0.6-0.1c0.2-0.1,0.3-0.2,0.4-0.4
								l0.9,0.5c-0.2,0.3-0.5,0.6-0.8,0.8C532.9,59.6,532.5,59.7,532.2,59.7z"/>
							<path d="M537.5,55.5h1l-0.2,4h-1l0-0.5c-0.3,0.4-0.7,0.6-1.2,0.6c-0.5,0-0.8-0.2-1.1-0.4c-0.3-0.3-0.4-0.7-0.4-1.2l0.2-2.5h1
								l-0.1,2.3c0,0.3,0,0.5,0.2,0.6c0.1,0.1,0.3,0.2,0.6,0.2c0.3,0,0.5-0.1,0.7-0.2s0.3-0.4,0.3-0.8L537.5,55.5z"/>
							<path d="M539.3,59.6l0.4-5.9h1l-0.4,5.9H539.3z"/>
							<path d="M544.7,55.5h1l-0.2,4h-1l0-0.5c-0.3,0.4-0.8,0.6-1.4,0.6c-0.5,0-1-0.2-1.4-0.6c-0.4-0.4-0.5-0.9-0.5-1.5
								c0-0.6,0.3-1.1,0.7-1.5s0.9-0.6,1.4-0.6c0.6,0,1,0.2,1.3,0.6L544.7,55.5z M542.5,58.4c0.2,0.2,0.5,0.3,0.8,0.3
								c0.3,0,0.6-0.1,0.8-0.3c0.2-0.2,0.3-0.5,0.4-0.8s-0.1-0.6-0.3-0.8s-0.5-0.3-0.8-0.3c-0.3,0-0.6,0.1-0.8,0.3
								c-0.2,0.2-0.3,0.5-0.4,0.8C542.3,57.9,542.3,58.2,542.5,58.4z"/>
							<path d="M548.9,56.5H548l-0.1,1.7c0,0.1,0,0.2,0.1,0.3s0.2,0.1,0.3,0.1c0.1,0,0.3,0,0.5,0l-0.1,0.9c-0.7,0.1-1.2,0-1.5-0.2
								c-0.3-0.2-0.4-0.6-0.4-1.2l0.1-1.7h-0.7l0.1-1h0.7l0-0.8l1.1-0.3l-0.1,1.1h0.9L548.9,56.5z"/>
							<path d="M552.9,59.1c-0.4,0.4-1,0.6-1.6,0.6c-0.6,0-1.1-0.2-1.5-0.6c-0.4-0.4-0.6-0.9-0.5-1.5c0-0.6,0.3-1.1,0.7-1.5
								c0.4-0.4,1-0.6,1.6-0.6c0.6,0,1.1,0.2,1.5,0.6c0.4,0.4,0.6,0.9,0.5,1.5C553.6,58.2,553.3,58.7,552.9,59.1z M550.6,58.3
								c0.2,0.2,0.5,0.3,0.8,0.3s0.6-0.1,0.8-0.3c0.2-0.2,0.3-0.5,0.4-0.8c0-0.3-0.1-0.6-0.3-0.8s-0.5-0.3-0.8-0.3s-0.6,0.1-0.8,0.3
								c-0.2,0.2-0.3,0.5-0.4,0.8C550.3,57.9,550.4,58.1,550.6,58.3z"/>
							<path d="M555.5,56.2c0.1-0.3,0.3-0.5,0.5-0.6c0.2-0.1,0.5-0.2,0.8-0.2l-0.1,1.2c-0.3,0-0.6,0-0.9,0.2
								c-0.3,0.2-0.4,0.4-0.4,0.8l-0.1,1.9h-1l0.2-4h1L555.5,56.2z"/>
						</g>
						<g>
							<path d="M440,159.6c-0.7,0-1.3-0.2-1.7-0.7s-0.6-1.1-0.6-1.7c0-0.7,0.3-1.3,0.8-1.8s1.1-0.7,1.8-0.7c0.4,0,0.8,0.1,1.2,0.3
								s0.6,0.5,0.8,0.8l-0.8,0.5c-0.1-0.2-0.3-0.4-0.5-0.5c-0.2-0.1-0.5-0.2-0.7-0.2c-0.5,0-0.9,0.1-1.1,0.4s-0.5,0.7-0.5,1.1
								c0,0.4,0.1,0.8,0.4,1.1s0.6,0.4,1.1,0.4c0.3,0,0.5-0.1,0.8-0.2s0.4-0.3,0.5-0.5l0.8,0.5c-0.2,0.3-0.5,0.6-0.9,0.8
								C440.8,159.5,440.4,159.6,440,159.6z"/>
							<path d="M442.6,159.6l0.3-4.9h0.9l-0.3,4.9H442.6z"/>
							<path d="M445.1,158.2c0.1,0.4,0.4,0.6,0.9,0.6c0.3,0,0.6-0.1,0.8-0.3l0.7,0.4c-0.4,0.5-0.9,0.7-1.5,0.7c-0.6,0-1-0.2-1.3-0.5
								c-0.3-0.3-0.5-0.8-0.4-1.3c0-0.5,0.2-0.9,0.6-1.3c0.4-0.3,0.8-0.5,1.3-0.5c0.5,0,0.9,0.2,1.2,0.5c0.3,0.3,0.4,0.8,0.4,1.3
								c0,0.1,0,0.2-0.1,0.4H445.1z M445.2,157.6h1.7c0-0.2-0.1-0.4-0.3-0.5s-0.3-0.2-0.5-0.2c-0.2,0-0.4,0.1-0.6,0.2
								C445.4,157.2,445.2,157.3,445.2,157.6z"/>
							<path d="M451.1,156.2h0.9l-0.2,3.4h-0.9l0-0.4c-0.3,0.3-0.7,0.5-1.1,0.5c-0.5,0-0.8-0.2-1.1-0.5c-0.3-0.3-0.4-0.8-0.4-1.3
								s0.2-0.9,0.6-1.3s0.8-0.5,1.2-0.5c0.5,0,0.8,0.2,1.1,0.5L451.1,156.2z M449.3,158.6c0.2,0.2,0.4,0.3,0.7,0.3s0.5-0.1,0.7-0.3
								c0.2-0.2,0.3-0.4,0.3-0.7s-0.1-0.5-0.2-0.7c-0.2-0.2-0.4-0.3-0.7-0.3c-0.3,0-0.5,0.1-0.7,0.3c-0.2,0.2-0.3,0.4-0.3,0.7
								S449.1,158.4,449.3,158.6z"/>
							<path d="M453.6,156.8c0.1-0.2,0.2-0.4,0.4-0.5c0.2-0.1,0.4-0.2,0.6-0.2l-0.1,1c-0.3,0-0.5,0-0.7,0.2s-0.3,0.4-0.4,0.7
								l-0.1,1.6h-0.9l0.2-3.4h0.9L453.6,156.8z"/>
						</g>
						<g>
							<path d="M436,179l-0.2-0.9h-2l-0.3,0.9h-1l2-4.7h1.2l1.4,4.7H436z M434.2,177.2h1.4l-0.6-1.9L434.2,177.2z"/>
							<path d="M439.5,175.5c0.4,0,0.7,0.1,0.9,0.4c0.2,0.2,0.3,0.6,0.3,1l-0.1,2.1h-0.9l0.1-2c0-0.2,0-0.4-0.1-0.5
								c-0.1-0.1-0.3-0.2-0.5-0.2c-0.2,0-0.4,0.1-0.6,0.2s-0.2,0.4-0.2,0.6l-0.1,1.8h-0.9l0.2-3.4h0.9l0,0.4
								C438.7,175.7,439,175.5,439.5,175.5z"/>
							<path d="M442.3,176.6c0,0.1,0,0.2,0.2,0.2c0.1,0.1,0.3,0.1,0.4,0.1c0.2,0,0.3,0.1,0.5,0.2c0.2,0.1,0.3,0.2,0.4,0.3
								c0.1,0.1,0.2,0.3,0.1,0.6c0,0.4-0.2,0.6-0.4,0.8c-0.3,0.2-0.6,0.3-1,0.3c-0.7,0-1.2-0.3-1.4-0.8l0.8-0.4
								c0.1,0.3,0.3,0.4,0.6,0.4c0.3,0,0.5-0.1,0.5-0.3c0-0.1,0-0.2-0.2-0.2c-0.1-0.1-0.3-0.1-0.4-0.1c-0.2,0-0.3-0.1-0.5-0.2
								s-0.3-0.2-0.4-0.3c-0.1-0.1-0.2-0.3-0.1-0.6c0-0.3,0.2-0.6,0.4-0.8s0.6-0.3,0.9-0.3c0.3,0,0.5,0.1,0.8,0.2
								c0.2,0.1,0.4,0.3,0.5,0.5l-0.8,0.4c-0.1-0.2-0.3-0.3-0.5-0.3c-0.1,0-0.2,0-0.3,0.1C442.4,176.4,442.3,176.5,442.3,176.6z"/>
							<path d="M448.5,175.6h0.9l-1.2,3.4h-0.9l-0.5-2l-0.8,2h-0.9l-0.8-3.4h0.9l0.5,2.1l0.8-2.1h0.8l0.5,2.1L448.5,175.6z"/>
							<path d="M450.4,177.6c0.1,0.4,0.4,0.6,0.9,0.6c0.3,0,0.6-0.1,0.8-0.3l0.7,0.4c-0.4,0.5-0.9,0.7-1.5,0.7c-0.6,0-1-0.2-1.3-0.5
								c-0.3-0.3-0.5-0.8-0.4-1.3c0-0.5,0.2-0.9,0.6-1.3c0.4-0.3,0.8-0.5,1.3-0.5c0.5,0,0.9,0.2,1.2,0.5c0.3,0.3,0.4,0.8,0.4,1.3
								c0,0.1,0,0.2-0.1,0.4L450.4,177.6z M450.4,177h1.7c0-0.2-0.1-0.4-0.3-0.5s-0.3-0.2-0.5-0.2c-0.2,0-0.4,0.1-0.6,0.2
								C450.5,176.6,450.4,176.8,450.4,177z"/>
							<path d="M454.5,176.2c0.1-0.2,0.2-0.4,0.4-0.5c0.2-0.1,0.4-0.2,0.6-0.2l-0.1,1c-0.3,0-0.5,0-0.7,0.2s-0.3,0.4-0.4,0.7
								l-0.1,1.6h-0.9l0.2-3.4h0.9L454.5,176.2z"/>
							<path d="M456.9,178.9c-0.1,0.1-0.3,0.2-0.4,0.2s-0.3-0.1-0.4-0.2s-0.2-0.2-0.1-0.4s0.1-0.3,0.2-0.4c0.1-0.1,0.3-0.2,0.4-0.2
								s0.3,0.1,0.4,0.2s0.2,0.2,0.1,0.4S457,178.8,456.9,178.9z M457,176.5c-0.1,0.1-0.3,0.2-0.4,0.2s-0.3-0.1-0.4-0.2
								s-0.2-0.2-0.1-0.4s0.1-0.3,0.2-0.4c0.1-0.1,0.3-0.2,0.4-0.2s0.3,0.1,0.4,0.2s0.2,0.2,0.1,0.4
								C457.2,176.2,457.1,176.4,457,176.5z"/>
						</g>
						<g>
							<path d="M563.4,159.8c-0.7,0-1.3-0.2-1.7-0.7s-0.6-1.1-0.6-1.8c0-0.7,0.3-1.3,0.8-1.8s1.1-0.7,1.8-0.7c0.4,0,0.8,0.1,1.2,0.3
								s0.6,0.5,0.8,0.8l-0.8,0.5c-0.1-0.2-0.3-0.4-0.5-0.5c-0.2-0.1-0.5-0.2-0.7-0.2c-0.5,0-0.8,0.1-1.2,0.4
								c-0.3,0.3-0.5,0.7-0.5,1.1c0,0.4,0.1,0.8,0.4,1.1c0.3,0.3,0.6,0.4,1.1,0.4c0.3,0,0.5-0.1,0.8-0.2s0.4-0.3,0.5-0.5l0.8,0.5
								c-0.2,0.3-0.5,0.6-0.9,0.8C564.2,159.7,563.8,159.8,563.4,159.8z"/>
							<path d="M568.8,156.3h0.9l-0.2,3.4h-0.9l0-0.4c-0.3,0.3-0.7,0.5-1.2,0.5c-0.5,0-0.8-0.2-1.1-0.5c-0.3-0.3-0.4-0.8-0.4-1.3
								s0.2-0.9,0.6-1.3c0.3-0.3,0.8-0.5,1.2-0.5c0.5,0,0.8,0.2,1.1,0.5L568.8,156.3z M567,158.7c0.2,0.2,0.4,0.3,0.7,0.3
								s0.5-0.1,0.7-0.3c0.2-0.2,0.3-0.4,0.3-0.7s-0.1-0.5-0.2-0.7c-0.2-0.2-0.4-0.3-0.7-0.3s-0.5,0.1-0.7,0.3
								c-0.2,0.2-0.3,0.4-0.3,0.7S566.9,158.5,567,158.7z"/>
							<path d="M570.3,159.7l0.3-4.9h0.9l-0.3,4.9H570.3z"/>
							<path d="M573.6,159.8c-0.5,0-0.9-0.2-1.3-0.5c-0.3-0.3-0.5-0.8-0.4-1.3s0.2-0.9,0.6-1.3c0.4-0.3,0.8-0.5,1.3-0.5
								c0.3,0,0.6,0.1,0.9,0.2s0.5,0.4,0.6,0.6l-0.8,0.4c-0.1-0.1-0.2-0.2-0.3-0.3s-0.3-0.1-0.5-0.1c-0.3,0-0.5,0.1-0.7,0.3
								c-0.2,0.2-0.3,0.4-0.3,0.7c0,0.3,0.1,0.5,0.2,0.7c0.2,0.2,0.4,0.3,0.6,0.3c0.2,0,0.3,0,0.5-0.1c0.1-0.1,0.2-0.2,0.3-0.3
								l0.7,0.4c-0.2,0.3-0.4,0.5-0.7,0.6C574.2,159.7,573.9,159.8,573.6,159.8z"/>
							<path d="M578.1,156.3h0.9l-0.2,3.4h-0.9l0-0.4c-0.2,0.3-0.6,0.5-1,0.5c-0.4,0-0.7-0.1-0.9-0.4c-0.2-0.2-0.3-0.6-0.3-1
								l0.1-2.1h0.9l-0.1,2c0,0.2,0,0.4,0.2,0.5c0.1,0.1,0.3,0.2,0.5,0.2c0.2,0,0.4-0.1,0.6-0.2s0.2-0.4,0.2-0.6L578.1,156.3z"/>
							<path d="M579.6,159.7l0.3-4.9h0.9l-0.3,4.9H579.6z"/>
							<path d="M584.1,156.3h0.9l-0.2,3.4h-0.9l0-0.4c-0.3,0.3-0.7,0.5-1.2,0.5c-0.5,0-0.8-0.2-1.1-0.5c-0.3-0.3-0.4-0.8-0.4-1.3
								s0.2-0.9,0.6-1.3c0.3-0.3,0.8-0.5,1.2-0.5c0.5,0,0.8,0.2,1.1,0.5L584.1,156.3z M582.3,158.7c0.2,0.2,0.4,0.3,0.7,0.3
								c0.3,0,0.5-0.1,0.7-0.3c0.2-0.2,0.3-0.4,0.3-0.7s-0.1-0.5-0.2-0.7c-0.2-0.2-0.4-0.3-0.7-0.3c-0.3,0-0.5,0.1-0.7,0.3
								c-0.2,0.2-0.3,0.4-0.3,0.7C582.1,158.3,582.2,158.5,582.3,158.7z"/>
							<path d="M587.7,157.2h-0.8l-0.1,1.4c0,0.1,0,0.2,0.1,0.3s0.1,0.1,0.2,0.1s0.2,0,0.4,0l0,0.8c-0.6,0.1-1,0-1.3-0.2
								s-0.3-0.5-0.3-1l0.1-1.4h-0.6l0-0.8h0.6l0-0.7l0.9-0.3l-0.1,0.9h0.8L587.7,157.2z"/>
							<path d="M588.9,158.4c0.1,0.4,0.4,0.6,0.9,0.6c0.3,0,0.6-0.1,0.8-0.3l0.7,0.4c-0.4,0.5-0.9,0.7-1.5,0.7c-0.6,0-1-0.2-1.3-0.5
								s-0.5-0.8-0.4-1.3c0-0.5,0.2-0.9,0.6-1.3c0.4-0.3,0.8-0.5,1.3-0.5c0.5,0,0.9,0.2,1.2,0.5c0.3,0.3,0.4,0.8,0.4,1.3
								c0,0.1,0,0.2-0.1,0.4L588.9,158.4z M588.9,157.7h1.7c0-0.2-0.1-0.4-0.3-0.5s-0.3-0.2-0.5-0.2c-0.2,0-0.4,0.1-0.6,0.2
								C589.1,157.3,589,157.5,588.9,157.7z"/>
						</g>
						<g>
							<path d="M471.1,78.4c-0.6,0-1.1-0.2-1.4-0.5s-0.4-0.8-0.3-1.4l0.9-3.6h0.7l-0.9,3.5c-0.1,0.4,0,0.7,0.1,0.9
								c0.2,0.2,0.5,0.3,0.9,0.3c0.4,0,0.8-0.1,1.1-0.3c0.3-0.2,0.5-0.5,0.6-0.9l0.9-3.5h0.7l-0.9,3.6c-0.1,0.6-0.4,1.1-0.9,1.4
								S471.7,78.4,471.1,78.4z"/>
							<path d="M475.5,78.4c-0.4,0-0.7-0.1-0.9-0.2s-0.4-0.4-0.5-0.7l0.6-0.3c0,0.2,0.1,0.3,0.3,0.4c0.1,0.1,0.4,0.2,0.6,0.2
								c0.2,0,0.4,0,0.6-0.1s0.3-0.2,0.3-0.4c0-0.1,0-0.2,0-0.3s-0.1-0.1-0.3-0.2s-0.2-0.1-0.4-0.2s-0.3-0.1-0.4-0.2
								c-0.1-0.1-0.3-0.1-0.4-0.2c-0.1-0.1-0.2-0.2-0.2-0.3s0-0.3,0-0.5c0.1-0.3,0.3-0.6,0.5-0.8c0.3-0.2,0.6-0.3,1-0.3
								c0.7,0,1.1,0.3,1.3,0.8l-0.6,0.3c-0.1-0.3-0.3-0.5-0.8-0.5c-0.2,0-0.4,0-0.5,0.1s-0.2,0.2-0.3,0.4c0,0.2,0,0.3,0.1,0.4
								c0.1,0.1,0.3,0.2,0.5,0.2c0.2,0.1,0.4,0.1,0.6,0.2s0.4,0.2,0.5,0.4c0.1,0.2,0.1,0.4,0.1,0.7c-0.1,0.3-0.3,0.6-0.6,0.8
								C476.2,78.3,475.9,78.4,475.5,78.4z"/>
							<path d="M480.3,74.4c0.6,0,1,0.2,1.3,0.6s0.4,0.9,0.2,1.4c0,0.1,0,0.2-0.1,0.3h-3.2c0,0.3,0.1,0.6,0.3,0.8
								c0.2,0.2,0.5,0.3,0.8,0.3c0.5,0,1-0.2,1.3-0.6l0.5,0.4c-0.2,0.3-0.5,0.5-0.8,0.6c-0.3,0.2-0.7,0.2-1,0.2
								c-0.6,0-1.1-0.2-1.4-0.6c-0.3-0.4-0.4-0.9-0.2-1.5c0.1-0.6,0.4-1,0.9-1.4C479.2,74.5,479.7,74.4,480.3,74.4z M478.6,76.1h2.6
								c0-0.4,0-0.6-0.2-0.8c-0.2-0.2-0.4-0.3-0.8-0.3c-0.4,0-0.7,0.1-1,0.3C478.9,75.5,478.7,75.8,478.6,76.1z"/>
							<path d="M490.5,72.9l-1.3,5.4h-0.7l1-4.2L487,77h-0.1l-1.1-3l-1,4.2h-0.7l1.3-5.4h0.8l1,2.9l2.4-2.8
								C489.6,72.9,490.5,72.9,490.5,72.9z"/>
							<path d="M490.3,78.3l0.9-3.8h0.7l-0.9,3.8H490.3z M491.7,73.8c-0.1,0-0.2,0-0.3-0.1s-0.1-0.2-0.1-0.3c0-0.1,0.1-0.2,0.2-0.3
								c0.1-0.1,0.2-0.1,0.4-0.1c0.1,0,0.2,0,0.3,0.1s0.1,0.2,0.1,0.3c0,0.1-0.1,0.2-0.2,0.3C492,73.7,491.9,73.8,491.7,73.8z"/>
							<path d="M496.2,74.5l-1.9,1.9l1,1.9h-0.8l-0.8-1.4l-1.4,1.4h-0.8l2-2l-1-1.8h0.8l0.7,1.3l1.3-1.3L496.2,74.5z"/>
							<path d="M498.4,74.4c0.6,0,1,0.2,1.3,0.6c0.3,0.4,0.4,0.9,0.2,1.4c0,0.1,0,0.2-0.1,0.3h-3.2c0,0.3,0.1,0.6,0.3,0.8
								s0.5,0.3,0.8,0.3c0.5,0,1-0.2,1.3-0.6l0.5,0.4c-0.2,0.3-0.5,0.5-0.8,0.6c-0.3,0.1-0.7,0.2-1,0.2c-0.6,0-1.1-0.2-1.4-0.6
								c-0.3-0.4-0.4-0.9-0.2-1.5c0.1-0.6,0.4-1,0.9-1.4C497.4,74.6,497.9,74.4,498.4,74.4z M496.8,76.1h2.6c0-0.4,0-0.6-0.2-0.8
								c-0.2-0.2-0.4-0.3-0.8-0.3c-0.4,0-0.7,0.1-1,0.3C497.1,75.5,496.9,75.8,496.8,76.1z"/>
							<path d="M504.8,72.9h0.7l-1.3,5.4h-0.7l0.1-0.6c-0.4,0.4-1,0.7-1.6,0.7c-0.5,0-1-0.2-1.3-0.6c-0.3-0.4-0.4-0.9-0.2-1.5
								c0.1-0.6,0.4-1.1,0.9-1.4s0.9-0.5,1.5-0.5c0.3,0,0.6,0.1,0.9,0.2c0.2,0.1,0.4,0.3,0.5,0.6L504.8,72.9z M501.4,77.4
								c0.2,0.3,0.5,0.4,0.9,0.4c0.4,0,0.8-0.1,1.1-0.4s0.5-0.6,0.6-1c0.1-0.4,0-0.8-0.2-1s-0.5-0.4-0.9-0.4c-0.4,0-0.7,0.1-1,0.3
								c-0.3,0.2-0.5,0.6-0.6,1C501.1,76.8,501.2,77.1,501.4,77.4z"/>
							<path d="M511.5,73.6h-2.4l-0.4,1.7h2.3l-0.2,0.7h-2.3l-0.5,2.3h-0.7l1.3-5.4h3.1L511.5,73.6z"/>
							<path d="M512.6,75.1c0.3-0.4,0.8-0.6,1.4-0.6l-0.2,0.7c-0.3,0-0.6,0.1-0.9,0.3c-0.3,0.2-0.5,0.5-0.6,0.9v0l-0.5,2h-0.7
								l0.9-3.8h0.7L512.6,75.1z"/>
							<path d="M517.7,74.5h0.7l-0.9,3.8h-0.7l0.1-0.5c-0.4,0.4-1,0.6-1.6,0.6c-0.5,0-1-0.2-1.3-0.6c-0.3-0.4-0.4-0.9-0.2-1.5
								c0.1-0.6,0.4-1.1,0.9-1.4s0.9-0.5,1.5-0.5c0.3,0,0.6,0.1,0.8,0.2c0.2,0.1,0.4,0.3,0.5,0.6L517.7,74.5z M514.7,77.4
								c0.2,0.3,0.5,0.4,0.9,0.4c0.4,0,0.8-0.1,1.1-0.4s0.5-0.6,0.6-1c0.1-0.4,0-0.8-0.2-1s-0.5-0.4-0.9-0.4c-0.4,0-0.7,0.1-1,0.3
								c-0.3,0.2-0.5,0.6-0.6,1C514.4,76.8,514.5,77.1,514.7,77.4z"/>
							<path d="M520.3,78.4c-0.6,0-1-0.2-1.3-0.6s-0.4-0.9-0.2-1.5c0.1-0.6,0.4-1,0.9-1.4s1-0.5,1.6-0.5c0.4,0,0.7,0.1,1,0.3
								s0.5,0.4,0.5,0.7l-0.6,0.3c-0.1-0.4-0.5-0.7-1-0.7c-0.4,0-0.8,0.1-1.1,0.4c-0.3,0.2-0.5,0.6-0.6,0.9c-0.1,0.4,0,0.7,0.2,1
								s0.5,0.4,0.9,0.4c0.3,0,0.5-0.1,0.7-0.2s0.4-0.3,0.6-0.5l0.5,0.3c-0.2,0.3-0.5,0.6-0.8,0.7C521.1,78.3,520.7,78.4,520.3,78.4
								z"/>
							<path d="M524.6,75.1l-0.5,2.1c0,0.2,0,0.3,0,0.4s0.2,0.1,0.3,0.1c0.2,0,0.3,0,0.6,0l-0.2,0.6c-0.6,0.1-1,0-1.2-0.2
								s-0.3-0.5-0.2-1l0.5-2.1h-0.8l0.2-0.6h0.8l0.2-0.9l0.7-0.2l-0.3,1.1h1l-0.2,0.6L524.6,75.1z"/>
							<path d="M525.7,78.3l0.9-3.8h0.7l-0.9,3.8H525.7z M527.1,73.8c-0.1,0-0.2,0-0.3-0.1s-0.1-0.2-0.1-0.3c0-0.1,0.1-0.2,0.2-0.3
								c0.1-0.1,0.2-0.1,0.4-0.1c0.1,0,0.2,0,0.3,0.1s0.1,0.2,0.1,0.3c0,0.1-0.1,0.2-0.2,0.3C527.3,73.8,527.2,73.8,527.1,73.8z"/>
							<path d="M529.2,78.4c-0.6,0-1-0.2-1.3-0.6c-0.3-0.4-0.4-0.9-0.3-1.5c0.2-0.6,0.5-1.1,0.9-1.4c0.5-0.3,1-0.5,1.6-0.5
								c0.5,0,1,0.2,1.3,0.6s0.4,0.9,0.3,1.5c-0.1,0.6-0.5,1.1-0.9,1.4C530.3,78.3,529.8,78.4,529.2,78.4z M529.3,77.8
								c0.4,0,0.7-0.1,1.1-0.4s0.5-0.6,0.6-1c0.1-0.4,0-0.7-0.2-1c-0.2-0.2-0.5-0.4-0.9-0.4c-0.4,0-0.7,0.1-1,0.4
								c-0.3,0.2-0.5,0.6-0.7,1c-0.1,0.4,0,0.8,0.2,1C528.7,77.7,529,77.8,529.3,77.8z"/>
							<path d="M534.9,74.4c0.5,0,0.8,0.1,1,0.4c0.2,0.3,0.3,0.7,0.2,1.2l-0.6,2.3h-0.7l0.6-2.3c0.1-0.3,0-0.6-0.1-0.7
								c-0.1-0.2-0.3-0.2-0.7-0.2c-0.3,0-0.6,0.1-0.9,0.3s-0.4,0.5-0.5,0.9v0l-0.5,2h-0.7l0.9-3.8h0.7l-0.1,0.5
								C533.9,74.6,534.3,74.4,534.9,74.4z"/>
							<path d="M543.1,73h0.7l-1.3,5.4h-0.7l0.6-2.4h-2.6l-0.6,2.4h-0.7l1.3-5.4h0.7l-0.5,2.3h2.6L543.1,73z"/>
							<path d="M546.3,74.4c0.6,0,1,0.2,1.3,0.6s0.4,0.9,0.2,1.4c0,0.1,0,0.2-0.1,0.3h-3.2c0,0.3,0.1,0.6,0.3,0.8s0.5,0.3,0.8,0.3
								c0.5,0,1-0.2,1.3-0.6l0.5,0.4c-0.2,0.3-0.5,0.5-0.8,0.6c-0.3,0.1-0.7,0.2-1,0.2c-0.6,0-1.1-0.2-1.4-0.6
								c-0.3-0.4-0.4-0.9-0.2-1.5c0.1-0.6,0.4-1,0.9-1.4C545.2,74.6,545.8,74.4,546.3,74.4z M544.6,76.2h2.6c0-0.4,0-0.6-0.2-0.8
								c-0.2-0.2-0.4-0.3-0.8-0.3c-0.4,0-0.7,0.1-1,0.3C545,75.5,544.8,75.8,544.6,76.2z"/>
							<path d="M549.6,75.1c0.3-0.4,0.8-0.6,1.4-0.6l-0.2,0.7c-0.3,0-0.6,0.1-0.9,0.3c-0.3,0.2-0.5,0.5-0.6,0.9v0l-0.5,2h-0.7
								l0.9-3.8h0.7L549.6,75.1z"/>
							<path d="M553.3,74.4c0.6,0,1,0.2,1.3,0.6c0.3,0.4,0.4,0.9,0.2,1.4c0,0.1,0,0.2-0.1,0.3h-3.2c0,0.3,0.1,0.6,0.3,0.8
								s0.5,0.3,0.8,0.3c0.5,0,1-0.2,1.3-0.6l0.5,0.4c-0.2,0.3-0.5,0.5-0.8,0.6s-0.7,0.2-1,0.2c-0.6,0-1.1-0.2-1.4-0.6
								s-0.4-0.9-0.2-1.5c0.1-0.6,0.4-1,0.9-1.4C552.2,74.6,552.7,74.4,553.3,74.4z M551.6,76.2h2.6c0-0.4,0-0.6-0.2-0.8
								c-0.2-0.2-0.4-0.3-0.8-0.3c-0.4,0-0.7,0.1-1,0.3C551.9,75.6,551.7,75.8,551.6,76.2z"/>
							<path d="M558,74l2.9,1.4l-0.1,0.3l-0.1,0.3l-3.5,1.4l0.2-0.8l2.7-1l-2.2-1L558,74z"/>
							<path d="M562.1,74l2.9,1.4l-0.1,0.3l-0.1,0.3l-3.5,1.4l0.2-0.8l2.7-1l-2.2-1L562.1,74z"/>
							<path d="M566.2,74l2.9,1.4l-0.1,0.3l-0.1,0.3l-3.5,1.4l0.2-0.8l2.7-1l-2.2-1L566.2,74z"/>
						</g>
						<g>
							<path d="M465.6,203.7l-0.1,0.3c-0.1,0.6-0.5,1.1-1,1.6s-1.1,0.6-1.8,0.6c-0.8,0-1.3-0.2-1.7-0.8s-0.5-1.1-0.3-1.8
								c0.2-0.7,0.5-1.2,1.1-1.7s1.2-0.7,1.9-0.7c0.5,0,0.9,0.1,1.2,0.3c0.3,0.2,0.6,0.5,0.7,0.9l-0.6,0.3c-0.3-0.6-0.7-0.9-1.4-0.9
								c-0.6,0-1,0.2-1.5,0.5c-0.4,0.4-0.7,0.8-0.8,1.3c-0.1,0.5-0.1,1,0.2,1.3c0.3,0.4,0.7,0.5,1.3,0.5c0.5,0,0.9-0.1,1.3-0.4
								c0.4-0.2,0.6-0.5,0.8-0.9H463l0.1-0.6L465.6,203.7z"/>
							<path d="M468.1,202.5c0.5,0,0.9,0.2,1.2,0.5s0.3,0.8,0.2,1.3c0,0.1,0,0.2-0.1,0.3h-2.9c0,0.3,0.1,0.5,0.2,0.7
								c0.2,0.2,0.4,0.2,0.8,0.2c0.5,0,0.8-0.2,1.1-0.5l0.4,0.3c-0.2,0.2-0.4,0.4-0.7,0.6c-0.3,0.1-0.6,0.2-0.9,0.2
								c-0.5,0-1-0.2-1.2-0.5s-0.3-0.8-0.2-1.3c0.1-0.5,0.4-0.9,0.8-1.2C467.1,202.7,467.6,202.5,468.1,202.5z M466.6,204.1h2.3
								c0-0.3,0-0.6-0.2-0.7c-0.2-0.2-0.4-0.2-0.7-0.2c-0.3,0-0.6,0.1-0.9,0.3C466.9,203.5,466.8,203.8,466.6,204.1z"/>
							<path d="M471.3,203.2l-0.4,1.8c0,0.2,0,0.3,0,0.4s0.1,0.1,0.3,0.1s0.3,0,0.5,0l-0.1,0.5c-0.5,0.1-0.9,0-1.1-0.1
								c-0.2-0.2-0.3-0.4-0.2-0.9l0.4-1.8H470l0.1-0.6h0.7l0.2-0.8l0.6-0.2l-0.2,0.9h0.9l-0.1,0.6L471.3,203.2z"/>
							<path d="M477.7,202.6h0.6l-0.8,3.4h-0.6l0.1-0.5c-0.4,0.4-0.9,0.6-1.4,0.6c-0.5,0-0.9-0.2-1.1-0.6s-0.3-0.8-0.2-1.3
								c0.1-0.5,0.4-0.9,0.8-1.2c0.4-0.3,0.8-0.5,1.3-0.5c0.3,0,0.5,0.1,0.8,0.2c0.2,0.1,0.4,0.3,0.5,0.5L477.7,202.6z M475,205.2
								c0.2,0.2,0.5,0.4,0.8,0.4c0.4,0,0.7-0.1,1-0.3s0.5-0.5,0.5-0.9c0.1-0.4,0-0.7-0.1-0.9c-0.2-0.2-0.5-0.3-0.8-0.3
								c-0.3,0-0.6,0.1-0.9,0.3c-0.3,0.2-0.5,0.5-0.6,0.9C474.8,204.6,474.8,204.9,475,205.2z"/>
							<path d="M481.2,206l-0.2-4.8h0.6l0.2,3.9l2.1-3.9h0.6l0.2,3.9l2.1-3.9h0.7l-2.5,4.8h-0.8l-0.2-3.8l-2.1,3.8L481.2,206z"/>
							<path d="M486.9,206l0.8-3.4h0.6l-0.8,3.4H486.9z M488.2,202c-0.1,0-0.2,0-0.3-0.1s-0.1-0.2,0-0.3c0-0.1,0.1-0.2,0.2-0.3
								c0.1-0.1,0.2-0.1,0.3-0.1c0.1,0,0.2,0,0.3,0.1s0.1,0.2,0,0.3s-0.1,0.2-0.2,0.3C488.4,202,488.3,202,488.2,202z"/>
							<path d="M492.4,201.3h0.6l-1.1,4.8h-0.6l0.1-0.5c-0.4,0.4-0.9,0.6-1.4,0.6c-0.5,0-0.9-0.2-1.1-0.6s-0.3-0.8-0.2-1.3
								c0.1-0.5,0.4-0.9,0.8-1.2c0.4-0.3,0.8-0.5,1.3-0.5c0.3,0,0.5,0.1,0.8,0.2s0.4,0.3,0.5,0.5L492.4,201.3z M489.4,205.2
								c0.2,0.2,0.5,0.4,0.8,0.4c0.4,0,0.7-0.1,1-0.3c0.3-0.2,0.5-0.5,0.5-0.9c0.1-0.4,0-0.7-0.1-0.9c-0.2-0.2-0.5-0.3-0.8-0.3
								c-0.3,0-0.6,0.1-0.9,0.3c-0.3,0.2-0.5,0.5-0.6,0.9C489.2,204.7,489.2,205,489.4,205.2z"/>
							<path d="M496.5,202.6h0.6l-0.8,3.3c-0.1,0.5-0.4,0.9-0.8,1.2c-0.4,0.3-0.8,0.4-1.3,0.4c-0.4,0-0.7-0.1-0.9-0.2
								s-0.4-0.4-0.5-0.6l0.5-0.3c0.1,0.4,0.5,0.6,1,0.6c0.4,0,0.7-0.1,0.9-0.3c0.2-0.2,0.4-0.4,0.5-0.8l0.1-0.4
								c-0.4,0.4-0.8,0.6-1.4,0.6c-0.5,0-0.9-0.2-1.2-0.5c-0.3-0.4-0.3-0.8-0.2-1.3c0.1-0.5,0.4-0.9,0.8-1.2
								c0.4-0.3,0.8-0.5,1.3-0.5c0.3,0,0.5,0.1,0.8,0.2c0.2,0.1,0.4,0.3,0.5,0.5L496.5,202.6z M494.6,205.5c0.3,0,0.6-0.1,0.9-0.3
								c0.3-0.2,0.5-0.5,0.6-0.8l0-0.2c0.1-0.4,0-0.6-0.2-0.8c-0.2-0.2-0.5-0.3-0.8-0.3c-0.3,0-0.6,0.1-0.9,0.3
								c-0.3,0.2-0.5,0.5-0.5,0.9c-0.1,0.4,0,0.6,0.1,0.9S494.2,205.5,494.6,205.5z"/>
							<path d="M499.6,202.6c0.5,0,0.9,0.2,1.2,0.5s0.3,0.8,0.2,1.3c0,0.1,0,0.2-0.1,0.3H498c0,0.3,0.1,0.5,0.2,0.7
								c0.2,0.2,0.4,0.2,0.8,0.2c0.5,0,0.8-0.2,1.1-0.5l0.4,0.3c-0.2,0.2-0.4,0.4-0.7,0.6s-0.6,0.2-0.9,0.2c-0.5,0-1-0.2-1.2-0.5
								s-0.3-0.8-0.2-1.3c0.1-0.5,0.4-0.9,0.8-1.2C498.6,202.7,499.1,202.6,499.6,202.6z M498.1,204.1h2.3c0-0.3,0-0.6-0.2-0.7
								s-0.4-0.2-0.7-0.2c-0.3,0-0.6,0.1-0.9,0.3S498.2,203.8,498.1,204.1z"/>
							<path d="M502.8,203.2l-0.4,1.8c0,0.2,0,0.3,0,0.4s0.1,0.1,0.3,0.1s0.3,0,0.5,0L503,206c-0.5,0.1-0.9,0-1.1-0.1
								c-0.2-0.2-0.3-0.4-0.2-0.9l0.4-1.8h-0.7l0.1-0.6h0.7l0.2-0.8l0.6-0.2l-0.2,0.9h0.9l-0.1,0.6L502.8,203.2z"/>
							<path d="M506.6,202.6c0.1-0.5,0.3-0.8,0.6-1.1c0.3-0.2,0.7-0.3,1.2-0.3l-0.1,0.6c-0.6-0.1-1,0.2-1.1,0.8l0,0.1h0.9l-0.1,0.6
								H507l-0.7,2.8h-0.6l0.7-2.8h-0.6l0.1-0.6h0.6L506.6,202.6z"/>
							<path d="M509.2,206.1c-0.5,0-0.9-0.2-1.2-0.5s-0.4-0.8-0.2-1.3c0.1-0.5,0.4-0.9,0.8-1.3s0.9-0.5,1.4-0.5
								c0.5,0,0.9,0.2,1.2,0.5s0.4,0.8,0.2,1.3c-0.1,0.5-0.4,1-0.8,1.3C510.1,206,509.7,206.1,509.2,206.1z M509.3,205.6
								c0.3,0,0.6-0.1,0.9-0.3s0.5-0.5,0.6-0.9c0.1-0.4,0-0.7-0.1-0.9c-0.2-0.2-0.5-0.3-0.8-0.3s-0.6,0.1-0.9,0.3
								c-0.3,0.2-0.5,0.5-0.6,0.9c-0.1,0.4,0,0.7,0.1,0.9C508.7,205.5,508.9,205.6,509.3,205.6z"/>
							<path d="M513,203.2c0.3-0.4,0.7-0.6,1.2-0.6l-0.2,0.6c-0.3,0-0.6,0.1-0.8,0.2c-0.2,0.2-0.4,0.4-0.5,0.8v0l-0.4,1.8h-0.6
								l0.8-3.4h0.6L513,203.2z"/>
							<path d="M517.3,203.2l-0.4,1.8c0,0.2,0,0.3,0,0.4s0.2,0.1,0.3,0.1c0.1,0,0.3,0,0.5,0l-0.1,0.5c-0.5,0.1-0.9,0-1.1-0.1
								c-0.2-0.2-0.3-0.4-0.2-0.9l0.4-1.8h-0.7l0.2-0.6h0.7l0.2-0.8l0.6-0.2l-0.2,0.9h0.9l-0.1,0.6L517.3,203.2z"/>
							<path d="M520.8,202.6c0.4,0,0.7,0.1,0.9,0.4c0.2,0.2,0.2,0.6,0.1,1l-0.5,2.1h-0.6l0.5-2.1c0.1-0.3,0-0.5-0.1-0.6
								s-0.3-0.2-0.6-0.2c-0.3,0-0.6,0.1-0.8,0.3c-0.2,0.2-0.4,0.5-0.5,0.9v0l-0.4,1.8h-0.6l1.2-4.8h0.6l-0.4,1.8
								C519.9,202.8,520.3,202.6,520.8,202.6z"/>
							<path d="M522.2,206.1l0.8-3.4h0.6l-0.8,3.4H522.2z M523.5,202.1c-0.1,0-0.2,0-0.3-0.1s-0.1-0.2,0-0.3c0-0.1,0.1-0.2,0.2-0.3
								c0.1-0.1,0.2-0.1,0.3-0.1c0.1,0,0.2,0,0.3,0.1s0.1,0.2,0,0.3s-0.1,0.2-0.2,0.3C523.7,202,523.6,202.1,523.5,202.1z"/>
							<path d="M525,206.2c-0.3,0-0.6-0.1-0.8-0.2c-0.2-0.1-0.3-0.4-0.4-0.6l0.6-0.3c0,0.2,0.1,0.3,0.2,0.4s0.3,0.1,0.5,0.1
								c0.2,0,0.4,0,0.5-0.1c0.1-0.1,0.2-0.2,0.3-0.3c0-0.1,0-0.2,0-0.2s-0.1-0.1-0.2-0.2c-0.1,0-0.2-0.1-0.3-0.1s-0.2-0.1-0.4-0.1
								c-0.1-0.1-0.2-0.1-0.3-0.2c-0.1-0.1-0.2-0.2-0.2-0.3c0-0.1,0-0.3,0-0.4c0.1-0.3,0.2-0.5,0.5-0.7c0.3-0.2,0.5-0.3,0.9-0.3
								c0.6,0,1,0.2,1.2,0.7l-0.5,0.3c-0.1-0.3-0.3-0.4-0.7-0.4c-0.2,0-0.3,0-0.5,0.1s-0.2,0.2-0.3,0.3c0,0.1,0,0.2,0.1,0.3
								s0.3,0.1,0.4,0.2s0.3,0.1,0.5,0.2c0.2,0.1,0.3,0.2,0.4,0.3c0.1,0.2,0.1,0.4,0,0.6c-0.1,0.3-0.2,0.5-0.5,0.7
								C525.7,206.1,525.3,206.2,525,206.2z"/>
							<path d="M530.3,206.2c-0.5,0-0.9-0.2-1.2-0.6c-0.3-0.4-0.3-0.8-0.2-1.3c0.1-0.5,0.4-0.9,0.8-1.2c0.4-0.3,0.9-0.5,1.4-0.5
								c0.3,0,0.6,0.1,0.9,0.2s0.4,0.4,0.5,0.6l-0.5,0.3c-0.1-0.4-0.4-0.6-0.9-0.6c-0.3,0-0.7,0.1-1,0.3c-0.3,0.2-0.5,0.5-0.5,0.9
								c-0.1,0.4,0,0.6,0.1,0.9s0.4,0.4,0.8,0.4c0.2,0,0.5-0.1,0.7-0.2c0.2-0.1,0.4-0.2,0.5-0.4l0.5,0.3c-0.2,0.3-0.4,0.5-0.8,0.6
								C531,206.1,530.7,206.2,530.3,206.2z"/>
							<path d="M536.1,202.7h0.6l-0.8,3.4h-0.6l0.1-0.5c-0.4,0.4-0.9,0.6-1.4,0.6c-0.5,0-0.9-0.2-1.1-0.6s-0.3-0.8-0.2-1.3
								c0.1-0.5,0.4-0.9,0.8-1.2c0.4-0.3,0.8-0.5,1.3-0.5c0.3,0,0.5,0.1,0.8,0.2c0.2,0.1,0.4,0.3,0.5,0.5L536.1,202.7z M533.4,205.2
								c0.2,0.2,0.5,0.4,0.8,0.4s0.7-0.1,1-0.3c0.3-0.2,0.5-0.5,0.5-0.9c0.1-0.4,0-0.7-0.2-0.9s-0.5-0.3-0.8-0.3
								c-0.3,0-0.6,0.1-0.9,0.3c-0.3,0.2-0.5,0.5-0.6,0.9C533.2,204.7,533.2,205,533.4,205.2z"/>
							<path d="M536.8,206.1l0.5-2.1l0.7-2.9l0.6,0l-1.2,5H536.8z"/>
							<path d="M540,206.2c-0.5,0-0.9-0.2-1.2-0.6c-0.3-0.4-0.3-0.8-0.2-1.3c0.1-0.5,0.4-0.9,0.8-1.2c0.4-0.3,0.9-0.5,1.4-0.5
								c0.3,0,0.6,0.1,0.9,0.2s0.4,0.4,0.5,0.6l-0.5,0.3c-0.1-0.4-0.4-0.6-0.9-0.6c-0.3,0-0.7,0.1-1,0.3c-0.3,0.2-0.5,0.5-0.5,0.9
								c-0.1,0.4,0,0.6,0.1,0.9s0.4,0.4,0.8,0.4c0.2,0,0.5-0.1,0.7-0.2c0.2-0.1,0.4-0.3,0.5-0.4l0.5,0.3c-0.2,0.3-0.4,0.5-0.8,0.6
								C540.7,206.1,540.3,206.2,540,206.2z"/>
							<path d="M545.4,202.7h0.6l-0.8,3.4h-0.6l0.1-0.4c-0.3,0.4-0.7,0.5-1.2,0.5c-0.4,0-0.7-0.1-0.9-0.4s-0.2-0.6-0.1-1l0.5-2.1
								h0.6l-0.5,2.1c-0.1,0.3,0,0.5,0.1,0.6s0.3,0.2,0.6,0.2c0.3,0,0.6-0.1,0.8-0.3c0.2-0.2,0.4-0.5,0.5-0.9v0L545.4,202.7z"/>
							<path d="M546,206.1l0.5-2.1l0.7-2.9l0.6,0l-1.2,5H546z"/>
							<path d="M551.3,202.7h0.6l-0.8,3.4h-0.6l0.1-0.5c-0.4,0.4-0.9,0.6-1.4,0.6c-0.5,0-0.9-0.2-1.1-0.6s-0.3-0.8-0.2-1.3
								c0.1-0.5,0.4-0.9,0.8-1.2c0.4-0.3,0.8-0.5,1.3-0.5c0.3,0,0.5,0.1,0.8,0.2c0.2,0.1,0.4,0.3,0.5,0.5L551.3,202.7z M548.5,205.2
								c0.2,0.2,0.5,0.4,0.8,0.4s0.7-0.1,1-0.3s0.5-0.5,0.5-0.9c0.1-0.4,0-0.7-0.2-0.9s-0.5-0.3-0.8-0.3c-0.3,0-0.6,0.1-0.9,0.3
								s-0.5,0.5-0.6,0.9C548.3,204.7,548.4,205,548.5,205.2z"/>
							<path d="M553.6,203.3l-0.4,1.8c0,0.2,0,0.3,0,0.4s0.2,0.1,0.3,0.1c0.1,0,0.3,0,0.5,0l-0.1,0.5c-0.5,0.1-0.9,0-1.1-0.1
								c-0.2-0.2-0.3-0.4-0.2-0.9l0.4-1.8h-0.7l0.2-0.6h0.7l0.2-0.8l0.6-0.2l-0.2,0.9h0.9l-0.1,0.6L553.6,203.3z"/>
							<path d="M556,206.2c-0.5,0-0.9-0.2-1.2-0.5c-0.3-0.4-0.4-0.8-0.2-1.3c0.1-0.5,0.4-0.9,0.8-1.3c0.4-0.3,0.9-0.5,1.4-0.5
								c0.5,0,0.9,0.2,1.2,0.5s0.3,0.8,0.2,1.3c-0.1,0.5-0.4,1-0.8,1.3C557,206,556.5,206.2,556,206.2z M556.1,205.6
								c0.3,0,0.7-0.1,0.9-0.3s0.5-0.5,0.6-0.9c0.1-0.4,0-0.7-0.2-0.9c-0.2-0.2-0.5-0.3-0.8-0.3s-0.6,0.1-0.9,0.3
								c-0.3,0.2-0.5,0.5-0.6,0.9c-0.1,0.4,0,0.7,0.2,0.9C555.5,205.5,555.8,205.6,556.1,205.6z"/>
							<path d="M559.8,203.2c0.3-0.4,0.7-0.6,1.2-0.6l-0.2,0.6c-0.3,0-0.6,0.1-0.8,0.2c-0.2,0.2-0.4,0.4-0.5,0.8v0l-0.4,1.8h-0.6
								l0.8-3.4h0.6L559.8,203.2z"/>
						</g>
						<g>
							<path d="M451,105.6l0-0.6h2.7l0,0.6H451z"/>
							<path d="M456.7,104.5c0.4,0.1,0.7,0.2,0.9,0.5c0.2,0.3,0.3,0.6,0.3,1c0,0.5-0.2,0.9-0.6,1.2s-0.8,0.4-1.3,0.4
								c-0.4,0-0.7-0.1-1-0.3c-0.3-0.2-0.5-0.4-0.6-0.8l0.6-0.3c0.1,0.5,0.5,0.7,1.1,0.7c0.3,0,0.6-0.1,0.8-0.2s0.3-0.4,0.4-0.7
								c0-0.3-0.1-0.5-0.3-0.7s-0.5-0.2-0.8-0.2h-0.2l-0.2-0.4l1.3-1.6h-2.3l0-0.6h3.1l0,0.6L456.7,104.5z"/>
						</g>
						<g>
							<path d="M454.4,121.7l0,0.6h-0.6l-0.1,1H453l0.1-1h-2.7l0-0.6l2.1-3.5h0.7l-2.1,3.5h1.9l0.1-1.4h0.7l-0.1,1.4H454.4z"/>
						</g>
						<g>
							<path d="M528.8,105.7l0-0.6h2.7l0,0.6H528.8z"/>
							<path d="M534.2,104.5c0.5,0,0.9,0.1,1.2,0.4c0.3,0.3,0.5,0.7,0.4,1.2c0,0.5-0.2,0.9-0.6,1.2c-0.4,0.3-0.8,0.4-1.3,0.4
								c-0.4,0-0.8-0.1-1-0.3s-0.5-0.5-0.6-0.8l0.6-0.3c0,0.2,0.2,0.4,0.4,0.6s0.4,0.2,0.7,0.2c0.3,0,0.6-0.1,0.8-0.2
								s0.3-0.4,0.3-0.7c0-0.3-0.1-0.5-0.3-0.7s-0.5-0.2-0.8-0.2h-1.5l0.3-2.7h2.9l0,0.6h-2.2l-0.2,1.4L534.2,104.5L534.2,104.5z"/>
						</g>
						<g>
							<path d="M531.1,120.7c0.2,0.1,0.4,0.3,0.6,0.5c0.1,0.2,0.2,0.5,0.2,0.7c0,0.5-0.2,0.8-0.6,1.1c-0.3,0.3-0.8,0.4-1.3,0.4
								s-0.9-0.1-1.2-0.4c-0.3-0.3-0.5-0.6-0.4-1.1c0-0.3,0.1-0.5,0.3-0.7c0.2-0.2,0.4-0.4,0.6-0.5c-0.4-0.3-0.6-0.6-0.6-1.1
								c0-0.5,0.2-0.8,0.5-1.1s0.7-0.4,1.2-0.4c0.5,0,0.8,0.1,1.1,0.4s0.4,0.6,0.4,1.1C531.8,120.1,531.6,120.4,531.1,120.7z
								 M530,122.8c0.3,0,0.6-0.1,0.8-0.2s0.3-0.4,0.3-0.7c0-0.3-0.1-0.5-0.3-0.7c-0.2-0.2-0.5-0.2-0.8-0.2s-0.6,0.1-0.8,0.2
								s-0.3,0.4-0.3,0.7s0.1,0.5,0.3,0.7S529.7,122.8,530,122.8z M530.3,118.8c-0.3,0-0.5,0.1-0.7,0.2c-0.2,0.1-0.3,0.3-0.3,0.6
								c0,0.3,0.1,0.5,0.2,0.6s0.4,0.2,0.6,0.2s0.5-0.1,0.7-0.2c0.2-0.1,0.3-0.3,0.3-0.6c0-0.3-0.1-0.5-0.2-0.6
								C530.8,118.8,530.5,118.8,530.3,118.8z"/>
						</g>
						<g>
							<g>
								<g>
									<line class="st43" x1="502.6" y1="110.3" x2="502.3" y2="114.9"/>
									<line class="st43" x1="504.8" y1="112.6" x2="500.1" y2="112.6"/>
								</g>
								<polyline class="st44" points="516.9,111.9 514.5,114.2 512.3,111.9 								"/>
							</g>
							<line class="st45" x1="447.1" y1="113" x2="492" y2="113"/>
							<line class="st45" x1="524.5" y1="113.1" x2="569.4" y2="113.1"/>
							<g>
								<line class="st45" x1="574.5" y1="112.2" x2="577.9" y2="112.3"/>
								<line class="st45" x1="574.4" y1="114" x2="577.8" y2="114.1"/>
							</g>
						</g>
						<g>
							<path d="M584.2,113.8c0-0.2,0.1-0.4,0.2-0.6c0.1-0.2,0.3-0.3,0.5-0.5c0.2-0.1,0.3-0.2,0.5-0.4s0.2-0.3,0.2-0.5
								c0-0.2,0-0.3-0.2-0.4s-0.3-0.1-0.5-0.1c-0.4,0-0.7,0.2-0.9,0.6l-0.8-0.5c0.2-0.4,0.4-0.6,0.8-0.8s0.7-0.3,1.1-0.3
								c0.4,0,0.8,0.1,1.1,0.4s0.5,0.6,0.4,1c0,0.2-0.1,0.4-0.2,0.6c-0.1,0.2-0.2,0.3-0.3,0.4s-0.2,0.2-0.4,0.3
								c-0.1,0.1-0.2,0.2-0.3,0.3c-0.1,0.1-0.1,0.2-0.2,0.3L584.2,113.8z M585,115.4c-0.1,0.1-0.3,0.2-0.5,0.2s-0.3-0.1-0.4-0.2
								s-0.2-0.3-0.2-0.4s0.1-0.3,0.2-0.4s0.3-0.2,0.5-0.2s0.3,0.1,0.4,0.2s0.2,0.3,0.2,0.4C585.2,115.1,585.2,115.2,585,115.4z"/>
						</g>
					</g>
					<g>
						<g class="st10">
							<g>
								<polygon class="st46" points="401.5,44.3 392.2,48.6 392.3,48.5 401.6,44.2 								"/>
							</g>
							<path class="st31" d="M379.8,41.6c-0.8-5.2-1.7-10.4-2.5-15.7l-9.4,4.3c0.8,5.3,1.7,10.5,2.5,15.7c3.7,0.8,6.9,2.9,9.6,6.4
								l9.4-4.3C386.7,44.5,383.5,42.4,379.8,41.6z"/>
							<g>
								<path class="st29" d="M377.3,25.9c3.9,0.5,7.7,1.9,11.5,4.3c4.1,2.6,7.7,6.2,10.8,10.5c-3.4,2.5-6.7,4.9-10.1,7.3
									c-2.8-3.5-6-5.6-9.6-6.4C379,36.4,378.1,31.2,377.3,25.9z"/>
							</g>
							<g class="st10">
								<g>
									<defs>
										<path id="SVGID_00000078012719955190529190000016860657987437337228_" d="M364,46.7l9.4-4.3c0.9-0.4,2-0.8,3.1-1l-9.4,4.3
											C366,46,365,46.3,364,46.7z"/>
									</defs>
									<clipPath id="SVGID_00000031198878491594704150000011435380142632531377_">
										<use xlink:href="#SVGID_00000078012719955190529190000016860657987437337228_"  style="overflow:visible;"/>
									</clipPath>
									<g style="clip-path:url(#SVGID_00000031198878491594704150000011435380142632531377_);enable-background:new    ;">
										<path class="st48" d="M376.5,41.4l-9.4,4.3c-1.1,0.2-2.1,0.5-3.1,1l9.4-4.3C374.3,41.9,375.4,41.6,376.5,41.4"/>
									</g>
								</g>
							</g>
							<g>
								<path class="st28" d="M387.6,71.8c0.3-0.2,0.7-0.3,1-0.5c0.1,0,0.1-0.1,0.2-0.1c0.3-0.2,0.6-0.4,0.9-0.7
									c0,0,0.1-0.1,0.1-0.1c0.3-0.2,0.5-0.5,0.8-0.7c0,0,0.1-0.1,0.1-0.1c0.3-0.3,0.5-0.6,0.7-0.9c0,0,0-0.1,0.1-0.1
									c0-0.1,0.1-0.1,0.1-0.2c0.1-0.2,0.2-0.3,0.3-0.5c0.1-0.1,0.1-0.2,0.2-0.3c0.1-0.2,0.2-0.4,0.3-0.6c0-0.1,0.1-0.2,0.1-0.2
									c0.1-0.3,0.3-0.6,0.4-0.9c0-0.1,0-0.1,0-0.2c0.1-0.3,0.2-0.5,0.3-0.8c0-0.1,0.1-0.2,0.1-0.3c0.1-0.2,0.1-0.4,0.2-0.7
									c0-0.1,0-0.3,0.1-0.4c0-0.2,0.1-0.4,0.1-0.7c0-0.1,0-0.3,0-0.4c0-0.2,0-0.5,0.1-0.7c0-0.1,0-0.2,0-0.4c0-0.4,0-0.8,0-1.1
									c0-0.3,0-0.7,0-1c0-0.1,0-0.2,0-0.3c0-0.2,0-0.5-0.1-0.7c0-0.1,0-0.3-0.1-0.4c0-0.2-0.1-0.4-0.1-0.6c0-0.1-0.1-0.3-0.1-0.4
									c0-0.2-0.1-0.4-0.1-0.6c0-0.2-0.1-0.3-0.1-0.4c0-0.2-0.1-0.4-0.2-0.6c0-0.2-0.1-0.3-0.1-0.4c-0.1-0.2-0.1-0.4-0.2-0.6
									c0-0.2-0.1-0.3-0.2-0.4c-0.1-0.2-0.1-0.4-0.2-0.6c-0.1-0.2-0.1-0.3-0.2-0.4c0-0.1-0.1-0.2-0.1-0.2c-0.1-0.2-0.2-0.4-0.3-0.6
									c0,0,0,0,0-0.1c0,0,0-0.1,0-0.1c0,0,0,0,0,0c0,0,0-0.1,0-0.2c0,0,0.1-0.1,0.1-0.1c3.2-2.3,6.5-4.7,9.7-7l-9.4,4.3
									c-3.2,2.3-6.5,4.7-9.7,7c0,0-0.1,0.1-0.1,0.1c0,0,0,0,0,0c0,0,0,0.1,0,0.2c0,0,0,0,0,0c0,0,0,0.1,0,0.1c0,0,0,0,0,0
									c0,0,0,0,0,0.1c0.1,0.3,0.2,0.5,0.4,0.8c0.1,0.2,0.1,0.3,0.2,0.4c0.1,0.2,0.1,0.4,0.2,0.6c0.1,0.2,0.1,0.3,0.2,0.4
									c0.1,0.2,0.1,0.4,0.2,0.6c0,0.2,0.1,0.3,0.1,0.4c0.1,0.2,0.1,0.4,0.2,0.6c0,0.2,0.1,0.3,0.1,0.4c0,0.2,0.1,0.4,0.1,0.6
									c0,0.1,0.1,0.3,0.1,0.4c0,0.2,0.1,0.4,0.1,0.6c0,0.1,0,0.3,0.1,0.4c0,0.2,0,0.5,0.1,0.7c0,0.1,0,0.2,0,0.3c0,0.3,0,0.7,0,1
									c0,0.4,0,0.8,0,1.1c0,0.1,0,0.2,0,0.4c0,0.2,0,0.5-0.1,0.7c0,0.1,0,0.3,0,0.4c0,0.2-0.1,0.4-0.1,0.7c0,0.1,0,0.3-0.1,0.4
									c0,0.2-0.1,0.4-0.2,0.7c0,0.1-0.1,0.2-0.1,0.3c-0.1,0.3-0.2,0.5-0.3,0.8c0,0.1,0,0.1,0,0.2c-0.1,0.3-0.2,0.6-0.4,0.9
									c0,0.1-0.1,0.2-0.1,0.2c-0.1,0.2-0.2,0.4-0.3,0.6c-0.1,0.1-0.1,0.2-0.2,0.3c-0.1,0.2-0.2,0.3-0.3,0.5
									c-0.1,0.1-0.1,0.2-0.2,0.2c-0.2,0.3-0.5,0.6-0.7,0.9c0,0-0.1,0.1-0.1,0.1c-0.2,0.3-0.5,0.5-0.8,0.7c0,0-0.1,0.1-0.1,0.1
									c-0.3,0.2-0.6,0.4-0.9,0.7c-0.1,0-0.1,0.1-0.2,0.1c-0.3,0.2-0.6,0.4-1,0.5l0,0l0,0L387.6,71.8z"/>
								<path class="st28" d="M385.6,88.3c-4.1-0.2-8.3-1.5-12.1-3.8c1.5-4.4,2.9-8.8,4.4-13.2l-9.4,4.3c-1.5,4.4-2.9,8.8-4.4,13.2
									c3.9,2.3,8,3.7,12.1,3.8c3.2,0.2,6.4-0.4,9.2-1.7l9.4-4.3C391.9,87.9,388.8,88.4,385.6,88.3z"/>
							</g>
							<g>
								<path class="st25" d="M401.6,44.2c5.1,8.5,8.2,22.8,2.2,33.7c-4.1,7.5-11,10.8-18.2,10.4c-4.1-0.2-8.3-1.5-12.1-3.8
									c1.5-4.4,2.9-8.8,4.4-13.2c0.7,0.3,1.4,0.6,2,0.8c1.1,0.4,2.2,0.6,3.2,0.6c6.2,0.3,10.9-4.9,10.8-12.4
									c-0.1-2.8-0.7-5.6-2-8.4c-0.1-0.2-0.1-0.4,0-0.5C395.1,49,398.3,46.6,401.6,44.2L401.6,44.2z"/>
							</g>
							<path class="st22" d="M358,84.2c0.1,0.1,0.2,0.2,0.4,0.3c0.2,0.2,0.4,0.3,0.5,0.5c0.1,0.1,0.2,0.2,0.3,0.3
								c0.2,0.2,0.4,0.3,0.6,0.5c0.1,0.1,0.2,0.2,0.3,0.2c0.3,0.2,0.6,0.4,0.9,0.7l9.4-4.3c-0.3-0.2-0.6-0.4-0.9-0.7
								c-0.1-0.1-0.2-0.2-0.3-0.2c-0.2-0.2-0.4-0.3-0.6-0.5c-0.1-0.1-0.2-0.2-0.3-0.3c-0.2-0.2-0.4-0.3-0.5-0.5
								c-0.1-0.1-0.2-0.2-0.4-0.3c-0.2-0.2-0.3-0.3-0.5-0.5c-0.1-0.1-0.2-0.2-0.4-0.3c-0.2-0.2-0.3-0.3-0.5-0.5
								c-0.1-0.1-0.2-0.2-0.3-0.3c-0.2-0.2-0.3-0.4-0.5-0.5c-0.1-0.1-0.2-0.2-0.3-0.3c-0.2-0.2-0.4-0.4-0.5-0.6
								c-0.1-0.1-0.2-0.2-0.3-0.3c-0.3-0.3-0.5-0.6-0.8-1c0,0,0,0,0,0c-0.3-0.3-0.5-0.7-0.8-1c-0.1-0.1-0.2-0.2-0.2-0.3
								c-0.2-0.2-0.3-0.5-0.5-0.7c-0.1-0.1-0.2-0.3-0.3-0.4c-0.1-0.2-0.3-0.4-0.4-0.7c-0.1-0.2-0.2-0.3-0.3-0.4
								c-0.1-0.2-0.3-0.4-0.4-0.7c-0.1-0.2-0.2-0.3-0.3-0.5c-0.1-0.2-0.3-0.4-0.4-0.7c-0.1-0.2-0.2-0.3-0.3-0.5
								c-0.1-0.2-0.3-0.5-0.4-0.7c-0.1-0.2-0.2-0.3-0.2-0.4c-0.1-0.3-0.3-0.5-0.4-0.8c-0.1-0.1-0.1-0.2-0.2-0.4
								c-0.2-0.4-0.4-0.8-0.6-1.2c0,0,0,0,0,0c-0.3-0.6-0.5-1.2-0.8-1.8c0-0.1-0.1-0.2-0.1-0.3c-0.2-0.6-0.4-1.2-0.6-1.8
								c0-0.1-0.1-0.2-0.1-0.3c-0.2-0.6-0.4-1.2-0.5-1.9c0-0.1,0-0.2-0.1-0.3c-0.2-0.7-0.3-1.3-0.5-2v0c-0.1-0.7-0.2-1.3-0.4-2
								c0-0.1,0-0.2,0-0.3c-0.1-0.7-0.2-1.3-0.2-2c0-0.1,0-0.2,0-0.4c0-0.7-0.1-1.3-0.1-2c0-0.1,0-0.2,0-0.3c0-0.7,0-1.4,0-2.1
								c0-0.7,0.1-1.4,0.1-2.1c0-0.2,0.1-0.5,0.1-0.7c0-0.5,0.1-0.9,0.2-1.3c0-0.3,0.1-0.5,0.1-0.8c0.1-0.4,0.1-0.8,0.2-1.2
								c0.1-0.3,0.1-0.5,0.2-0.8c0.1-0.4,0.2-0.7,0.3-1.1c0.1-0.2,0.2-0.5,0.2-0.7c0.1-0.3,0.2-0.7,0.4-1c0.1-0.2,0.2-0.5,0.3-0.7
								c0.1-0.3,0.3-0.6,0.4-0.9c0.1-0.2,0.2-0.4,0.3-0.6c0.2-0.3,0.3-0.6,0.5-0.9c0.1-0.2,0.2-0.4,0.3-0.6c0.2-0.3,0.4-0.6,0.6-0.9
								c0.1-0.2,0.2-0.3,0.3-0.5c0.1-0.1,0.2-0.2,0.3-0.4c0.2-0.3,0.4-0.5,0.6-0.8c0.1-0.1,0.2-0.3,0.4-0.4c0.2-0.2,0.4-0.4,0.6-0.6
								c0.1-0.1,0.3-0.3,0.4-0.4c0.2-0.2,0.4-0.4,0.6-0.6c0.1-0.1,0.3-0.3,0.4-0.4c0.2-0.2,0.4-0.4,0.6-0.5c0.1-0.1,0.3-0.2,0.4-0.3
								c0.2-0.2,0.4-0.3,0.7-0.5c0.1-0.1,0.3-0.2,0.4-0.3c0.2-0.2,0.5-0.3,0.8-0.5c0.1-0.1,0.2-0.1,0.4-0.2c0.4-0.2,0.8-0.4,1.2-0.6
								l0,0l0,0l0,0l-9.4,4.3c-0.4,0.2-0.8,0.4-1.2,0.6c-0.1,0.1-0.2,0.2-0.4,0.2c-0.3,0.2-0.5,0.3-0.8,0.5
								c-0.1,0.1-0.3,0.2-0.4,0.3c-0.2,0.2-0.5,0.3-0.7,0.5c-0.1,0.1-0.3,0.2-0.4,0.3c-0.2,0.2-0.4,0.3-0.6,0.5
								c-0.1,0.1-0.3,0.2-0.4,0.4c-0.2,0.2-0.4,0.4-0.6,0.6c-0.1,0.1-0.3,0.3-0.4,0.4c-0.2,0.2-0.4,0.4-0.6,0.6
								c-0.1,0.1-0.2,0.3-0.4,0.4c-0.2,0.2-0.4,0.5-0.6,0.8c-0.1,0.1-0.2,0.2-0.3,0.4c0,0,0,0,0,0.1c-0.1,0.1-0.2,0.2-0.2,0.4
								c-0.2,0.3-0.4,0.6-0.6,0.9c-0.1,0.2-0.2,0.4-0.3,0.6c-0.2,0.3-0.3,0.6-0.5,0.9c-0.1,0.2-0.2,0.4-0.3,0.6
								c-0.1,0.3-0.3,0.6-0.4,0.9c-0.1,0.2-0.2,0.5-0.3,0.7c-0.1,0.3-0.2,0.7-0.4,1c-0.1,0.2-0.2,0.5-0.2,0.7
								c-0.1,0.3-0.2,0.7-0.3,1.1c-0.1,0.2-0.1,0.5-0.2,0.8c-0.1,0.4-0.2,0.8-0.2,1.2c0,0.2-0.1,0.5-0.1,0.8
								c-0.1,0.4-0.1,0.9-0.2,1.3c0,0.2-0.1,0.4-0.1,0.7c-0.1,0.7-0.1,1.4-0.1,2.1c0,0.7,0,1.4,0,2.1c0,0.1,0,0.2,0,0.3
								c0,0.7,0.1,1.3,0.1,2c0,0.1,0,0.2,0,0.4c0.1,0.7,0.1,1.3,0.2,2c0,0.1,0,0.2,0,0.3c0.1,0.7,0.2,1.3,0.4,2v0
								c0.1,0.7,0.3,1.3,0.5,2c0,0.1,0,0.2,0.1,0.3c0.2,0.6,0.4,1.2,0.5,1.9c0,0.1,0.1,0.2,0.1,0.3c0.2,0.6,0.4,1.2,0.6,1.8
								c0,0.1,0.1,0.2,0.1,0.3c0.2,0.6,0.5,1.2,0.8,1.8v0l0,0c0.2,0.4,0.4,0.8,0.6,1.2c0.1,0.1,0.1,0.2,0.2,0.4
								c0.1,0.3,0.3,0.5,0.4,0.8c0.1,0.2,0.2,0.3,0.2,0.4c0.1,0.2,0.2,0.5,0.4,0.7c0.1,0.2,0.2,0.3,0.3,0.5c0.1,0.2,0.3,0.4,0.4,0.7
								c0.1,0.2,0.2,0.3,0.3,0.5c0.1,0.2,0.3,0.4,0.4,0.7c0.1,0.2,0.2,0.3,0.3,0.4c0.1,0.2,0.3,0.4,0.4,0.7c0.1,0.1,0.2,0.3,0.3,0.4
								c0.2,0.2,0.3,0.5,0.5,0.7c0.1,0.1,0.2,0.2,0.2,0.3c0.2,0.3,0.5,0.7,0.8,1c0,0,0,0,0,0c0.3,0.3,0.5,0.7,0.8,1
								c0.1,0.1,0.2,0.2,0.3,0.3c0.2,0.2,0.4,0.4,0.5,0.6c0.1,0.1,0.2,0.2,0.3,0.3c0.2,0.2,0.3,0.4,0.5,0.6c0.1,0.1,0.2,0.2,0.3,0.3
								c0.2,0.2,0.3,0.3,0.5,0.5c0.1,0.1,0.2,0.2,0.4,0.3C357.6,83.9,357.8,84.1,358,84.2z"/>
							<g>
								<path class="st21" d="M374,25.8c0.8,5.2,1.7,10.5,2.5,15.6c-5.3,1-8.6,4.4-9.1,11c-0.4,6.5,2.3,12.1,7.3,16.7
									c-1.5,4.4-2.9,8.8-4.4,13.2c-8.9-6.4-16.8-19.7-16.2-33.7C354.7,33.8,364.3,25.8,374,25.8z"/>
							</g>
						</g>
					</g>
				</g>
			</g>
			<g>
				<g>
					<path class="st49" d="M391.5,297.3c1.3-0.2,2.4,0,3.3,0.7c0.2,0.2,0.4,0.3,0.6,0.5l-8,4l-3.9,3.6c1.2,2,2.8,3.4,4.7,4.3
						c1.9,0.9,4,1.1,6.1,0.8c1.2-0.2,2.3-0.5,3.2-1l9.5-4.8c-1,0.5-2,0.8-3.2,1c-2.2,0.3-4.2,0-6.1-0.8c-0.7-0.3-1.3-0.7-1.9-1.2
						l8.5-4.3c0.5-0.3,0.9-0.6,1.2-1c0.6-0.8,0.8-1.9,0.5-3.1c-0.3-1.2-0.9-2.2-1.8-2.8c-0.9-0.6-2-0.9-3.3-0.7l-8.2,1.1l-1.2-7.9
						l5.7-0.8l9.5-4.8l-10.4,1.4l-5,2.5l-1.1-7.4l-9.5,4.8l2.6,16.8L391.5,297.3z M396.6,300.8c0.3,1.3,0.1,2.3-0.5,3.1
						c-0.1,0.2-0.3,0.3-0.4,0.4c-1-0.8-1.9-1.8-2.6-3l2.7-2.5C396.1,299.4,396.4,300,396.6,300.8z"/>
					<polygon class="st49" points="429.4,295.2 438.9,290.4 424.4,292.4 423.2,287.1 413.8,291.9 414.9,297.2 					"/>
					<polygon class="st49" points="455.1,291.3 464.6,286.5 463,279.4 453.6,284.2 					"/>
					<polygon class="st49" points="456.3,296.8 457.4,301.9 462.8,301.2 472.3,296.4 466.9,297.1 466.4,294.8 474.1,290.9 
						471.1,291.3 466.2,293.8 465.8,292 453,293.8 451.8,288.3 456.6,267.7 447.1,272.4 442.3,293.1 443.5,298.6 					"/>
					<path class="st49" d="M453.2,360.7l8-4c1-0.5,1.7-1.4,2.1-2.6c0.6-1.8,0.5-4.3-0.2-7.5c-0.7-3.2-1.7-5.6-3-7.1s-2.9-2.2-4.7-2
						c-0.5,0.1-1,0.2-1.5,0.4l-7.8,4c0.1-1.8,0.5-3.4,1-4.8c0.6-1.5,1.5-2.8,2.7-3.7c0.4-0.3,0.8-0.6,1.2-0.8l0,0l-9.5,4.8
						c-1.8,0.9-3.1,2.4-4,4.5c-0.2,0.5-0.4,1-0.5,1.5c-0.3-0.9-0.8-1.6-1.4-2.1c-0.8-0.6-1.7-0.9-2.8-0.7c-0.5,0.1-1,0.2-1.4,0.4
						l-5,2.5l-2.5-1.1c0.4-2.2,1.3-3.9,2.6-5.2c0.3-0.3,0.6-0.6,1-0.8s0.7-0.5,1.1-0.7l0,0l-9.5,4.8c-0.8,0.4-1.5,0.9-2.1,1.5
						c-1.4,1.3-2.2,3-2.6,5.2l5.1,2.3l6.6-3.3c0.8,0.6,1.3,1.5,1.5,2.6c0.4,1.6-0.2,3.7-1.8,6.4l-6.9,11.8l1,4.4l18.1-2.5l6-3
						c2.2,1.6,4.6,2.2,7.3,1.8c1.1-0.2,2.2-0.5,3.1-0.9l9.5-4.8c-0.9,0.5-1.9,0.8-3.1,0.9C458.1,363.3,455.5,362.6,453.2,360.7z
						 M429.6,366.6l-1-4.4l6.9-11.8c0.4-0.8,0.8-1.5,1.1-2.1c0,1.6,0.2,3.4,0.7,5.3c1,4.7,2.8,8.4,5.4,10.9c0.1,0.1,0.2,0.2,0.3,0.3
						L429.6,366.6z M452.1,359.7c-2.5-2.6-4.3-6.2-5.4-10.9c-0.5-2.4-0.7-4.6-0.7-6.6c1.7-0.2,3.2,0.5,4.5,2c1.3,1.6,2.3,3.9,3,7.1
						c0.7,3.2,0.8,5.7,0.2,7.5c-0.2,0.7-0.5,1.2-0.9,1.7C452.6,360.3,452.4,360,452.1,359.7z"/>
					<path class="st49" d="M451.1,332.6L451.1,332.6L451.1,332.6z"/>
					<path class="st49" d="M428.8,335.7L428.8,335.7L428.8,335.7z"/>
					<polygon class="st49" points="388.9,328.6 387.7,323.1 378.2,327.9 379.4,333.4 479.9,319.5 489.3,314.7 					"/>
				</g>
				<g>
					<path class="st34" d="M405.5,274.7l1.2,5.5l-10.4,1.4l0.8,5.5l2.8-0.4c2.6-0.4,5,0.2,7.1,1.7c2.2,1.5,3.6,3.8,4.2,6.9
						c0.7,3.1,0.3,5.6-1.2,7.6c-1.5,2-3.6,3.2-6.3,3.6c-2.2,0.3-4.2,0-6.1-0.8c-1.9-0.9-3.5-2.3-4.7-4.3l3.9-3.6
						c1.2,2.3,3.1,3.3,5.7,2.9c1.4-0.2,2.3-0.7,3-1.5c0.6-0.8,0.8-1.9,0.5-3.1c-0.3-1.2-0.9-2.2-1.8-2.8c-0.9-0.6-2-0.9-3.3-0.7
						l-8.2,1.1l-2.6-16.8L405.5,274.7z"/>
					<polygon class="st34" points="437.7,285.1 438.9,290.4 424.4,292.4 423.2,287.1 					"/>
					<polygon class="st34" points="462.3,266.9 457.6,287.5 464.6,286.5 463,279.4 468.4,278.7 470,285.8 472.9,285.4 474.1,290.9 
						471.1,291.3 472.3,296.4 466.9,297.1 465.8,292 453,293.8 451.8,288.3 456.6,267.7 					"/>
					<path class="st34" d="M463,334.9c2.5,2.6,4.3,6.2,5.3,10.9c1,4.7,0.9,8.6-0.4,11.7c-1.3,3.1-3.6,4.9-7,5.4
						c-3.4,0.5-6.3-0.6-8.9-3.2c-2.5-2.6-4.3-6.2-5.4-10.9c-1-4.7-0.9-8.6,0.4-11.7c1.3-3.1,3.6-4.9,7-5.4
						C457.6,331.2,460.5,332.3,463,334.9z M463.3,354c0.6-1.8,0.5-4.3-0.2-7.5c-0.7-3.2-1.7-5.6-3-7.1s-2.9-2.2-4.7-2
						c-1.8,0.2-3,1.3-3.5,3.1c-0.6,1.8-0.5,4.3,0.2,7.5c0.7,3.2,1.7,5.6,3,7.1c1.3,1.5,2.8,2.2,4.6,1.9
						C461.5,356.9,462.7,355.9,463.3,354"/>
					<path class="st34" d="M431.6,334.8c2.5-0.3,4.7,0.2,6.9,1.7s3.5,3.6,4.1,6.5c0.7,3.1-0.1,6.5-2.4,10.2l-4,6.6l10.2-1.4l1.2,5.7
						l-18.1,2.5l-1-4.4l6.9-11.8c1.5-2.7,2.1-4.8,1.8-6.4c-0.3-1.2-0.8-2.1-1.6-2.7c-0.8-0.6-1.7-0.9-2.8-0.7
						c-2,0.3-3.3,1.7-3.8,4.1l-5.1-2.3c0.4-2.2,1.3-3.9,2.6-5.2C428.1,335.9,429.7,335.1,431.6,334.8z"/>
					<polygon class="st34" points="488.1,309.2 489.3,314.7 388.9,328.6 387.7,323.1 					"/>
				</g>
			</g>
		</g>
	</g>
</g>
</svg>
