<?xml version="1.0" encoding="utf-8"?>
<!-- Generator: Adobe Illustrator 25.4.1, SVG Export Plug-In . SVG Version: 6.00 Build 0)  -->
<svg version="1.1" id="Layer_1" xmlns="http://www.w3.org/2000/svg" xmlns:xlink="http://www.w3.org/1999/xlink" x="0px" y="0px"
	 viewBox="0 0 760 420" style="enable-background:new 0 0 760 420;" xml:space="preserve">
<style type="text/css">
	.st0{opacity:0.18;clip-path:url(#SVGID_00000014597053797056570710000009158106085493495217_);fill:#FFFFFF;}
	.st1{clip-path:url(#SVGID_00000014597053797056570710000009158106085493495217_);}
	.st2{fill:#99B9E0;}
	.st3{fill:#788495;}
	.st4{fill:#2C837C;}
	.st5{fill:#509D8F;}
	.st6{fill:#497C4C;}
	.st7{fill:#FFFFFF;}
	.st8{opacity:0.72;}
	.st9{opacity:0.56;fill:#B3D3F0;}
	.st10{fill:#DBF0F7;}
	.st11{enable-background:new    ;}
	.st12{fill:#2B1865;}
	.st13{fill:#2B1863;}
	.st14{fill:#351D7C;}
	.st15{clip-path:url(#SVGID_00000086672849952261295350000000836492016135235993_);enable-background:new    ;}
	.st16{fill:#2C1867;}
	.st17{clip-path:url(#SVGID_00000012444183731439941700000008993477977355865527_);enable-background:new    ;}
	.st18{clip-path:url(#SVGID_00000164510294967871886370000000845127767540105616_);enable-background:new    ;}
	.st19{clip-path:url(#SVGID_00000078030507625033848590000006229020080439144849_);enable-background:new    ;}
	.st20{clip-path:url(#SVGID_00000125582851956666822250000008270164027102894992_);enable-background:new    ;}
	.st21{clip-path:url(#SVGID_00000048470450102214238880000002689371816014817455_);enable-background:new    ;}
	.st22{fill:#BB416B;}
	.st23{fill:#E56700;}
	.st24{fill:#4C2AB1;}
	.st25{fill:#512DBD;}
	.st26{fill:#E0497D;}
	.st27{fill:#FF7900;}
	.st28{opacity:0.13;fill:url(#SVGID_00000144328983284230002670000016403014226292848556_);}
	.st29{clip-path:url(#SVGID_00000031907464045399671250000015119150764561268920_);fill:#B3D3F0;}
	.st30{clip-path:url(#SVGID_00000031907464045399671250000015119150764561268920_);}
	.st31{fill:#90B6D3;}
	.st32{fill:#C7EEF7;}
	.st33{fill:#BEE6F0;}
	.st34{fill:#D7F6FF;}
	.st35{fill:#658A9D;}
	.st36{fill:#618090;}
	.st37{fill:#1C665F;}
	.st38{fill:#ED5D95;}
	.st39{fill:#89244B;}
	.st40{clip-path:url(#SVGID_00000031907464045399671250000015119150764561268920_);fill:#C6DBF3;}
	.st41{fill:#336699;}
	.st42{fill:#EEEEEE;}
	.st43{fill:none;stroke:#000000;stroke-width:0.25;stroke-linecap:round;stroke-linejoin:round;stroke-miterlimit:10;}
	.st44{fill:#4F8126;}
	.st45{fill:#9F9F9F;}
	.st46{opacity:0.44;fill:#FFFFFF;}
	.st47{clip-path:url(#SVGID_00000171691188761727882470000008913627954287733408_);fill:#B6D2F0;}
	.st48{clip-path:url(#SVGID_00000171691188761727882470000008913627954287733408_);}
	.st49{fill:#C1CDDB;}
	.st50{fill:#211423;}
	.st51{fill:none;stroke:#AEC2D3;stroke-width:1.1949;stroke-miterlimit:10;}
	.st52{fill:#AEC2D3;}
	.st53{fill:none;stroke:#AEC2D3;stroke-width:0.5975;stroke-miterlimit:10;}
	.st54{fill:none;stroke:#AEC2D3;stroke-width:0.4481;stroke-miterlimit:10;}
	.st55{fill:#344583;}
	.st56{fill:#161E3A;}
	.st57{fill:#2E3A6E;}
	.st58{fill:none;stroke:#000000;stroke-width:0.5904;stroke-linecap:round;stroke-linejoin:round;stroke-miterlimit:10;}
	.st59{opacity:0.42;fill:#FFFFFF;}
	.st60{opacity:0.35;fill:#BEE6F0;}
	.st61{fill:#FFA861;}
	.st62{fill:#FCBF7C;}
	.st63{fill:#A2351E;}
	.st64{fill:#D74221;}
	.st65{fill:#E86900;}
	.st66{fill:#EB973D;}
	.st67{fill:#A8E21B;}
	.st68{fill:#72C610;}
	.st69{fill:#63BD05;}
	.st70{fill:#48B500;}
	.st71{fill:#8ACE21;}
	.st72{fill:#79C500;}
	.st73{fill:#62BD06;}
	.st74{fill:#A3D32F;}
	.st75{fill:#ADE542;}
	.st76{fill:#AFEF39;}
	.st77{fill:#9AD906;}
	.st78{fill:#8CCE0A;}
	.st79{fill:#C9F958;}
	.st80{opacity:0.26;}
	.st81{opacity:0.35;}
	.st82{fill:#FC95BD;}
	.st83{fill:#4C822E;}
	.st84{fill:#75AF4B;}
	.st85{fill:#C6E386;}
	.st86{fill:#ABD46A;}
	.st87{fill:#C5E486;}
	.st88{fill:#DEF3A4;}
	.st89{opacity:0.48;fill:#B6D2F0;}
	.st90{fill:#B6D2F0;}
	.st91{clip-path:url(#SVGID_00000171691188761727882470000008913627954287733408_);fill:#C6DBF3;}
	.st92{clip-path:url(#SVGID_00000035520456888929054050000003481354368757082014_);fill:#B3D3F0;}
	.st93{clip-path:url(#SVGID_00000035520456888929054050000003481354368757082014_);}
	.st94{fill:#91B874;}
	.st95{fill:#75925E;}
	.st96{fill:#B2D797;}
	.st97{opacity:0.66;fill:#75925E;enable-background:new    ;}
	.st98{fill:#6696B5;}
	.st99{fill:#252E55;}
	.st100{fill:#B3D3F0;}
	.st101{fill:none;stroke:#658A9D;stroke-width:1.595;stroke-miterlimit:10;}
	.st102{fill:#12294E;}
	.st103{fill:#445A7B;}
	.st104{opacity:0.64;fill:#FFFFFF;}
	.st105{fill:#E9F7FF;}
	.st106{fill:#084B7C;}
	.st107{clip-path:url(#SVGID_00000011027956501199039590000002529115437554717365_);fill:#12294E;}
	.st108{clip-path:url(#SVGID_00000156555069409050627970000018038873088776962946_);fill:#12294E;}
	.st109{fill:#9CACCD;}
	.st110{fill:#FDD900;}
	.st111{fill:#FBCC0A;}
	.st112{fill:#FAAF3A;}
	.st113{fill:#C6DBF3;}
	.st114{clip-path:url(#SVGID_00000167366553871192185110000007671754512365285301_);fill:#B3D3F0;}
	.st115{clip-path:url(#SVGID_00000167366553871192185110000007671754512365285301_);}
	.st116{clip-path:url(#XMLID_00000066501689841850160350000002689250499852952724_);}
	.st117{opacity:0.51;fill:#FFFFFF;}
	.st118{fill:#803D00;}
	.st119{fill:#853F00;}
	.st120{fill:#833E00;}
	.st121{clip-path:url(#SVGID_00000053526543494101797940000010798360198967344298_);fill:#853F00;}
	.st122{clip-path:url(#SVGID_00000037659569424206587330000013354934984486833800_);fill:#853F00;}
	.st123{fill:#843F00;}
	.st124{clip-path:url(#SVGID_00000075122018737423533310000007081714031032634534_);fill:#853F00;}
	.st125{fill:#843E00;}
	.st126{clip-path:url(#SVGID_00000107564440350743904810000012774662290129646515_);fill:#853F00;}
	.st127{fill:#813D00;}
	.st128{clip-path:url(#XMLID_00000096737854942274200430000003414903425635469491_);}
	.st129{opacity:0.33;fill:#FFFFFF;}
	.st130{fill:#4E4E4E;}
	.st131{fill:#DADADA;}
	.st132{fill:#AEAEAE;}
	.st133{clip-path:url(#XMLID_00000057829716951902232670000004888327864848424878_);}
	.st134{opacity:0.18;fill:#FFFFFF;}
	.st135{fill:#CE4A00;}
	.st136{clip-path:url(#XMLID_00000163073100773890565220000016263550572573140110_);}
	.st137{clip-path:url(#XMLID_00000049944675230006691440000002650130443607868309_);}
	.st138{clip-path:url(#XMLID_00000018208151820779907590000016507732279008224435_);}
	.st139{fill:#253160;}
	.st140{fill:#B9E5EF;}
	.st141{fill:#4A707F;}
	.st142{fill:none;stroke:#000000;stroke-width:0.5605;stroke-miterlimit:10;}
	.st143{fill:none;stroke:#000000;stroke-width:0.56;stroke-miterlimit:10;}
	.st144{fill:none;stroke:#000000;stroke-width:0.5201;stroke-miterlimit:10;}
	.st145{fill:#13596F;}
	.st146{clip-path:url(#SVGID_00000056427899647633434290000010858635200690721930_);enable-background:new    ;}
	.st147{fill:#7E3F19;}
	.st148{fill:#A3315D;}
	.st149{display:none;}
	.st150{display:inline;}
	.st151{fill:none;stroke:#000000;stroke-width:0.4574;stroke-miterlimit:10;}
	.st152{fill:none;stroke:#000000;stroke-width:0.457;stroke-miterlimit:10;}
	.st153{fill:none;stroke:#000000;stroke-width:0.4244;stroke-miterlimit:10;}
	.st154{fill-rule:evenodd;clip-rule:evenodd;fill:#0A2A59;}
	.st155{fill-rule:evenodd;clip-rule:evenodd;fill:#0D3166;}
	.st156{fill-rule:evenodd;clip-rule:evenodd;fill:#123A75;}
	.st157{fill-rule:evenodd;clip-rule:evenodd;fill:#2167BC;}
	.st158{fill-rule:evenodd;clip-rule:evenodd;fill:#FDB500;}
	.st159{fill-rule:evenodd;clip-rule:evenodd;fill:#F08400;}
	.st160{fill:#F3DDC6;}
	.st161{fill:#E2C5AA;}
	.st162{fill:#4A4C5C;}
	.st163{fill:#8CC9D3;}
	.st164{clip-path:url(#SVGID_00000001663947203412726340000006093605041808164229_);fill:#B3D3F0;}
	.st165{clip-path:url(#SVGID_00000001663947203412726340000006093605041808164229_);}
	.st166{fill-rule:evenodd;clip-rule:evenodd;fill:#161E3A;}
	.st167{fill-rule:evenodd;clip-rule:evenodd;fill:#4260A5;}
	.st168{fill-rule:evenodd;clip-rule:evenodd;fill:#344583;}
	.st169{fill-rule:evenodd;clip-rule:evenodd;fill:#FFA861;}
	.st170{fill-rule:evenodd;clip-rule:evenodd;fill:#FF7900;}
	.st171{fill:#F2F2F2;}
	.st172{fill:#CDD0D1;}
	.st173{opacity:0.48;}
	.st174{fill:#F6C65B;}
	.st175{fill:#F7B334;}
	.st176{fill:#FFA400;}
	.st177{fill:#F4DBB2;}
	.st178{fill:#333E48;}
</style>
<g>
	<defs>
		<rect id="SVGID_00000031199604427542285280000017276450263054366597_" x="-849.7" y="-490.21" width="760" height="420"/>
	</defs>
	<clipPath id="SVGID_00000137126017163871677430000011108470637969478056_">
		<use xlink:href="#SVGID_00000031199604427542285280000017276450263054366597_"  style="overflow:visible;"/>
	</clipPath>
	<path style="clip-path:url(#SVGID_00000137126017163871677430000011108470637969478056_);fill:#C6DBF3;" d="M-24.36-280.46
		c0,0-119.49,51.97-137.87,109.16s-28.6,121.53-150.13,139.91l12.13,40.85l392.3-34.72L-24.36-280.46z"/>
</g>
<g>
	<defs>
		<rect id="SVGID_00000074407667696875015750000012283234635215120555_" x="0" width="760" height="420"/>
	</defs>
	<clipPath id="SVGID_00000013163253256281406950000014996094978508365960_">
		<use xlink:href="#SVGID_00000074407667696875015750000012283234635215120555_"  style="overflow:visible;"/>
	</clipPath>
	
		<rect x="-11.19" y="-16.12" style="clip-path:url(#SVGID_00000013163253256281406950000014996094978508365960_);fill:#B3D3F0;" width="780.87" height="451.97"/>
	<g style="clip-path:url(#SVGID_00000013163253256281406950000014996094978508365960_);">
		
			<rect x="-29.17" y="53.19" transform="matrix(-1 -4.489399e-11 4.489399e-11 -1 216.0857 270.1703)" class="st7" width="274.42" height="163.8"/>
		
			<rect x="-29.17" y="64.49" transform="matrix(-1 -4.396939e-11 4.396939e-11 -1 206.3837 273.9397)" class="st2" width="264.72" height="144.95"/>
		<g>
			<defs>
				
					<rect id="XMLID_00000027567596822257281030000001386072976094453134_" x="-29.17" y="64.49" transform="matrix(-1 -4.488777e-11 4.488777e-11 -1 201.008 273.9397)" width="259.35" height="144.95"/>
			</defs>
			<use xlink:href="#XMLID_00000027567596822257281030000001386072976094453134_"  style="overflow:visible;fill:#D7F6FF;"/>
			<clipPath id="XMLID_00000176007344486540057350000000693803079090379427_">
				<use xlink:href="#XMLID_00000027567596822257281030000001386072976094453134_"  style="overflow:visible;"/>
			</clipPath>
			<g style="clip-path:url(#XMLID_00000176007344486540057350000000693803079090379427_);">
				
					<rect x="-25.96" y="155.88" transform="matrix(0.7813 -0.6242 0.6242 0.7813 -76.8087 121.6295)" class="st117" width="322.22" height="29.08"/>
				
					<rect x="-90.56" y="87.34" transform="matrix(0.7813 -0.6242 0.6242 0.7813 -52.8542 67.9623)" class="st117" width="322.22" height="44.12"/>
			</g>
		</g>
		
			<rect x="107.33" y="64.49" transform="matrix(-1 -4.512003e-11 4.512003e-11 -1 229.7414 281.4785)" class="st7" width="15.08" height="152.49"/>
		
			<rect x="107.33" y="64.49" transform="matrix(-1 -1.301414e-10 1.301414e-10 -1 219.8212 281.4785)" class="st2" width="5.16" height="152.49"/>
		<polygon class="st118" points="136.1,44.35 129.79,48.72 134,42.72 140.31,38.34 		"/>
		<polygon class="st119" points="138.08,47.34 131.77,51.72 129.79,48.72 136.1,44.35 		"/>
		<polygon class="st120" points="131.1,37.57 124.79,41.94 124.47,37.35 130.78,32.98 		"/>
		<g class="st11">
			<defs>
				<path id="SVGID_00000119118385811140784900000016739851060266652290_" class="st11" d="M142.03,53.68l-6.31,4.38
					c0.08-0.06,0.16-0.12,0.23-0.19c0.62-0.54,0.89-1.34,0.82-2.39c-0.07-1.01-0.46-1.86-1.16-2.53c-0.7-0.68-1.64-1.06-2.84-1.16
					l6.31-4.38c1.19,0.1,2.13,0.48,2.84,1.16c0.7,0.67,1.09,1.52,1.16,2.53c0.07,1.05-0.2,1.84-0.82,2.39
					C142.19,53.56,142.11,53.63,142.03,53.68z"/>
			</defs>
			<clipPath id="SVGID_00000151505933358803538770000013040551875295820978_">
				<use xlink:href="#SVGID_00000119118385811140784900000016739851060266652290_"  style="overflow:visible;"/>
			</clipPath>
			<path style="clip-path:url(#SVGID_00000151505933358803538770000013040551875295820978_);fill:#853F00;" d="M142.03,53.68
				l-6.31,4.38c0.08-0.06,0.16-0.12,0.23-0.19c0.62-0.54,0.89-1.34,0.82-2.39c-0.07-1.01-0.46-1.86-1.16-2.53
				c-0.7-0.68-1.64-1.06-2.84-1.16l6.31-4.38c1.19,0.1,2.13,0.48,2.84,1.16c0.7,0.67,1.09,1.52,1.16,2.53
				c0.07,1.05-0.2,1.84-0.82,2.39C142.19,53.56,142.11,53.63,142.03,53.68"/>
		</g>
		<g class="st11">
			<defs>
				<path id="SVGID_00000182518305289793401150000011920170270520036027_" class="st11" d="M145.12,57.75l-6.31,4.38
					c-1.42,0.99-3.17,1.38-5.23,1.21c-1.84-0.15-3.51-0.73-5.02-1.74c-1.5-1.02-2.64-2.42-3.41-4.19l6.31-4.38
					c0.77,1.78,1.91,3.17,3.41,4.19c1.51,1.01,3.18,1.58,5.02,1.74C141.94,59.14,143.69,58.74,145.12,57.75z"/>
			</defs>
			<clipPath id="SVGID_00000003080179455374316370000006830000611802303399_">
				<use xlink:href="#SVGID_00000182518305289793401150000011920170270520036027_"  style="overflow:visible;"/>
			</clipPath>
			<path style="clip-path:url(#SVGID_00000003080179455374316370000006830000611802303399_);fill:#853F00;" d="M145.12,57.75
				l-6.31,4.38c-1.42,0.99-3.17,1.38-5.23,1.21c-1.84-0.15-3.51-0.73-5.02-1.74c-1.5-1.02-2.64-2.42-3.41-4.19l6.31-4.38
				c0.77,1.78,1.91,3.17,3.41,4.19c1.51,1.01,3.18,1.58,5.02,1.74C141.94,59.14,143.69,58.74,145.12,57.75"/>
		</g>
		<polygon class="st120" points="145.2,101.67 138.89,106.04 138.48,100.14 144.79,95.77 		"/>
		<polygon class="st120" points="145.8,110.45 139.49,114.82 139.2,110.59 145.51,106.22 		"/>
		<polygon class="st120" points="134.4,105.29 128.09,109.66 127.78,105.11 134.09,100.73 		"/>
		<polygon class="st120" points="122.62,73.59 116.31,77.97 116,73.41 122.31,69.04 		"/>
		<polygon class="st118" points="226.62,46.18 220.31,50.56 215.96,51.51 222.27,47.13 		"/>
		<polygon class="st123" points="222.27,47.13 215.96,51.51 214.53,47.22 220.84,42.84 		"/>
		<polygon class="st120" points="227.97,65.88 221.66,70.25 220.31,50.56 226.62,46.18 		"/>
		<g class="st11">
			<defs>
				<path id="SVGID_00000114038821075712483510000012236076677819791795_" class="st11" d="M223.56,102.12l6.31-4.38
					c0.62-0.43,1.38-0.61,2.27-0.54c0.88,0.07,1.65,0.44,2.25,1.07c0.62,0.63,0.96,1.44,1.02,2.42c0.09,1.32-0.69,2.91-2.35,4.75
					l-6.31,4.38c1.66-1.85,2.44-3.43,2.35-4.75c-0.07-0.97-0.4-1.78-1.02-2.42c-0.61-0.63-1.37-1-2.25-1.07
					C224.95,101.51,224.19,101.69,223.56,102.12z"/>
			</defs>
			<clipPath id="SVGID_00000019637175750084306260000001236861116745101748_">
				<use xlink:href="#SVGID_00000114038821075712483510000012236076677819791795_"  style="overflow:visible;"/>
			</clipPath>
			<path style="clip-path:url(#SVGID_00000019637175750084306260000001236861116745101748_);fill:#853F00;" d="M233.08,105.45
				l-6.31,4.38c1.66-1.85,2.44-3.43,2.35-4.75c-0.07-0.97-0.4-1.78-1.02-2.42c-0.61-0.63-1.37-1-2.25-1.07
				c-0.89-0.07-1.65,0.1-2.27,0.54l6.31-4.38c0.62-0.43,1.38-0.61,2.27-0.54c0.88,0.07,1.65,0.44,2.25,1.07
				c0.62,0.63,0.96,1.44,1.02,2.42C235.52,102.02,234.73,103.6,233.08,105.45"/>
		</g>
		<polygon class="st125" points="228.41,99.78 222.1,104.16 218.04,101.42 224.35,97.05 		"/>
		<g class="st11">
			<defs>
				<path id="SVGID_00000033334263045488456190000013539944007815483312_" class="st11" d="M220.6,98.01l6.31-4.38
					c-1.14,0.79-2,1.92-2.56,3.42l-6.31,4.38C218.6,99.93,219.46,98.8,220.6,98.01z"/>
			</defs>
			<clipPath id="SVGID_00000023982405490749209350000010254557378976251282_">
				<use xlink:href="#SVGID_00000033334263045488456190000013539944007815483312_"  style="overflow:visible;"/>
			</clipPath>
			<path style="clip-path:url(#SVGID_00000023982405490749209350000010254557378976251282_);fill:#853F00;" d="M224.35,97.05
				l-6.31,4.38c0.56-1.5,1.42-2.63,2.56-3.42l6.31-4.38C225.77,94.42,224.91,95.55,224.35,97.05"/>
		</g>
		<polygon class="st118" points="225.65,113.52 219.34,117.89 226.77,109.82 233.08,105.45 		"/>
		<polygon class="st120" points="225.9,117.17 219.59,121.55 219.34,117.89 225.65,113.52 		"/>
		<g>
			<polygon class="st127" points="132.78,51.8 139.09,47.43 138.08,47.34 131.77,51.72 			"/>
			<polygon class="st127" points="140.31,38.34 131.1,37.57 124.79,41.94 134,42.72 			"/>
			<polygon class="st127" points="150.18,106.61 143.87,110.99 144.9,111.07 139.49,114.82 144.16,115.22 150.47,110.84 
				147.3,110.57 152.7,106.82 			"/>
			<polygon class="st127" points="140.8,85.3 134.49,89.67 127.78,105.11 134.09,100.73 			"/>
			<polygon class="st127" points="134.4,105.29 128.09,109.66 139.2,110.59 145.51,106.22 			"/>
			<polygon class="st127" points="116.31,77.97 154.23,81.15 160.54,76.77 122.62,73.59 			"/>
			<polygon class="st127" points="232.6,66.27 227.97,65.88 221.66,70.25 226.29,70.64 			"/>
			<polygon class="st127" points="219.59,121.55 235.31,122.87 241.62,118.49 225.9,117.17 			"/>
			<polygon class="st127" points="213.64,81.23 207.33,85.61 245.25,88.79 251.56,84.41 			"/>
		</g>
		<polygon class="st120" points="213.64,81.23 207.33,85.61 207.02,81.05 213.33,76.68 		"/>
		<polygon class="st118" points="188.39,73.64 182.08,78.02 186.52,73.37 192.83,68.99 		"/>
		<polygon class="st123" points="193.96,85.54 187.65,89.92 182.52,84.47 188.83,80.09 		"/>
		<polygon class="st123" points="185.56,76.6 179.25,80.98 174.12,75.53 180.43,71.15 		"/>
		<polygon class="st118" points="180.43,71.15 174.12,75.53 176.95,72.56 183.26,68.19 		"/>
		<polygon class="st118" points="181.12,81.27 174.81,85.64 179.25,80.98 185.56,76.6 		"/>
		<polygon class="st123" points="184.4,84.74 178.09,89.12 174.81,85.64 181.12,81.27 		"/>
		<g>
			<defs>
				<path id="XMLID_00000011711564938911796780000012456550975747046037_" d="M131.1,37.57l-0.32-4.59l14.78,1.24l0.28,4.05
					l-3.98,5.67c1.63,0.63,2.98,1.61,4.06,2.95c1.09,1.33,1.69,2.87,1.81,4.62c0.18,2.56-0.5,4.5-2.03,5.81
					c-1.52,1.31-3.46,1.85-5.81,1.66c-1.84-0.15-3.51-0.73-5.02-1.74c-1.5-1.02-2.64-2.42-3.41-4.19l3.8-2.09
					c0.72,1.97,2.16,3.05,4.3,3.23c1.19,0.1,2.09-0.12,2.71-0.68c0.62-0.54,0.89-1.34,0.82-2.39c-0.07-1.01-0.46-1.86-1.16-2.53
					c-0.7-0.68-1.64-1.06-2.84-1.16l-1.01-0.09l-1.98-2.99l4.21-6.01L131.1,37.57z M152.39,102.27l-2.52-0.21l-0.41-5.9l-4.67-0.39
					l0.41,5.9l-6.11-0.51l6.69-15.44l-4.98-0.42l-6.72,15.44l0.31,4.55l11.11,0.93l0.29,4.23l4.67,0.39l-0.29-4.23l2.52,0.21
					L152.39,102.27z M122.31,69.04l0.31,4.55l37.92,3.18l-0.31-4.55L122.31,69.04z M226.62,46.18l1.35,19.7l4.64,0.39l-1.71-24.89
					l-4.03-0.34l-6.02,1.8l1.43,4.29L226.62,46.18z M232.45,113.02l4.29-4.49c2.37-2.5,3.49-5.04,3.31-7.62
					c-0.16-2.4-1.06-4.36-2.68-5.89c-1.62-1.54-3.5-2.4-5.62-2.58c-1.66-0.14-3.15,0.18-4.48,0.96c-1.32,0.79-2.3,2-2.92,3.65
					l4.06,2.73c0.72-1.86,1.96-2.73,3.74-2.58c0.88,0.07,1.65,0.44,2.25,1.07c0.62,0.63,0.96,1.44,1.02,2.42
					c0.09,1.32-0.69,2.91-2.35,4.75l-7.43,8.07l0.25,3.65l15.72,1.32l-0.32-4.73L232.45,113.02z M251.24,79.86l-37.92-3.18
					l0.31,4.55l37.92,3.18L251.24,79.86z M196.09,72.46l-3.26-3.47l-4.44,4.65l-5.12-5.45l-2.83,2.96l5.14,5.45l-4.44,4.66
					l3.28,3.47l4.43-4.65l5.14,5.45l2.82-2.96l-5.12-5.47L196.09,72.46z"/>
			</defs>
			<use xlink:href="#XMLID_00000011711564938911796780000012456550975747046037_"  style="overflow:visible;fill:#FC7800;"/>
			<clipPath id="XMLID_00000163780027748755111710000002286246149007946386_">
				<use xlink:href="#XMLID_00000011711564938911796780000012456550975747046037_"  style="overflow:visible;"/>
			</clipPath>
			<g style="clip-path:url(#XMLID_00000163780027748755111710000002286246149007946386_);">
				
					<rect x="128.94" y="97.27" transform="matrix(0.7813 -0.6242 0.6242 0.7813 -14.7859 169.1998)" class="st129" width="210.2" height="16.85"/>
				
					<rect x="105.56" y="85.27" transform="matrix(0.7813 -0.6242 0.6242 0.7813 -9.7113 151.0326)" class="st129" width="210.2" height="8.21"/>
				
					<rect x="29.64" y="42.25" transform="matrix(0.7813 -0.6242 0.6242 0.7813 -1.8791 95.0865)" class="st129" width="210.2" height="15.94"/>
				
					<rect x="57.56" y="67.11" transform="matrix(0.7813 -0.6242 0.6242 0.7813 -11.2851 117.9454)" class="st129" width="210.2" height="15.94"/>
			</g>
		</g>
		<g>
			<rect x="393.34" y="351.09" class="st7" width="349.28" height="79.15"/>
			<rect x="393.34" y="351.09" class="st34" width="349.28" height="22.47"/>
			<rect x="613.43" y="351.09" class="st34" width="129.19" height="79.15"/>
			<path class="st7" d="M759.26,353.98H368.87c-1.15,0-2.08-0.93-2.08-2.08v-7.58c0-1.15,0.93-2.08,2.08-2.08h390.39
				c1.15,0,2.08,0.93,2.08,2.08v7.58C761.34,353.05,760.41,353.98,759.26,353.98z"/>
			<path class="st34" d="M760.01,353.98H600.63c-0.74,0-1.33-0.6-1.33-1.33v-9.08c0-0.74,0.6-1.33,1.33-1.33h159.38
				c0.74,0,1.33,0.6,1.33,1.33v9.08C761.34,353.38,760.74,353.98,760.01,353.98z"/>
			<g>
				<g>
					<path class="st5" d="M298.73,413.44v-1.66c0-11.04-8.99-20.03-20.03-20.03h83.38c11.04,0,20.03,8.93,20.03,20.03v1.66
						c0,11.04-8.99,20.03-20.03,20.03H278.7C289.8,433.47,298.73,424.48,298.73,413.44z"/>
					<path class="st4" d="M142.85,391.8h83.38h52.48c11.04,0,20.03,8.93,20.03,20.03v1.66c0,11.04-8.99,20.03-20.03,20.03h-52.53
						H142.8c-11.04,0-20.03-8.93-20.03-20.03v-1.66C122.83,400.74,131.81,391.8,142.85,391.8z"/>
				</g>
				<g>
					<path class="st5" d="M263.32,330.25l-17.19-126.07c-1.46-10.7-11.58-19.41-22.67-19.41l22.52,0c11.04,0,21.21,8.66,22.67,19.41
						l17.19,126.01c1.46,10.7-6.34,19.41-17.38,19.41l-22.52,0C257.03,349.6,264.78,340.94,263.32,330.25z"/>
					<path class="st4" d="M110.13,184.83h22.52l90.86,0c11.04,0,21.21,8.66,22.67,19.41l17.19,126.01
						c1.46,10.7-6.28,19.41-17.38,19.41l-90.86,0l-22.52,0c-11.04,0-21.21-8.66-22.67-19.41L92.74,204.18
						C91.29,193.48,99.09,184.83,110.13,184.83z"/>
				</g>
				<g>
					<path class="st31" d="M202.37,424.76h-5.55c0.94,0,1.87-0.11,2.74-0.22c0.81-0.21,1.66-0.43,2.51-0.7
						c6.69-2.2,10.92-8.6,9.89-16.13l-15.87-116.34l-7.72-56.62h5.6l7.72,56.62l15.87,116.39
						C218.87,417.12,212.08,424.76,202.37,424.76z"/>
					<path class="st105" d="M202.02,423.79c-0.79,0.26-1.66,0.48-2.58,0.59c-0.87,0.16-1.8,0.22-2.75,0.22
						c-9.65,0-18.56-7.58-19.85-16.99L161,291.37l-7.72-56.62h35.06l7.72,56.62l15.86,116.28
						C212.94,415.18,208.76,421.58,202.02,423.79z"/>
				</g>
				<g>
					<g>
						<path class="st31" d="M220.7,291.37h-79.83c-4.09,0-7.83-3.23-8.39-7.22l-5.62-42.13c-0.53-4.02,2.35-7.27,6.46-7.27h79.83
							c4.1,0,7.86,3.26,8.4,7.27l5.61,42.08C227.69,288.12,224.8,291.37,220.7,291.37z"/>
						<path class="st105" d="M216.12,291.37h-75.44c-3.99,0-7.66-3.17-8.18-7.09l-0.02-0.13l-5.62-42.13l-0.03-0.19
							c-0.52-3.91,2.3-7.08,6.29-7.08h75.44c4,0,7.66,3.17,8.19,7.08l5.67,42.45C222.93,288.2,220.11,291.37,216.12,291.37z"/>
					</g>
					<g>
						<g>
							
								<ellipse transform="matrix(0.6242 -0.7813 0.7813 0.6242 -140.1094 200.7438)" class="st31" cx="138.62" cy="246.01" rx="3.6" ry="4.12"/>
							
								<ellipse transform="matrix(0.6242 -0.7813 0.7813 0.6242 -115.2926 252.3373)" class="st31" cx="204.65" cy="246.01" rx="3.6" ry="4.12"/>
						</g>
						<g>
							
								<ellipse transform="matrix(0.6242 -0.7813 0.7813 0.6242 -160.808 214.3358)" class="st31" cx="142.4" cy="274.33" rx="3.6" ry="4.12"/>
							
								<ellipse transform="matrix(0.6242 -0.7813 0.7813 0.6242 -135.9912 265.9292)" class="st31" cx="208.43" cy="274.33" rx="3.6" ry="4.12"/>
						</g>
					</g>
				</g>
			</g>
			<g>
				<g>
					<defs>
						<path id="XMLID_00000119116321099704967330000012852271371748411045_" d="M336.79,124.75c23.77-3.08,48.83,15,56.54,40.8
							c0.12,0.4-0.09,0.78-0.46,0.83l-42.46,6.22c-0.37,0.05-0.76-0.23-0.87-0.63l-13.21-46.39
							C336.22,125.17,336.43,124.8,336.79,124.75z"/>
					</defs>
					<use xlink:href="#XMLID_00000119116321099704967330000012852271371748411045_"  style="overflow:visible;fill:#FF7900;"/>
					<clipPath id="XMLID_00000148637227685935127750000015999241286497440150_">
						<use xlink:href="#XMLID_00000119116321099704967330000012852271371748411045_"  style="overflow:visible;"/>
					</clipPath>
					<g style="clip-path:url(#XMLID_00000148637227685935127750000015999241286497440150_);">
						
							<rect x="317.27" y="132.28" transform="matrix(0.7813 -0.6242 0.6242 0.7813 -7.9774 256.3467)" class="st134" width="89.05" height="14.55"/>
						
							<rect x="302.95" y="127.86" transform="matrix(0.7813 -0.6242 0.6242 0.7813 -6.0204 245.6201)" class="st134" width="89.05" height="7.09"/>
						
							<rect x="342.34" y="155.55" transform="matrix(0.7813 -0.6242 0.6242 0.7813 -15.4143 276.5209)" class="st134" width="89.05" height="9.4"/>
					</g>
				</g>
				<path class="st135" d="M392.88,166.38l-42.46,6.22c-0.37,0.05-0.76-0.23-0.87-0.63l-13.21-46.39c-0.08-0.3,0-0.58,0.2-0.73
					l-6.35,4.7c-0.2,0.15-0.29,0.43-0.2,0.73l13.21,46.39c0.11,0.4,0.51,0.68,0.87,0.63l42.46-6.22c0.1-0.01,0.18-0.05,0.26-0.1
					l6.35-4.7C393.06,166.33,392.97,166.37,392.88,166.38z"/>
				<g>
					<defs>
						<path id="XMLID_00000088127639689962333630000011181859593028820109_" d="M389.04,181.74c0.37-0.05,0.77,0.23,0.88,0.64
							c7,25.9-6.17,49.57-29.71,53.43c-0.38,0.06-0.77-0.23-0.88-0.63l-13.21-46.39c-0.11-0.4,0.09-0.77,0.46-0.82L389.04,181.74z"
							/>
					</defs>
					<use xlink:href="#XMLID_00000088127639689962333630000011181859593028820109_"  style="overflow:visible;fill:#512DBD;"/>
					<clipPath id="XMLID_00000119819024587627880890000007246068864434438542_">
						<use xlink:href="#XMLID_00000088127639689962333630000011181859593028820109_"  style="overflow:visible;"/>
					</clipPath>
					<g style="clip-path:url(#XMLID_00000119819024587627880890000007246068864434438542_);">
						
							<rect x="331.95" y="208.2" transform="matrix(0.7813 -0.6242 0.6242 0.7813 -52.1507 282.1143)" class="st134" width="89.05" height="14.55"/>
						
							<rect x="314.54" y="195.62" transform="matrix(0.7813 -0.6242 0.6242 0.7813 -45.7781 267.6777)" class="st134" width="89.05" height="7.09"/>
					</g>
				</g>
				<path class="st16" d="M360.2,235.81c-0.38,0.06-0.77-0.23-0.88-0.63l-13.21-46.39l-6.35,4.7l13.21,46.39
					c0.11,0.4,0.51,0.69,0.88,0.63c6.1-1,11.51-3.33,16.04-6.69l6.35-4.7C371.71,232.48,366.3,234.81,360.2,235.81z"/>
				<path class="st4" d="M296.81,195.77c-0.37,0.05-0.77-0.23-0.88-0.64c-5.18-19.19,0.7-37.15,13.67-46.75l-6.35,4.7
					c-12.97,9.59-18.85,27.56-13.67,46.75c0.11,0.4,0.51,0.69,0.88,0.64l42.46-6.22l6.35-4.7L296.81,195.77z"/>
				<g>
					<defs>
						<path id="XMLID_00000102538918626713098780000000719021707452703122_" d="M325.64,141.69c0.37-0.05,0.77,0.23,0.88,0.63
							l13.21,46.39c0.11,0.4-0.09,0.77-0.46,0.83l-42.46,6.22c-0.37,0.05-0.77-0.23-0.88-0.64
							C288.93,169.23,302.1,145.55,325.64,141.69z"/>
					</defs>
					<use xlink:href="#XMLID_00000102538918626713098780000000719021707452703122_"  style="overflow:visible;fill:#509D8F;"/>
					<clipPath id="XMLID_00000182493387217866720310000005920315367845636492_">
						<use xlink:href="#XMLID_00000102538918626713098780000000719021707452703122_"  style="overflow:visible;"/>
					</clipPath>
					<g style="clip-path:url(#XMLID_00000182493387217866720310000005920315367845636492_);">
						
							<rect x="277.28" y="162.86" transform="matrix(0.7813 -0.6242 0.6242 0.7813 -35.8131 238.072)" class="st134" width="89.05" height="14.55"/>
						
							<rect x="259.87" y="150.28" transform="matrix(0.7813 -0.6242 0.6242 0.7813 -29.4405 223.6355)" class="st134" width="89.05" height="7.09"/>
					</g>
				</g>
				<path class="st22" d="M353.66,239.32c-23.78,3.08-48.83-15-56.54-40.79c-0.09-0.3,0-0.58,0.2-0.73l-6.35,4.7
					c-0.2,0.15-0.29,0.43-0.2,0.73c7.71,25.79,32.77,43.87,56.54,40.79c0.1-0.01,0.18-0.05,0.25-0.1l6.35-4.7
					C353.84,239.27,353.76,239.31,353.66,239.32z"/>
				<g>
					<defs>
						<path id="XMLID_00000090280508550391098120000011210049574348941961_" d="M340.04,191.47c0.37-0.05,0.76,0.23,0.87,0.63
							l13.21,46.39c0.11,0.4-0.09,0.77-0.46,0.83c-23.78,3.08-48.83-15-56.54-40.79c-0.12-0.41,0.09-0.78,0.46-0.83L340.04,191.47z"
							/>
					</defs>
					<use xlink:href="#XMLID_00000090280508550391098120000011210049574348941961_"  style="overflow:visible;fill:#E0497D;"/>
					<clipPath id="XMLID_00000043447853617013279780000013194132958869678744_">
						<use xlink:href="#XMLID_00000090280508550391098120000011210049574348941961_"  style="overflow:visible;"/>
					</clipPath>
					<g style="clip-path:url(#XMLID_00000043447853617013279780000013194132958869678744_);">
						
							<rect x="290.37" y="225.79" transform="matrix(0.7813 -0.6242 0.6242 0.7813 -70.1896 259.2953)" class="st134" width="89.05" height="8.04"/>
						
							<rect x="272.52" y="206.84" transform="matrix(0.7813 -0.6242 0.6242 0.7813 -63.5694 244.4635)" class="st134" width="89.05" height="12.19"/>
					</g>
				</g>
				<g>
					<g>
						<polygon class="st56" points="537.81,331.94 594.36,331.94 585.45,296.5 528.9,296.5 						"/>
						<polygon class="st139" points="532.27,331.94 588.82,331.94 579.91,296.5 523.36,296.5 						"/>
					</g>
					<polygon class="st139" points="684.75,150.17 690.23,150.7 697.49,157.42 434.7,303.12 427.65,296.44 					"/>
					<path class="st139" d="M439.03,305.14h223.64c2.65,0,4.94-1.84,5.52-4.42l30.89-138.01c0.79-3.53-1.9-6.89-5.52-6.89H469.92
						c-2.65,0-4.94,1.84-5.52,4.42l-30.89,138.01C432.72,301.78,435.41,305.14,439.03,305.14z"/>
					<path class="st55" d="M431.04,297.57h223.64c2.65,0,4.94-1.84,5.52-4.42l30.89-138.01c0.79-3.53-1.9-6.89-5.52-6.89H461.94
						c-2.65,0-4.94,1.84-5.52,4.42l-30.89,138.01C424.74,294.21,427.42,297.57,431.04,297.57z"/>
					<path class="st113" d="M685.03,158.24l-5.12,22.86l-9.36,41.87l-15,66.99c-0.55,2.47-2.74,4.21-5.26,4.21H436.85
						c-3.46,0-6.02-3.2-5.26-6.57l8.58-38.32l12.72-56.82l8.19-36.57c0.55-2.47,2.74-4.21,5.26-4.21h213.44
						c1.84,0,3.43,0.91,4.38,2.26C685.01,155.11,685.39,156.66,685.03,158.24z"/>
					<path class="st134" d="M684.15,153.93L478.98,294.16h-26.1l208.49-142.49h18.4C681.61,151.67,683.2,152.57,684.15,153.93z"/>
					<polygon class="st134" points="679.91,181.09 670.55,222.96 566.36,294.16 514.49,294.16 					"/>
					<polygon class="st134" points="582.97,151.67 440.17,249.27 452.88,192.45 512.55,151.67 					"/>
					<path class="st139" d="M496.65,342.42H629.7v-1.12c0-6.15-4.98-11.13-11.13-11.13H507.78c-6.15,0-11.13,4.98-11.13,11.13
						V342.42z"/>
				</g>
				<g>
					<path class="st140" d="M617.25,51.12l-10.57,170.41c-0.09,1.52-1.43,2.75-2.99,2.75l-171.45-0.16c-1.56,0-2.74-1.23-2.65-2.75
						l10.57-170.41c0.09-1.52,1.43-2.75,2.99-2.75l171.45,0.16C616.16,48.36,617.34,49.6,617.25,51.12z"/>
					<path class="st141" d="M617.25,51.14l-0.82,13.24l-184.94-0.17l0.82-13.24c0.1-1.53,1.49-2.77,3.11-2.77l179.05,0.17
						C616.1,48.36,617.34,49.61,617.25,51.14z"/>
					<path class="st34" d="M609.4,51.12l-10.6,171.02c-0.09,1.52-1.43,2.76-2.99,2.76l-171.45-0.16c-1.56,0-2.74-1.24-2.65-2.76
						l10.61-171.02c0.09-1.52,1.43-2.76,2.99-2.76l171.45,0.16C608.31,48.36,609.49,49.59,609.4,51.12z"/>
					<path class="st140" d="M518.6,106.36l-19.71-0.02c-0.91,0-1.69,0.72-1.74,1.62l-0.63,10.17c-0.06,0.89,0.64,1.62,1.54,1.62
						l19.71,0.02c0.91,0,1.69-0.72,1.74-1.62l0.63-10.17C520.2,107.09,519.51,106.36,518.6,106.36z"/>
					<path class="st140" d="M461.49,165.87l-31.13-0.03c-0.6,0-1.07-0.48-1.03-1.08l0.9-14.48c0.04-0.6,0.56-1.08,1.16-1.08
						l31.13,0.03c0.6,0,1.07,0.48,1.03,1.08l-0.9,14.48C462.61,165.39,462.09,165.87,461.49,165.87z"/>
					<g>
						<path class="st7" d="M489.55,110.27l-38.91-0.04c-0.79,0-1.39-0.63-1.34-1.41l0.47-7.51c0.05-0.78,0.73-1.41,1.51-1.4
							l38.91,0.04c0.79,0,1.39,0.63,1.34,1.41l-0.47,7.51C491.02,109.64,490.34,110.27,489.55,110.27z"/>
						<path class="st7" d="M488.58,125.98l-38.91-0.04c-0.79,0-1.39-0.63-1.34-1.41l0.47-7.51c0.05-0.78,0.73-1.41,1.51-1.4
							l38.91,0.04c0.79,0,1.39,0.63,1.34,1.41l-0.47,7.51C490.04,125.35,489.37,125.98,488.58,125.98z"/>
						<path class="st7" d="M566.14,110.34l-38.06-0.04c-0.78,0-1.37-0.62-1.33-1.39l0.47-7.54c0.05-0.77,0.72-1.39,1.5-1.39
							l38.06,0.04c0.78,0,1.37,0.62,1.33,1.39l-0.47,7.54C567.59,109.72,566.92,110.34,566.14,110.34z"/>
						<path class="st7" d="M565.16,126.05l-38.06-0.04c-0.78,0-1.37-0.62-1.33-1.39l0.47-7.54c0.05-0.77,0.72-1.39,1.5-1.39
							l38.06,0.04c0.78,0,1.37,0.62,1.33,1.39l-0.47,7.54C566.62,125.43,565.94,126.06,565.16,126.05z"/>
						<path class="st7" d="M593.61,191.8l-163.33-0.15c-1.56,0-2.76-1.25-2.66-2.79l1.02-16.38c0.1-1.54,1.44-2.79,3.01-2.79
							l163.33,0.15c1.56,0,2.76,1.25,2.66,2.79l-1.02,16.38C596.52,190.56,595.18,191.8,593.61,191.8z"/>
					</g>
					<path class="st140" d="M596.75,165.99l-44.48-0.04c-0.72,0-1.27-0.58-1.22-1.28l0.87-14.08c0.04-0.71,0.66-1.28,1.38-1.28
						l44.48,0.04c0.72,0,1.27,0.58,1.22,1.28l-0.87,14.08C598.08,165.42,597.46,166,596.75,165.99z"/>
					<path class="st35" d="M609.4,51.13l-0.82,13.24l-177.09-0.17l0.82-13.24c0.1-1.53,1.43-2.77,2.99-2.77l171.45,0.16
						C608.31,48.36,609.49,49.6,609.4,51.13z"/>
					<g>
						<path d="M487.83,54.94l-2.29,0l-0.08,1.33l2.22,0l-0.07,1.06l-2.22,0l-0.13,2.17l-1.13,0l0.35-5.63l3.41,0L487.83,54.94z"/>
						<path d="M489.58,56.18c0.11-0.26,0.29-0.45,0.52-0.58c0.23-0.13,0.49-0.19,0.77-0.19l-0.07,1.16
							c-0.32-0.04-0.61,0.03-0.87,0.19c-0.26,0.17-0.41,0.44-0.43,0.83l-0.12,1.92l-1.05,0l0.25-4.02l1.05,0L489.58,56.18z"/>
						<path d="M494.42,55.5l1.05,0l-0.25,4.02l-1.05,0l0.03-0.47c-0.34,0.39-0.79,0.58-1.37,0.58c-0.54,0-1-0.21-1.36-0.61
							c-0.36-0.41-0.53-0.91-0.49-1.51s0.26-1.1,0.68-1.51c0.41-0.41,0.89-0.62,1.44-0.61c0.57,0,1,0.2,1.29,0.59L494.42,55.5z
							 M492.3,58.32c0.2,0.21,0.46,0.32,0.79,0.32s0.6-0.1,0.83-0.32c0.23-0.21,0.35-0.48,0.37-0.82c0.02-0.33-0.07-0.6-0.27-0.82
							c-0.2-0.21-0.47-0.32-0.79-0.32s-0.6,0.11-0.83,0.32c-0.23,0.21-0.35,0.48-0.37,0.82C492.01,57.83,492.1,58.11,492.3,58.32z"
							/>
						<path d="M498.11,59.63c-0.62,0-1.12-0.2-1.5-0.61c-0.39-0.41-0.56-0.91-0.52-1.51s0.27-1.1,0.71-1.51
							c0.44-0.41,0.96-0.61,1.58-0.61c0.4,0,0.75,0.09,1.07,0.28c0.32,0.19,0.55,0.44,0.7,0.76l-0.94,0.52
							c-0.07-0.17-0.19-0.3-0.35-0.4c-0.16-0.1-0.34-0.14-0.55-0.14c-0.32,0-0.58,0.1-0.8,0.31c-0.22,0.21-0.34,0.47-0.36,0.79
							c-0.02,0.32,0.07,0.58,0.26,0.78c0.19,0.21,0.45,0.31,0.76,0.31c0.21,0,0.4-0.05,0.58-0.14c0.17-0.09,0.3-0.22,0.4-0.39
							l0.88,0.51c-0.2,0.32-0.47,0.57-0.81,0.76C498.88,59.54,498.51,59.63,498.11,59.63z"/>
						<path d="M503.04,56.5l-0.92,0l-0.1,1.67c-0.01,0.14,0.02,0.24,0.09,0.31c0.07,0.06,0.17,0.1,0.3,0.11
							c0.13,0.01,0.3,0.01,0.51,0l-0.06,0.94c-0.73,0.08-1.23,0.01-1.52-0.2s-0.41-0.6-0.37-1.15l0.1-1.67l-0.71,0l0.06-1l0.71,0
							l0.05-0.81l1.07-0.31l-0.07,1.12l0.92,0L503.04,56.5z"/>
						<path d="M503.6,59.52l0.25-4.02l1.05,0l-0.25,4.02L503.6,59.52z M504.4,55.02c-0.17,0-0.32-0.06-0.44-0.19
							s-0.17-0.28-0.16-0.45c0.01-0.17,0.08-0.32,0.22-0.45c0.14-0.13,0.29-0.19,0.46-0.19c0.18,0,0.33,0.06,0.45,0.19
							c0.12,0.13,0.17,0.28,0.16,0.45c-0.01,0.17-0.08,0.32-0.22,0.45S504.58,55.02,504.4,55.02z"/>
						<path d="M509.12,59.03c-0.44,0.41-0.97,0.61-1.57,0.61c-0.6,0-1.1-0.21-1.49-0.61c-0.39-0.41-0.57-0.91-0.53-1.51
							c0.04-0.59,0.28-1.1,0.72-1.51c0.44-0.41,0.96-0.62,1.57-0.61c0.6,0,1.1,0.21,1.5,0.62c0.39,0.41,0.57,0.91,0.54,1.51
							C509.8,58.11,509.56,58.62,509.12,59.03z M506.84,58.31c0.2,0.21,0.45,0.31,0.77,0.31s0.59-0.1,0.81-0.31
							c0.23-0.21,0.35-0.47,0.37-0.8c0.02-0.32-0.07-0.59-0.27-0.8c-0.2-0.21-0.46-0.31-0.77-0.31s-0.58,0.1-0.81,0.31
							c-0.22,0.21-0.34,0.47-0.36,0.8C506.56,57.84,506.64,58.1,506.84,58.31z"/>
						<path d="M512.98,55.4c0.45,0,0.8,0.15,1.08,0.44c0.27,0.29,0.39,0.7,0.36,1.22l-0.15,2.47l-1.05,0l0.15-2.34
							c0.02-0.27-0.04-0.47-0.18-0.62c-0.14-0.14-0.33-0.21-0.58-0.21c-0.27,0-0.49,0.08-0.67,0.25c-0.17,0.17-0.27,0.42-0.29,0.75
							l-0.13,2.17l-1.05,0l0.25-4.02l1.05,0l-0.03,0.45C512.01,55.59,512.43,55.4,512.98,55.4z"/>
						<path d="M519.96,59.65c-0.86,0-1.55-0.28-2.08-0.84c-0.53-0.56-0.76-1.26-0.71-2.08c0.05-0.83,0.38-1.53,0.97-2.09
							c0.6-0.56,1.32-0.84,2.18-0.84c0.52,0,0.99,0.12,1.41,0.36c0.42,0.24,0.74,0.56,0.96,0.97l-1.01,0.55
							c-0.13-0.25-0.31-0.45-0.57-0.59c-0.25-0.14-0.54-0.21-0.87-0.21c-0.55,0-1.01,0.17-1.37,0.51c-0.36,0.34-0.56,0.79-0.59,1.33
							c-0.03,0.54,0.11,0.98,0.43,1.33c0.32,0.34,0.75,0.51,1.31,0.52c0.33,0,0.63-0.07,0.9-0.21c0.27-0.14,0.49-0.34,0.64-0.58
							l0.94,0.56c-0.27,0.41-0.63,0.73-1.08,0.97C520.97,59.53,520.48,59.65,519.96,59.65z"/>
						<path d="M526.44,55.53l1.05,0l-0.25,4.02l-1.05,0l0.03-0.47c-0.34,0.39-0.79,0.58-1.37,0.58c-0.54,0-1-0.21-1.36-0.62
							c-0.36-0.41-0.53-0.91-0.49-1.51c0.04-0.59,0.26-1.1,0.68-1.51c0.42-0.41,0.89-0.61,1.44-0.61c0.57,0,1,0.2,1.29,0.59
							L526.44,55.53z M524.33,58.35c0.2,0.21,0.46,0.32,0.79,0.32s0.6-0.1,0.83-0.32c0.23-0.21,0.35-0.48,0.37-0.82
							c0.02-0.33-0.07-0.6-0.27-0.82c-0.2-0.21-0.47-0.32-0.79-0.32s-0.6,0.11-0.83,0.32c-0.23,0.21-0.35,0.48-0.37,0.82
							C524.04,57.87,524.13,58.14,524.33,58.35z"/>
						<path d="M528.2,59.55l0.36-5.87l1.05,0l-0.36,5.87L528.2,59.55z"/>
						<path d="M532.15,59.66c-0.62,0-1.12-0.2-1.5-0.61c-0.39-0.41-0.56-0.91-0.52-1.51s0.27-1.1,0.71-1.51
							c0.44-0.41,0.96-0.61,1.58-0.61c0.4,0,0.75,0.09,1.07,0.28c0.32,0.19,0.55,0.44,0.7,0.76l-0.94,0.52
							c-0.07-0.17-0.19-0.3-0.35-0.4c-0.16-0.1-0.34-0.14-0.55-0.14c-0.32,0-0.58,0.1-0.8,0.31c-0.22,0.21-0.34,0.47-0.36,0.79
							c-0.02,0.32,0.07,0.58,0.26,0.78c0.19,0.21,0.45,0.31,0.76,0.31c0.21,0,0.4-0.05,0.58-0.14c0.17-0.09,0.3-0.22,0.4-0.39
							l0.88,0.51c-0.2,0.32-0.47,0.57-0.81,0.76C532.92,59.57,532.55,59.66,532.15,59.66z"/>
						<path d="M537.53,55.54l1.05,0l-0.25,4.02l-1.05,0l0.03-0.45c-0.28,0.37-0.7,0.56-1.25,0.56c-0.45,0-0.81-0.15-1.08-0.44
							c-0.27-0.29-0.39-0.7-0.36-1.22l0.15-2.47l1.05,0l-0.14,2.34c-0.02,0.27,0.04,0.47,0.18,0.62c0.14,0.14,0.33,0.21,0.57,0.21
							c0.27,0,0.5-0.08,0.67-0.25c0.17-0.17,0.27-0.41,0.29-0.75L537.53,55.54z"/>
						<path d="M539.3,59.56l0.36-5.87l1.05,0l-0.36,5.87L539.3,59.56z"/>
						<path d="M544.66,55.54l1.05,0l-0.25,4.02l-1.05,0l0.03-0.47c-0.34,0.39-0.79,0.58-1.37,0.58c-0.54,0-1-0.21-1.36-0.61
							c-0.36-0.41-0.53-0.91-0.49-1.51c0.04-0.59,0.26-1.1,0.68-1.51c0.42-0.41,0.89-0.61,1.44-0.61c0.57,0,1,0.2,1.29,0.59
							L544.66,55.54z M542.55,58.37c0.2,0.21,0.46,0.32,0.79,0.32c0.33,0,0.6-0.1,0.83-0.32c0.23-0.21,0.35-0.48,0.37-0.81
							c0.02-0.33-0.07-0.61-0.27-0.82c-0.2-0.21-0.47-0.32-0.79-0.32c-0.33,0-0.6,0.11-0.83,0.32c-0.23,0.21-0.35,0.48-0.37,0.82
							C542.26,57.88,542.35,58.15,542.55,58.37z"/>
						<path d="M548.94,56.54l-0.92,0l-0.1,1.67c-0.01,0.14,0.02,0.24,0.09,0.31s0.17,0.1,0.3,0.11c0.13,0.01,0.3,0.01,0.51,0
							l-0.06,0.94c-0.73,0.08-1.23,0.01-1.52-0.2c-0.28-0.21-0.41-0.6-0.37-1.15l0.1-1.67l-0.71,0l0.06-1l0.71,0l0.05-0.81
							l1.07-0.31l-0.07,1.12l0.92,0L548.94,56.54z"/>
						<path d="M552.88,59.07c-0.44,0.41-0.97,0.61-1.57,0.61c-0.6,0-1.1-0.21-1.49-0.61c-0.39-0.41-0.57-0.91-0.53-1.51
							c0.04-0.59,0.28-1.1,0.72-1.51c0.44-0.41,0.96-0.61,1.57-0.61c0.6,0,1.1,0.21,1.5,0.62c0.39,0.41,0.57,0.91,0.54,1.51
							C553.57,58.16,553.33,58.66,552.88,59.07z M550.61,58.35c0.2,0.21,0.45,0.31,0.77,0.31s0.59-0.1,0.81-0.31
							c0.23-0.21,0.35-0.47,0.37-0.8c0.02-0.32-0.07-0.59-0.27-0.8c-0.2-0.21-0.46-0.31-0.77-0.31s-0.58,0.1-0.81,0.31
							c-0.22,0.21-0.34,0.47-0.36,0.8C550.32,57.88,550.41,58.14,550.61,58.35z"/>
						<path d="M555.48,56.24c0.11-0.26,0.29-0.45,0.52-0.58c0.23-0.13,0.49-0.19,0.77-0.19l-0.07,1.16
							c-0.32-0.04-0.61,0.03-0.87,0.19c-0.26,0.17-0.41,0.44-0.43,0.83l-0.12,1.92l-1.05,0l0.25-4.02l1.05,0L555.48,56.24z"/>
					</g>
					<g>
						<path d="M439.97,159.64c-0.72,0-1.3-0.24-1.74-0.71c-0.44-0.47-0.64-1.05-0.6-1.74c0.04-0.7,0.31-1.28,0.81-1.75
							c0.5-0.47,1.11-0.7,1.83-0.7c0.43,0,0.83,0.1,1.18,0.3c0.35,0.2,0.62,0.47,0.81,0.81l-0.84,0.46
							c-0.11-0.21-0.26-0.38-0.48-0.5c-0.21-0.12-0.45-0.18-0.73-0.18c-0.46,0-0.85,0.14-1.15,0.43c-0.3,0.29-0.47,0.66-0.5,1.12
							c-0.03,0.45,0.09,0.83,0.36,1.11s0.63,0.43,1.1,0.43c0.27,0,0.52-0.06,0.75-0.18s0.41-0.28,0.53-0.49l0.79,0.47
							c-0.23,0.34-0.53,0.61-0.91,0.81C440.82,159.54,440.41,159.64,439.97,159.64z"/>
						<path d="M442.63,159.55l0.3-4.92h0.88l-0.3,4.92H442.63z"/>
						<path d="M445.15,158.23c0.09,0.42,0.4,0.63,0.92,0.63c0.34,0,0.6-0.11,0.79-0.33l0.69,0.4c-0.37,0.48-0.88,0.72-1.54,0.72
							c-0.57,0-1.01-0.17-1.33-0.51c-0.32-0.34-0.46-0.76-0.43-1.27c0.03-0.51,0.23-0.93,0.58-1.27c0.36-0.34,0.8-0.51,1.33-0.51
							c0.5,0,0.9,0.17,1.21,0.51c0.3,0.34,0.44,0.76,0.41,1.27c-0.01,0.11-0.03,0.23-0.06,0.36L445.15,158.23z M445.17,157.55
							l1.74,0c-0.04-0.23-0.13-0.4-0.28-0.51c-0.15-0.11-0.33-0.17-0.53-0.17c-0.24,0-0.44,0.06-0.6,0.18
							C445.35,157.17,445.24,157.34,445.17,157.55z"/>
						<path d="M451.07,156.19l0.88,0l-0.21,3.37l-0.88,0l0.03-0.4c-0.29,0.33-0.67,0.49-1.15,0.49c-0.46,0-0.84-0.17-1.14-0.52
							c-0.3-0.34-0.44-0.76-0.41-1.26c0.03-0.5,0.22-0.92,0.57-1.26c0.35-0.34,0.75-0.51,1.2-0.51c0.48,0,0.84,0.17,1.08,0.49
							L451.07,156.19z M449.3,158.56c0.17,0.18,0.39,0.27,0.66,0.27c0.27,0,0.51-0.09,0.7-0.27c0.19-0.18,0.29-0.4,0.31-0.68
							c0.02-0.28-0.06-0.51-0.23-0.68c-0.17-0.18-0.39-0.27-0.67-0.27c-0.27,0-0.5,0.09-0.69,0.26c-0.19,0.18-0.29,0.4-0.31,0.68
							C449.05,158.15,449.13,158.38,449.3,158.56z"/>
						<path d="M453.6,156.77c0.1-0.22,0.24-0.38,0.44-0.48c0.2-0.11,0.41-0.16,0.64-0.16l-0.06,0.97c-0.27-0.03-0.51,0.02-0.73,0.16
							c-0.22,0.14-0.34,0.37-0.36,0.69l-0.1,1.61l-0.88,0l0.21-3.37l0.88,0L453.6,156.77z"/>
					</g>
					<g>
						<path d="M436.03,178.96l-0.25-0.85l-1.97,0l-0.34,0.85l-1.02,0l1.97-4.71l1.17,0l1.4,4.71L436.03,178.96z M434.17,177.24
							l1.35,0l-0.57-1.93L434.17,177.24z"/>
						<path d="M439.52,175.5c0.37,0,0.67,0.12,0.9,0.37c0.23,0.25,0.33,0.59,0.3,1.02l-0.13,2.07l-0.88,0l0.12-1.96
							c0.01-0.22-0.04-0.4-0.15-0.52c-0.12-0.12-0.28-0.18-0.48-0.18c-0.23,0-0.41,0.07-0.56,0.21c-0.15,0.14-0.23,0.35-0.24,0.63
							l-0.11,1.82l-0.88,0l0.21-3.37l0.88,0l-0.02,0.38C438.71,175.66,439.05,175.5,439.52,175.5z"/>
						<path d="M442.31,176.56c-0.01,0.09,0.05,0.16,0.17,0.22c0.12,0.06,0.26,0.11,0.43,0.15c0.17,0.04,0.34,0.1,0.51,0.16
							c0.17,0.07,0.31,0.18,0.42,0.33c0.11,0.15,0.16,0.34,0.15,0.57c-0.02,0.35-0.17,0.61-0.44,0.8c-0.27,0.18-0.61,0.28-1,0.28
							c-0.7,0-1.16-0.27-1.39-0.8l0.79-0.42c0.08,0.29,0.3,0.44,0.64,0.44c0.31,0,0.48-0.1,0.49-0.29c0.01-0.09-0.05-0.16-0.17-0.22
							c-0.12-0.06-0.26-0.11-0.43-0.15c-0.17-0.04-0.34-0.1-0.51-0.17s-0.31-0.17-0.42-0.32c-0.11-0.15-0.16-0.33-0.15-0.55
							c0.02-0.33,0.16-0.59,0.42-0.78c0.26-0.19,0.57-0.29,0.94-0.29c0.28,0,0.53,0.06,0.75,0.19c0.22,0.12,0.39,0.3,0.51,0.53
							l-0.78,0.4c-0.09-0.23-0.27-0.34-0.53-0.34c-0.11,0-0.21,0.02-0.29,0.07C442.36,176.4,442.32,176.47,442.31,176.56z"/>
						<path d="M448.45,175.61l0.85,0l-1.21,3.37l-0.86,0l-0.52-2.04l-0.77,2.04l-0.86,0l-0.8-3.37l0.93,0l0.46,2.07l0.75-2.07
							l0.83,0l0.5,2.08L448.45,175.61z"/>
						<path d="M450.35,177.65c0.09,0.42,0.4,0.63,0.92,0.63c0.34,0,0.6-0.11,0.79-0.34l0.69,0.41c-0.37,0.48-0.88,0.72-1.53,0.72
							c-0.57,0-1.01-0.17-1.33-0.51c-0.32-0.34-0.47-0.76-0.43-1.27c0.03-0.51,0.23-0.93,0.58-1.27c0.36-0.34,0.8-0.51,1.33-0.51
							c0.5,0,0.9,0.17,1.21,0.51c0.3,0.34,0.44,0.76,0.41,1.27c-0.01,0.11-0.03,0.23-0.06,0.36L450.35,177.65z M450.37,176.97
							l1.74,0c-0.04-0.23-0.13-0.4-0.28-0.51c-0.15-0.11-0.33-0.17-0.53-0.17c-0.24,0-0.44,0.06-0.6,0.18
							C450.55,176.59,450.44,176.76,450.37,176.97z"/>
						<path d="M454.55,176.19c0.09-0.22,0.24-0.38,0.44-0.48c0.2-0.11,0.41-0.16,0.64-0.16l-0.06,0.97
							c-0.27-0.03-0.51,0.02-0.73,0.16c-0.22,0.14-0.34,0.37-0.36,0.69l-0.1,1.61l-0.88,0l0.21-3.37l0.88,0L454.55,176.19z"/>
						<path d="M456.85,178.9c-0.12,0.11-0.26,0.17-0.42,0.17s-0.29-0.06-0.4-0.17s-0.16-0.25-0.15-0.4s0.08-0.29,0.2-0.4
							c0.12-0.11,0.26-0.17,0.42-0.17s0.29,0.06,0.4,0.17s0.16,0.25,0.15,0.41S456.97,178.79,456.85,178.9z M457,176.49
							c-0.12,0.11-0.26,0.17-0.42,0.17s-0.29-0.06-0.4-0.17c-0.11-0.11-0.16-0.25-0.15-0.41c0.01-0.16,0.08-0.29,0.2-0.4
							c0.12-0.11,0.26-0.17,0.42-0.17s0.29,0.06,0.4,0.17s0.16,0.25,0.15,0.4C457.19,176.24,457.12,176.38,457,176.49z"/>
					</g>
					<g>
						<path d="M563.39,159.76c-0.72,0-1.3-0.24-1.74-0.71c-0.44-0.47-0.64-1.05-0.6-1.75c0.04-0.7,0.31-1.28,0.81-1.75
							c0.5-0.47,1.11-0.7,1.83-0.7c0.43,0,0.83,0.1,1.18,0.3c0.35,0.2,0.62,0.47,0.81,0.81l-0.84,0.46
							c-0.11-0.21-0.26-0.38-0.48-0.5c-0.21-0.12-0.45-0.18-0.73-0.18c-0.46,0-0.85,0.14-1.15,0.43c-0.3,0.29-0.47,0.66-0.5,1.12
							c-0.03,0.45,0.09,0.82,0.36,1.11c0.27,0.29,0.63,0.43,1.1,0.43c0.27,0,0.52-0.06,0.75-0.18c0.23-0.12,0.41-0.28,0.53-0.49
							l0.79,0.47c-0.23,0.34-0.53,0.61-0.91,0.81C564.24,159.66,563.83,159.76,563.39,159.76z"/>
						<path d="M568.82,156.3l0.88,0l-0.21,3.37l-0.88,0l0.03-0.4c-0.29,0.33-0.67,0.49-1.15,0.49c-0.46,0-0.84-0.17-1.14-0.52
							c-0.3-0.34-0.44-0.76-0.41-1.26c0.03-0.5,0.22-0.92,0.57-1.26c0.35-0.34,0.75-0.52,1.2-0.51c0.48,0,0.84,0.17,1.08,0.49
							L568.82,156.3z M567.05,158.67c0.17,0.18,0.39,0.27,0.66,0.27s0.51-0.09,0.7-0.27c0.19-0.18,0.29-0.4,0.31-0.68
							c0.02-0.28-0.06-0.51-0.23-0.68c-0.17-0.18-0.39-0.27-0.66-0.27s-0.5,0.09-0.69,0.26c-0.19,0.18-0.29,0.4-0.31,0.68
							C566.81,158.26,566.88,158.49,567.05,158.67z"/>
						<path d="M570.3,159.67l0.3-4.92l0.88,0l-0.3,4.92L570.3,159.67z"/>
						<path d="M573.61,159.77c-0.51,0-0.93-0.17-1.26-0.51c-0.32-0.34-0.47-0.76-0.44-1.27s0.23-0.92,0.6-1.27
							c0.36-0.34,0.8-0.51,1.32-0.51c0.33,0,0.63,0.08,0.89,0.24c0.26,0.16,0.46,0.37,0.58,0.63l-0.79,0.44
							c-0.06-0.14-0.16-0.25-0.29-0.33c-0.13-0.08-0.29-0.12-0.46-0.12c-0.26,0-0.49,0.08-0.67,0.26c-0.18,0.17-0.28,0.39-0.3,0.66
							c-0.02,0.26,0.06,0.48,0.22,0.66c0.16,0.17,0.38,0.26,0.64,0.26c0.18,0,0.34-0.04,0.48-0.12c0.14-0.08,0.25-0.19,0.33-0.33
							l0.74,0.43c-0.17,0.26-0.39,0.48-0.67,0.63C574.25,159.69,573.94,159.77,573.61,159.77z"/>
						<path d="M578.11,156.31l0.88,0l-0.21,3.37l-0.88,0l0.02-0.38c-0.23,0.32-0.58,0.47-1.05,0.47c-0.37,0-0.67-0.12-0.9-0.37
							c-0.23-0.25-0.33-0.59-0.3-1.02l0.13-2.07h0.88l-0.12,1.96c-0.01,0.22,0.04,0.4,0.15,0.52c0.12,0.12,0.28,0.18,0.48,0.18
							c0.23,0,0.41-0.07,0.56-0.21c0.15-0.14,0.23-0.35,0.24-0.63L578.11,156.31z"/>
						<path d="M579.59,159.68l0.3-4.92l0.88,0l-0.3,4.92L579.59,159.68z"/>
						<path d="M584.09,156.32l0.88,0l-0.21,3.37l-0.88,0l0.03-0.4c-0.29,0.33-0.67,0.49-1.15,0.49c-0.46,0-0.84-0.17-1.14-0.52
							c-0.3-0.34-0.44-0.76-0.41-1.26c0.03-0.5,0.22-0.92,0.57-1.26c0.35-0.34,0.75-0.51,1.2-0.51c0.48,0,0.84,0.17,1.08,0.49
							L584.09,156.32z M582.31,158.68c0.17,0.18,0.39,0.27,0.66,0.27c0.27,0,0.51-0.09,0.7-0.27c0.19-0.18,0.29-0.4,0.31-0.68
							c0.02-0.28-0.06-0.51-0.23-0.68c-0.17-0.18-0.39-0.27-0.67-0.27c-0.27,0-0.5,0.09-0.69,0.26c-0.19,0.18-0.29,0.4-0.31,0.68
							C582.07,158.28,582.15,158.51,582.31,158.68z"/>
						<path d="M587.67,157.16l-0.77,0l-0.09,1.4c-0.01,0.12,0.02,0.2,0.07,0.26s0.14,0.08,0.25,0.09c0.11,0.01,0.25,0.01,0.42,0
							l-0.05,0.79c-0.61,0.07-1.03,0.01-1.27-0.17c-0.24-0.18-0.34-0.5-0.31-0.96l0.09-1.4h-0.59l0.05-0.83h0.59l0.04-0.68l0.9-0.26
							l-0.06,0.94l0.77,0L587.67,157.16z"/>
						<path d="M588.86,158.36c0.09,0.42,0.4,0.63,0.92,0.63c0.34,0,0.6-0.11,0.79-0.33l0.69,0.41c-0.37,0.48-0.88,0.72-1.54,0.72
							c-0.57,0-1.01-0.17-1.33-0.51c-0.32-0.34-0.46-0.76-0.43-1.27c0.03-0.51,0.23-0.93,0.58-1.27c0.36-0.34,0.8-0.51,1.33-0.51
							c0.5,0,0.9,0.17,1.21,0.51c0.3,0.34,0.44,0.76,0.41,1.27c-0.01,0.11-0.03,0.23-0.06,0.36L588.86,158.36z M588.89,157.69
							l1.74,0c-0.04-0.23-0.13-0.4-0.28-0.51s-0.33-0.17-0.53-0.17c-0.24,0-0.44,0.06-0.6,0.18
							C589.07,157.31,588.95,157.47,588.89,157.69z"/>
					</g>
					<g>
						<path d="M471.09,78.38c-0.62,0-1.09-0.18-1.4-0.53c-0.31-0.35-0.4-0.81-0.27-1.37l0.85-3.56l0.72,0l-0.85,3.53
							c-0.09,0.37-0.05,0.67,0.12,0.9c0.17,0.22,0.47,0.34,0.89,0.34c0.43,0,0.79-0.11,1.07-0.34c0.28-0.23,0.47-0.52,0.56-0.89
							l0.85-3.53l0.72,0l-0.85,3.56c-0.15,0.6-0.44,1.06-0.87,1.4S471.68,78.38,471.09,78.38z"/>
						<path d="M475.46,78.38c-0.38,0-0.69-0.08-0.93-0.25c-0.24-0.17-0.39-0.39-0.47-0.68l0.62-0.31c0.03,0.18,0.12,0.32,0.27,0.44
							c0.15,0.11,0.35,0.17,0.59,0.17c0.23,0,0.42-0.04,0.58-0.13s0.26-0.21,0.3-0.38c0.03-0.11,0.01-0.21-0.05-0.29
							c-0.06-0.08-0.15-0.14-0.27-0.18c-0.12-0.04-0.25-0.09-0.39-0.15s-0.29-0.11-0.43-0.16c-0.15-0.06-0.27-0.12-0.38-0.2
							c-0.11-0.08-0.19-0.2-0.24-0.34c-0.05-0.14-0.05-0.31,0-0.51c0.08-0.31,0.26-0.56,0.55-0.76c0.29-0.2,0.62-0.29,0.99-0.29
							c0.66,0,1.1,0.27,1.3,0.8l-0.62,0.3c-0.08-0.32-0.33-0.48-0.75-0.48c-0.18,0-0.35,0.04-0.5,0.12s-0.25,0.21-0.29,0.37
							c-0.03,0.15,0.01,0.27,0.14,0.36c0.13,0.09,0.29,0.17,0.49,0.24c0.2,0.07,0.4,0.14,0.6,0.21c0.2,0.07,0.35,0.19,0.46,0.37
							c0.1,0.18,0.12,0.4,0.06,0.68c-0.08,0.34-0.27,0.6-0.56,0.79C476.24,78.29,475.88,78.38,475.46,78.38z"/>
						<path d="M480.26,74.36c0.58,0,1.02,0.2,1.31,0.59s0.36,0.87,0.22,1.43c-0.02,0.08-0.05,0.18-0.1,0.3l-3.25,0
							c-0.02,0.34,0.07,0.61,0.27,0.8c0.2,0.19,0.48,0.28,0.84,0.28c0.52,0,0.95-0.19,1.27-0.57l0.48,0.36
							c-0.21,0.27-0.49,0.47-0.82,0.62c-0.33,0.15-0.68,0.22-1.05,0.22c-0.61,0-1.07-0.2-1.37-0.6c-0.3-0.41-0.38-0.9-0.24-1.49
							c0.13-0.56,0.43-1.02,0.89-1.39C479.18,74.54,479.69,74.36,480.26,74.36z M478.58,76.09l2.59,0c0.04-0.36-0.04-0.64-0.22-0.82
							c-0.19-0.19-0.44-0.28-0.77-0.28c-0.36,0-0.69,0.1-0.97,0.29C478.93,75.48,478.72,75.75,478.58,76.09z"/>
						<path d="M490.5,72.94l-1.29,5.36l-0.72,0l1-4.17l-2.47,2.89l-0.09,0l-1.08-2.96l-1.02,4.23h-0.72l1.29-5.36h0.79l1.02,2.86
							l2.43-2.85H490.5z"/>
						<path d="M490.3,78.3l0.93-3.83l0.67,0l-0.93,3.83H490.3z M491.74,73.77c-0.12,0-0.22-0.04-0.29-0.13s-0.09-0.19-0.06-0.31
							c0.03-0.13,0.09-0.23,0.2-0.32c0.1-0.09,0.22-0.13,0.36-0.13c0.12,0,0.22,0.04,0.29,0.13s0.09,0.2,0.06,0.32
							c-0.03,0.13-0.1,0.23-0.21,0.32C491.99,73.73,491.87,73.77,491.74,73.77z"/>
						<path d="M496.22,74.47l-1.86,1.89l1.02,1.94h-0.75l-0.76-1.45l-1.42,1.44l-0.84,0l1.97-2l-0.96-1.83h0.75l0.7,1.33l1.31-1.33
							L496.22,74.47z"/>
						<path d="M498.44,74.38c0.58,0,1.02,0.2,1.31,0.59c0.29,0.4,0.36,0.87,0.22,1.43c-0.02,0.08-0.05,0.18-0.1,0.3l-3.25,0
							c-0.02,0.34,0.07,0.61,0.27,0.8s0.48,0.28,0.84,0.28c0.52,0,0.95-0.19,1.27-0.57l0.48,0.36c-0.21,0.27-0.49,0.47-0.82,0.62
							c-0.33,0.14-0.68,0.22-1.05,0.22c-0.61,0-1.07-0.2-1.37-0.61c-0.3-0.4-0.38-0.9-0.24-1.49c0.13-0.56,0.43-1.02,0.89-1.39
							C497.35,74.56,497.87,74.38,498.44,74.38z M496.76,76.11l2.59,0c0.04-0.36-0.04-0.64-0.22-0.82
							c-0.19-0.19-0.44-0.28-0.77-0.28c-0.36,0-0.69,0.1-0.97,0.29C497.11,75.49,496.9,75.76,496.76,76.11z"/>
						<path d="M504.8,72.95l0.67,0l-1.29,5.36l-0.67,0l0.13-0.55c-0.44,0.43-0.97,0.65-1.6,0.65c-0.55,0-0.98-0.21-1.27-0.63
							c-0.29-0.42-0.37-0.91-0.23-1.47c0.14-0.59,0.43-1.05,0.87-1.4c0.44-0.35,0.93-0.52,1.46-0.52c0.32,0,0.6,0.07,0.85,0.22
							c0.25,0.14,0.43,0.34,0.54,0.6L504.8,72.95z M501.38,77.36c0.2,0.27,0.5,0.41,0.9,0.41c0.39,0,0.75-0.12,1.07-0.38
							s0.53-0.57,0.62-0.96c0.1-0.43,0.05-0.78-0.17-1.03c-0.22-0.25-0.52-0.38-0.91-0.38c-0.37,0-0.72,0.12-1.04,0.35
							c-0.32,0.24-0.53,0.57-0.63,0.98C501.12,76.75,501.17,77.09,501.38,77.36z"/>
						<path d="M511.48,73.63l-2.4,0l-0.42,1.74l2.31,0l-0.17,0.67l-2.31,0l-0.55,2.27l-0.72,0l1.3-5.36l3.12,0L511.48,73.63z"/>
						<path d="M512.63,75.05c0.35-0.43,0.81-0.64,1.37-0.63l-0.17,0.7c-0.33-0.01-0.64,0.08-0.92,0.26
							c-0.29,0.19-0.48,0.49-0.58,0.91l0-0.01l-0.49,2.04h-0.67l0.93-3.83l0.67,0L512.63,75.05z"/>
						<path d="M517.72,74.49h0.67l-0.93,3.83l-0.67,0l0.13-0.54c-0.43,0.43-0.96,0.64-1.59,0.64c-0.55,0-0.98-0.21-1.27-0.63
							c-0.29-0.42-0.37-0.91-0.23-1.47c0.14-0.59,0.43-1.05,0.87-1.4s0.93-0.52,1.46-0.52c0.32,0,0.6,0.07,0.85,0.21
							c0.24,0.14,0.43,0.34,0.55,0.59L517.72,74.49z M514.67,77.37c0.2,0.27,0.5,0.41,0.9,0.41c0.39,0,0.75-0.13,1.07-0.38
							c0.32-0.25,0.52-0.57,0.62-0.96c0.11-0.43,0.05-0.77-0.17-1.02c-0.22-0.25-0.52-0.37-0.91-0.37c-0.37,0-0.71,0.12-1.03,0.35
							c-0.32,0.24-0.53,0.57-0.63,0.98C514.42,76.77,514.47,77.1,514.67,77.37z"/>
						<path d="M520.34,78.42c-0.58,0-1.02-0.21-1.33-0.62c-0.31-0.41-0.39-0.91-0.25-1.48c0.13-0.56,0.43-1.02,0.89-1.38
							c0.46-0.36,0.98-0.54,1.57-0.54c0.39,0,0.72,0.09,0.99,0.27c0.27,0.18,0.46,0.42,0.55,0.72l-0.62,0.31
							c-0.14-0.43-0.49-0.65-1.02-0.65c-0.39,0-0.75,0.12-1.07,0.38c-0.32,0.25-0.53,0.57-0.62,0.95c-0.1,0.39-0.05,0.72,0.15,0.99
							c0.2,0.27,0.49,0.4,0.88,0.4c0.26,0,0.51-0.06,0.74-0.18c0.23-0.12,0.42-0.29,0.57-0.5l0.52,0.35
							c-0.22,0.31-0.5,0.55-0.84,0.73C521.11,78.34,520.74,78.42,520.34,78.42z"/>
						<path d="M524.59,75.14l-0.5,2.07c-0.05,0.18-0.04,0.32,0.02,0.4c0.06,0.08,0.17,0.12,0.32,0.13c0.15,0,0.34,0,0.57-0.01
							l-0.15,0.6c-0.58,0.08-0.99,0.03-1.24-0.15c-0.25-0.18-0.31-0.5-0.2-0.96l0.5-2.07l-0.77,0l0.16-0.64l0.76,0l0.21-0.87
							l0.72-0.2l-0.26,1.07l1.04,0l-0.16,0.64L524.59,75.14z"/>
						<path d="M525.66,78.33l0.93-3.83l0.67,0l-0.93,3.83H525.66z M527.09,73.81c-0.12,0-0.22-0.04-0.29-0.13s-0.09-0.19-0.06-0.31
							c0.03-0.13,0.09-0.23,0.2-0.32c0.1-0.09,0.22-0.13,0.36-0.13c0.12,0,0.22,0.04,0.29,0.13s0.09,0.2,0.06,0.32
							c-0.03,0.13-0.1,0.23-0.21,0.32C527.35,73.76,527.23,73.81,527.09,73.81z"/>
						<path d="M529.24,78.43c-0.58,0-1.02-0.2-1.35-0.59c-0.32-0.39-0.41-0.89-0.27-1.49c0.15-0.59,0.46-1.06,0.94-1.42
							c0.48-0.35,1.01-0.53,1.57-0.53c0.55,0,0.99,0.2,1.3,0.59s0.4,0.88,0.26,1.48c-0.14,0.6-0.45,1.08-0.92,1.43
							C530.31,78.26,529.79,78.43,529.24,78.43z M529.34,77.78c0.38,0,0.73-0.12,1.06-0.37c0.33-0.25,0.54-0.58,0.64-1.01
							c0.1-0.41,0.04-0.74-0.17-0.98c-0.21-0.24-0.5-0.36-0.88-0.36c-0.37,0-0.71,0.13-1.04,0.37c-0.33,0.24-0.54,0.57-0.65,0.99
							c-0.1,0.43-0.04,0.76,0.17,1.01C528.68,77.67,528.97,77.79,529.34,77.78z"/>
						<path d="M534.9,74.41c0.46,0,0.79,0.14,1.01,0.43c0.22,0.29,0.27,0.67,0.16,1.15l-0.57,2.35l-0.67,0l0.56-2.31
							c0.08-0.32,0.05-0.56-0.07-0.73c-0.12-0.17-0.34-0.25-0.66-0.25c-0.33,0-0.63,0.1-0.89,0.31c-0.26,0.21-0.44,0.52-0.54,0.95
							l0-0.01l-0.49,2.04h-0.67l0.93-3.83l0.67,0l-0.12,0.51C533.9,74.61,534.35,74.41,534.9,74.41z"/>
						<path d="M543.11,72.99l0.72,0l-1.29,5.36l-0.72,0l0.58-2.41l-2.64,0l-0.58,2.41l-0.72,0l1.29-5.36l0.72,0l-0.55,2.27l2.64,0
							L543.11,72.99z"/>
						<path d="M546.32,74.42c0.58,0,1.02,0.2,1.31,0.6c0.29,0.4,0.36,0.87,0.22,1.43c-0.02,0.08-0.05,0.18-0.1,0.3l-3.25,0
							c-0.02,0.34,0.07,0.61,0.27,0.8s0.48,0.28,0.84,0.28c0.52,0,0.95-0.19,1.27-0.57l0.48,0.36c-0.21,0.27-0.49,0.47-0.82,0.62
							c-0.33,0.14-0.68,0.22-1.05,0.22c-0.61,0-1.07-0.2-1.37-0.61c-0.3-0.4-0.38-0.9-0.24-1.49c0.13-0.56,0.43-1.02,0.89-1.39
							C545.24,74.6,545.75,74.42,546.32,74.42z M544.64,76.15l2.59,0c0.04-0.36-0.04-0.64-0.22-0.82c-0.19-0.19-0.44-0.28-0.77-0.28
							c-0.36,0-0.69,0.1-0.97,0.29C544.99,75.54,544.78,75.81,544.64,76.15z"/>
						<path d="M549.62,75.08c0.35-0.43,0.81-0.64,1.37-0.63l-0.17,0.7c-0.33-0.01-0.64,0.08-0.92,0.26
							c-0.29,0.18-0.48,0.49-0.58,0.91l0-0.01l-0.49,2.04l-0.67,0l0.93-3.83l0.67,0L549.62,75.08z"/>
						<path d="M553.26,74.43c0.58,0,1.02,0.2,1.31,0.59c0.29,0.4,0.36,0.87,0.22,1.43c-0.02,0.08-0.05,0.18-0.1,0.3l-3.25,0
							c-0.02,0.34,0.07,0.61,0.27,0.8c0.2,0.19,0.48,0.28,0.84,0.28c0.52,0,0.95-0.19,1.27-0.56l0.48,0.36
							c-0.21,0.27-0.49,0.47-0.82,0.62c-0.33,0.15-0.68,0.22-1.05,0.22c-0.61,0-1.07-0.2-1.37-0.6c-0.3-0.4-0.38-0.9-0.24-1.49
							c0.13-0.56,0.43-1.02,0.89-1.39C552.18,74.61,552.69,74.43,553.26,74.43z M551.58,76.16l2.59,0c0.04-0.36-0.04-0.64-0.22-0.82
							c-0.19-0.19-0.44-0.28-0.77-0.28c-0.36,0-0.69,0.1-0.97,0.29C551.93,75.55,551.72,75.82,551.58,76.16z"/>
						<path d="M558.02,73.97l2.86,1.38l-0.08,0.33l-0.08,0.31l-3.53,1.38l0.19-0.75l2.66-0.98l-2.19-0.99L558.02,73.97z"/>
						<path d="M562.09,73.97l2.86,1.38l-0.08,0.33l-0.08,0.31l-3.53,1.38l0.19-0.75l2.66-0.98l-2.19-0.99L562.09,73.97z"/>
						<path d="M566.15,73.98l2.86,1.38l-0.08,0.33L568.86,76l-3.53,1.38l0.19-0.75l2.66-0.98l-2.19-0.99L566.15,73.98z"/>
					</g>
					<g>
						<path d="M465.57,203.66l-0.07,0.28c-0.15,0.63-0.48,1.15-1,1.56s-1.13,0.62-1.83,0.62c-0.76,0-1.32-0.25-1.7-0.75
							s-0.48-1.11-0.31-1.81c0.17-0.69,0.53-1.25,1.1-1.7c0.57-0.45,1.21-0.67,1.92-0.67c0.47,0,0.87,0.1,1.2,0.31
							c0.33,0.21,0.57,0.5,0.73,0.87l-0.59,0.3c-0.26-0.58-0.73-0.87-1.41-0.87c-0.56,0-1.05,0.17-1.49,0.52
							c-0.43,0.35-0.71,0.79-0.83,1.32c-0.13,0.54-0.06,0.98,0.21,1.33c0.26,0.35,0.68,0.53,1.26,0.53c0.48,0,0.9-0.12,1.26-0.35
							c0.35-0.23,0.61-0.54,0.76-0.91l-1.76,0l0.14-0.57L465.57,203.66z"/>
						<path d="M468.12,202.53c0.52,0,0.91,0.18,1.17,0.53c0.26,0.35,0.32,0.78,0.19,1.27c-0.01,0.07-0.04,0.16-0.09,0.27l-2.89,0
							c-0.02,0.3,0.06,0.54,0.24,0.71c0.18,0.17,0.43,0.25,0.75,0.25c0.46,0,0.84-0.17,1.13-0.5l0.43,0.32
							c-0.19,0.24-0.43,0.42-0.73,0.55c-0.3,0.13-0.61,0.19-0.93,0.19c-0.54,0-0.95-0.18-1.22-0.54c-0.27-0.36-0.34-0.8-0.22-1.32
							c0.12-0.5,0.38-0.91,0.79-1.23C467.15,202.69,467.61,202.53,468.12,202.53z M466.63,204.07l2.3,0
							c0.03-0.32-0.03-0.57-0.2-0.73c-0.17-0.17-0.39-0.25-0.68-0.25c-0.32,0-0.61,0.09-0.86,0.26
							C466.93,203.52,466.75,203.76,466.63,204.07z"/>
						<path d="M471.3,203.19l-0.44,1.84c-0.04,0.16-0.04,0.28,0.02,0.35c0.06,0.07,0.15,0.11,0.29,0.11c0.14,0,0.3,0,0.51-0.01
							l-0.13,0.53c-0.52,0.07-0.88,0.02-1.1-0.13c-0.22-0.16-0.28-0.44-0.18-0.85l0.44-1.84l-0.68,0l0.15-0.57h0.68l0.19-0.78
							l0.64-0.18l-0.23,0.95l0.93,0l-0.14,0.57L471.3,203.19z"/>
						<path d="M477.7,202.63h0.6l-0.82,3.4l-0.6,0l0.12-0.48c-0.38,0.38-0.86,0.57-1.42,0.57c-0.49,0-0.87-0.19-1.13-0.56
							s-0.33-0.81-0.21-1.31c0.12-0.52,0.38-0.94,0.78-1.25c0.39-0.31,0.82-0.46,1.29-0.46c0.29,0,0.54,0.06,0.75,0.19
							c0.22,0.12,0.38,0.3,0.49,0.53L477.7,202.63z M474.99,205.19c0.18,0.24,0.45,0.36,0.8,0.36c0.35,0,0.67-0.11,0.95-0.34
							c0.28-0.23,0.47-0.51,0.55-0.86c0.1-0.38,0.05-0.69-0.15-0.91c-0.2-0.22-0.47-0.33-0.81-0.33c-0.33,0-0.63,0.1-0.92,0.32
							c-0.29,0.21-0.47,0.5-0.56,0.87C474.76,204.65,474.8,204.94,474.99,205.19z"/>
						<path d="M481.19,206.04l-0.22-4.77l0.63,0l0.17,3.94l2.12-3.94h0.65l0.23,3.94l2.07-3.93h0.68l-2.54,4.77l-0.75,0l-0.24-3.83
							l-2.08,3.83L481.19,206.04z"/>
						<path d="M486.89,206.04l0.82-3.4l0.6,0l-0.82,3.4H486.89z M488.16,202.02c-0.11,0-0.2-0.04-0.26-0.12s-0.08-0.17-0.05-0.28
							c0.02-0.11,0.08-0.21,0.18-0.29c0.09-0.08,0.2-0.12,0.32-0.12c0.11,0,0.2,0.04,0.26,0.12c0.06,0.08,0.08,0.17,0.05,0.28
							c-0.03,0.11-0.09,0.21-0.18,0.28C488.39,201.98,488.28,202.02,488.16,202.02z"/>
						<path d="M492.44,201.28l0.6,0l-1.15,4.77l-0.6,0l0.12-0.49c-0.39,0.39-0.86,0.58-1.42,0.58c-0.49,0-0.87-0.19-1.13-0.56
							c-0.26-0.37-0.33-0.81-0.21-1.31c0.12-0.52,0.38-0.94,0.78-1.25c0.39-0.31,0.82-0.46,1.29-0.46c0.29,0,0.54,0.06,0.76,0.19
							c0.22,0.13,0.38,0.31,0.48,0.54L492.44,201.28z M489.39,205.2c0.18,0.24,0.45,0.36,0.8,0.36c0.35,0,0.67-0.11,0.95-0.33
							c0.29-0.22,0.47-0.51,0.55-0.85c0.09-0.39,0.04-0.69-0.15-0.92c-0.2-0.22-0.46-0.33-0.81-0.33c-0.33,0-0.64,0.11-0.92,0.32
							c-0.29,0.21-0.47,0.5-0.56,0.87C489.16,204.66,489.21,204.96,489.39,205.2z"/>
						<path d="M496.5,202.65l0.58,0l-0.79,3.26c-0.12,0.52-0.37,0.91-0.75,1.19c-0.38,0.27-0.82,0.41-1.32,0.41
							c-0.37,0-0.68-0.07-0.94-0.22c-0.26-0.15-0.44-0.35-0.55-0.61l0.55-0.27c0.13,0.37,0.47,0.55,1.01,0.55
							c0.38,0,0.69-0.09,0.93-0.27c0.25-0.18,0.41-0.44,0.49-0.77l0.1-0.4c-0.37,0.4-0.83,0.6-1.38,0.6c-0.53,0-0.92-0.18-1.17-0.54
							c-0.26-0.36-0.33-0.79-0.21-1.3c0.11-0.5,0.36-0.91,0.76-1.23c0.4-0.32,0.83-0.48,1.3-0.47c0.29,0,0.54,0.06,0.76,0.19
							c0.22,0.12,0.38,0.31,0.48,0.54L496.5,202.65z M494.59,205.53c0.33,0,0.64-0.1,0.91-0.3c0.28-0.2,0.46-0.47,0.56-0.8
							l0.04-0.17c0.06-0.35-0.01-0.62-0.21-0.83c-0.2-0.21-0.46-0.31-0.78-0.31c-0.33,0-0.64,0.11-0.93,0.32
							c-0.29,0.22-0.47,0.5-0.55,0.86c-0.08,0.35-0.03,0.64,0.15,0.88S494.24,205.53,494.59,205.53z"/>
						<path d="M499.59,202.56c0.52,0,0.91,0.18,1.17,0.53c0.26,0.35,0.32,0.78,0.19,1.27c-0.01,0.07-0.04,0.16-0.09,0.27l-2.89,0
							c-0.02,0.3,0.06,0.54,0.24,0.71c0.18,0.17,0.43,0.25,0.75,0.25c0.46,0,0.84-0.17,1.13-0.5l0.43,0.32
							c-0.19,0.24-0.43,0.42-0.73,0.55s-0.61,0.19-0.93,0.19c-0.54,0-0.95-0.18-1.22-0.54c-0.27-0.36-0.34-0.8-0.22-1.32
							c0.12-0.5,0.38-0.91,0.79-1.23C498.62,202.72,499.08,202.56,499.59,202.56z M498.09,204.1l2.3,0c0.03-0.32-0.03-0.57-0.2-0.73
							s-0.39-0.25-0.68-0.25c-0.32,0-0.61,0.09-0.86,0.26C498.4,203.55,498.21,203.79,498.09,204.1z"/>
						<path d="M502.77,203.22l-0.44,1.84c-0.04,0.16-0.04,0.28,0.02,0.35s0.15,0.11,0.29,0.11c0.14,0,0.3,0,0.51-0.01l-0.13,0.53
							c-0.52,0.07-0.88,0.02-1.1-0.13c-0.22-0.16-0.28-0.44-0.18-0.85l0.44-1.84h-0.68l0.15-0.57l0.68,0l0.19-0.78l0.64-0.18
							l-0.23,0.95l0.93,0l-0.14,0.57L502.77,203.22z"/>
						<path d="M506.59,202.55c0.12-0.47,0.33-0.82,0.64-1.05c0.31-0.23,0.71-0.33,1.2-0.3l-0.15,0.57
							c-0.59-0.05-0.95,0.21-1.09,0.78l-0.03,0.1l0.91,0l-0.14,0.57l-0.91,0l-0.69,2.83l-0.6,0l0.69-2.83l-0.56,0l0.14-0.57l0.56,0
							L506.59,202.55z"/>
						<path d="M509.18,206.15c-0.51,0-0.91-0.18-1.2-0.53c-0.29-0.35-0.37-0.79-0.24-1.33c0.13-0.53,0.41-0.95,0.84-1.26
							c0.43-0.31,0.9-0.47,1.4-0.47c0.49,0,0.88,0.18,1.16,0.53s0.35,0.79,0.23,1.31c-0.13,0.54-0.4,0.96-0.82,1.27
							C510.13,205.99,509.67,206.15,509.18,206.15z M509.26,205.57c0.34,0,0.65-0.11,0.94-0.33c0.29-0.22,0.48-0.52,0.57-0.9
							c0.09-0.37,0.04-0.66-0.15-0.87c-0.19-0.22-0.45-0.32-0.78-0.32c-0.33,0-0.64,0.11-0.92,0.33c-0.29,0.21-0.48,0.51-0.58,0.88
							c-0.09,0.38-0.04,0.68,0.15,0.9C508.68,205.47,508.94,205.58,509.26,205.57z"/>
						<path d="M512.99,203.16c0.31-0.39,0.72-0.57,1.22-0.56l-0.15,0.62c-0.29-0.01-0.57,0.07-0.82,0.23
							c-0.25,0.17-0.42,0.43-0.51,0.81l0-0.01l-0.44,1.81h-0.6l0.82-3.4l0.6,0L512.99,203.16z"/>
						<path d="M517.33,203.24l-0.44,1.84c-0.04,0.16-0.04,0.28,0.02,0.35s0.15,0.11,0.29,0.11c0.14,0,0.3,0,0.51-0.01l-0.13,0.53
							c-0.52,0.07-0.88,0.02-1.1-0.13c-0.22-0.16-0.28-0.44-0.18-0.85l0.44-1.84h-0.68l0.15-0.57l0.68,0l0.19-0.78l0.64-0.18
							l-0.23,0.95l0.93,0l-0.14,0.57L517.33,203.24z"/>
						<path d="M520.81,202.58c0.41,0,0.7,0.13,0.9,0.38c0.19,0.25,0.24,0.6,0.14,1.02l-0.5,2.09l-0.6,0l0.5-2.06
							c0.07-0.28,0.05-0.5-0.06-0.65c-0.11-0.15-0.31-0.22-0.58-0.22c-0.3,0-0.56,0.09-0.79,0.27c-0.23,0.18-0.39,0.47-0.48,0.85
							l0-0.01l-0.44,1.81l-0.6,0l1.15-4.77l0.6,0l-0.44,1.81C519.92,202.76,520.33,202.58,520.81,202.58z"/>
						<path d="M522.19,206.07l0.82-3.4l0.6,0l-0.82,3.4H522.19z M523.46,202.05c-0.11,0-0.2-0.04-0.26-0.12s-0.08-0.17-0.05-0.28
							c0.02-0.11,0.08-0.21,0.18-0.29c0.09-0.08,0.2-0.12,0.32-0.12c0.11,0,0.2,0.04,0.26,0.12c0.06,0.08,0.08,0.17,0.05,0.28
							c-0.03,0.11-0.09,0.21-0.18,0.28C523.69,202.01,523.58,202.05,523.46,202.05z"/>
						<path d="M524.96,206.17c-0.34,0-0.62-0.08-0.83-0.22c-0.21-0.15-0.35-0.35-0.42-0.6l0.56-0.27c0.03,0.16,0.11,0.29,0.24,0.39
							c0.13,0.1,0.31,0.15,0.53,0.15c0.2,0,0.38-0.04,0.51-0.12c0.14-0.08,0.23-0.19,0.27-0.33c0.02-0.1,0.01-0.19-0.05-0.25
							s-0.13-0.12-0.24-0.16c-0.1-0.04-0.22-0.08-0.35-0.13c-0.13-0.05-0.25-0.1-0.38-0.15c-0.13-0.05-0.24-0.11-0.34-0.18
							c-0.1-0.07-0.17-0.17-0.21-0.3c-0.04-0.13-0.04-0.28,0-0.45c0.07-0.28,0.23-0.5,0.49-0.68c0.26-0.17,0.55-0.26,0.88-0.26
							c0.59,0,0.98,0.24,1.16,0.71l-0.55,0.27c-0.07-0.29-0.3-0.43-0.67-0.43c-0.16,0-0.31,0.04-0.45,0.11
							c-0.14,0.07-0.22,0.18-0.26,0.33c-0.03,0.13,0.01,0.24,0.12,0.32c0.11,0.08,0.26,0.15,0.43,0.21s0.35,0.12,0.53,0.18
							c0.18,0.06,0.31,0.17,0.41,0.33c0.09,0.16,0.11,0.36,0.05,0.6c-0.07,0.3-0.24,0.54-0.5,0.7
							C525.66,206.08,525.34,206.17,524.96,206.17z"/>
						<path d="M530.34,206.17c-0.52,0-0.91-0.18-1.18-0.55c-0.27-0.37-0.35-0.8-0.22-1.32c0.12-0.5,0.38-0.91,0.79-1.23
							c0.41-0.32,0.88-0.48,1.39-0.48c0.35,0,0.64,0.08,0.88,0.24c0.24,0.16,0.41,0.38,0.49,0.64l-0.55,0.27
							c-0.13-0.39-0.43-0.58-0.91-0.58c-0.35,0-0.67,0.11-0.95,0.34c-0.28,0.22-0.47,0.51-0.55,0.85c-0.09,0.35-0.04,0.64,0.13,0.88
							c0.17,0.24,0.44,0.35,0.79,0.35c0.24,0,0.45-0.05,0.66-0.16c0.2-0.11,0.37-0.25,0.51-0.44l0.46,0.31
							c-0.19,0.28-0.44,0.49-0.75,0.65C531.03,206.09,530.7,206.17,530.34,206.17z"/>
						<path d="M536.13,202.68l0.6,0l-0.82,3.4h-0.6l0.12-0.48c-0.38,0.38-0.86,0.57-1.42,0.57c-0.49,0-0.87-0.19-1.13-0.56
							s-0.33-0.81-0.21-1.31c0.12-0.52,0.38-0.94,0.78-1.25c0.39-0.31,0.82-0.47,1.29-0.46c0.29,0,0.54,0.06,0.75,0.19
							c0.22,0.12,0.38,0.3,0.49,0.53L536.13,202.68z M533.42,205.24c0.18,0.24,0.45,0.36,0.8,0.36c0.35,0,0.67-0.11,0.95-0.34
							c0.28-0.22,0.47-0.51,0.55-0.86c0.1-0.38,0.05-0.69-0.15-0.91c-0.2-0.22-0.47-0.33-0.81-0.33c-0.33,0-0.63,0.1-0.92,0.32
							c-0.29,0.21-0.47,0.5-0.56,0.87C533.19,204.7,533.24,205,533.42,205.24z"/>
						<path d="M536.83,206.09l0.5-2.07l0.7-2.9l0.61-0.04l-1.2,5.01L536.83,206.09z"/>
						<path d="M539.99,206.18c-0.52,0-0.91-0.18-1.18-0.55c-0.27-0.36-0.35-0.8-0.22-1.32c0.12-0.5,0.38-0.91,0.79-1.23
							c0.41-0.32,0.88-0.48,1.39-0.48c0.35,0,0.64,0.08,0.88,0.24c0.24,0.16,0.41,0.38,0.49,0.64l-0.55,0.27
							c-0.13-0.39-0.43-0.58-0.91-0.58c-0.35,0-0.67,0.11-0.95,0.34c-0.28,0.22-0.47,0.51-0.55,0.85c-0.09,0.35-0.04,0.64,0.13,0.88
							c0.17,0.24,0.44,0.35,0.79,0.35c0.24,0,0.45-0.05,0.66-0.16c0.2-0.11,0.37-0.26,0.51-0.44l0.46,0.32
							c-0.19,0.28-0.44,0.49-0.75,0.64C540.68,206.1,540.35,206.18,539.99,206.18z"/>
						<path d="M545.36,202.69l0.6,0l-0.82,3.4l-0.6,0l0.11-0.45c-0.32,0.36-0.73,0.54-1.21,0.54c-0.41,0-0.71-0.13-0.9-0.38
							c-0.19-0.25-0.24-0.6-0.14-1.02l0.5-2.09h0.6l-0.5,2.06c-0.07,0.28-0.05,0.5,0.06,0.65c0.11,0.15,0.31,0.23,0.58,0.23
							c0.3,0,0.56-0.09,0.8-0.27c0.23-0.18,0.4-0.47,0.48-0.85l0,0.01L545.36,202.69z"/>
						<path d="M546.05,206.1l0.5-2.07l0.7-2.9l0.61-0.04l-1.2,5.01H546.05z"/>
						<path d="M551.27,202.7h0.6l-0.82,3.4l-0.6,0l0.12-0.48c-0.38,0.38-0.86,0.57-1.42,0.57c-0.49,0-0.87-0.19-1.13-0.56
							c-0.26-0.37-0.33-0.81-0.21-1.31c0.12-0.52,0.38-0.94,0.78-1.25c0.39-0.31,0.82-0.46,1.29-0.46c0.29,0,0.54,0.06,0.75,0.19
							c0.22,0.12,0.38,0.3,0.49,0.53L551.27,202.7z M548.55,205.25c0.18,0.24,0.45,0.36,0.8,0.36c0.35,0,0.67-0.11,0.95-0.34
							c0.28-0.23,0.47-0.51,0.55-0.86c0.1-0.38,0.05-0.69-0.15-0.91c-0.2-0.22-0.47-0.33-0.81-0.33c-0.33,0-0.63,0.11-0.92,0.32
							c-0.29,0.21-0.47,0.5-0.56,0.87C548.33,204.72,548.37,205.01,548.55,205.25z"/>
						<path d="M553.6,203.27l-0.44,1.84c-0.04,0.16-0.04,0.28,0.02,0.35s0.15,0.11,0.29,0.11c0.14,0,0.3,0,0.51-0.01l-0.13,0.53
							c-0.52,0.07-0.88,0.02-1.1-0.13c-0.22-0.16-0.28-0.44-0.18-0.85l0.44-1.84h-0.68l0.15-0.57h0.68l0.19-0.78l0.64-0.18
							l-0.23,0.95l0.93,0l-0.14,0.57L553.6,203.27z"/>
						<path d="M556.04,206.19c-0.51,0-0.91-0.17-1.2-0.53c-0.29-0.35-0.37-0.79-0.24-1.33c0.13-0.53,0.41-0.95,0.84-1.26
							c0.43-0.31,0.9-0.47,1.4-0.47c0.49,0,0.88,0.18,1.16,0.53s0.35,0.79,0.23,1.31c-0.13,0.54-0.4,0.96-0.82,1.27
							C556.99,206.04,556.54,206.2,556.04,206.19z M556.13,205.62c0.34,0,0.65-0.11,0.94-0.33c0.29-0.22,0.48-0.52,0.57-0.9
							c0.09-0.37,0.04-0.66-0.15-0.87c-0.19-0.22-0.45-0.32-0.78-0.32c-0.33,0-0.64,0.11-0.92,0.33c-0.29,0.21-0.48,0.51-0.58,0.88
							c-0.09,0.38-0.04,0.68,0.15,0.9C555.54,205.51,555.8,205.62,556.13,205.62z"/>
						<path d="M559.85,203.2c0.31-0.39,0.72-0.57,1.22-0.56l-0.15,0.62c-0.29-0.01-0.57,0.07-0.82,0.23
							c-0.25,0.17-0.42,0.43-0.51,0.81l0-0.01l-0.44,1.81h-0.6l0.82-3.4l0.6,0L559.85,203.2z"/>
					</g>
					<g>
						<path d="M451.01,105.57l0.04-0.62l2.71,0l-0.04,0.62L451.01,105.57z"/>
						<path d="M456.7,104.49c0.39,0.07,0.71,0.24,0.94,0.51c0.24,0.26,0.34,0.6,0.32,1c-0.03,0.5-0.23,0.89-0.59,1.18
							c-0.36,0.29-0.79,0.43-1.29,0.43c-0.4,0-0.74-0.09-1.04-0.27c-0.3-0.18-0.5-0.44-0.61-0.77l0.6-0.34
							c0.12,0.47,0.49,0.71,1.09,0.71c0.32,0,0.59-0.08,0.8-0.25c0.21-0.17,0.33-0.4,0.35-0.7c0.02-0.3-0.07-0.53-0.26-0.7
							c-0.19-0.17-0.45-0.25-0.77-0.25h-0.18l-0.25-0.42l1.3-1.6l-2.31,0l0.04-0.64l3.12,0l-0.04,0.6L456.7,104.49z"/>
					</g>
					<g>
						<path d="M454.39,121.67l-0.04,0.64l-0.63,0l-0.06,0.97l-0.69,0l0.06-0.97l-2.66,0l0.04-0.64l2.08-3.51h0.74l-2.08,3.51l1.91,0
							l0.09-1.45l0.69,0l-0.09,1.45L454.39,121.67z"/>
					</g>
					<g>
						<path d="M528.81,105.65l0.04-0.62l2.71,0l-0.04,0.62L528.81,105.65z"/>
						<path d="M534.16,104.46c0.49,0,0.9,0.14,1.22,0.43c0.32,0.29,0.47,0.68,0.44,1.18c-0.03,0.5-0.23,0.89-0.59,1.18
							c-0.36,0.29-0.79,0.43-1.29,0.43c-0.4,0-0.75-0.09-1.05-0.28c-0.3-0.19-0.5-0.46-0.6-0.82l0.61-0.33
							c0.05,0.25,0.18,0.44,0.37,0.57c0.19,0.13,0.43,0.19,0.72,0.19c0.33,0,0.6-0.08,0.81-0.25c0.21-0.17,0.33-0.4,0.35-0.7
							c0.02-0.3-0.07-0.53-0.26-0.7c-0.19-0.17-0.45-0.25-0.77-0.25l-1.47,0l0.35-2.66l2.86,0l-0.04,0.64l-2.22,0l-0.18,1.36H534.16
							z"/>
					</g>
					<g>
						<path d="M531.13,120.71c0.25,0.13,0.43,0.3,0.56,0.51c0.13,0.22,0.19,0.46,0.17,0.73c-0.03,0.47-0.22,0.84-0.57,1.1
							c-0.35,0.26-0.79,0.4-1.31,0.4c-0.52,0-0.94-0.13-1.25-0.4c-0.32-0.27-0.46-0.63-0.43-1.1c0.02-0.27,0.1-0.52,0.26-0.73
							c0.16-0.21,0.37-0.38,0.63-0.51c-0.41-0.26-0.6-0.64-0.57-1.12c0.03-0.46,0.21-0.82,0.54-1.07s0.72-0.38,1.16-0.38
							c0.45,0,0.82,0.13,1.12,0.38c0.3,0.25,0.44,0.61,0.41,1.07C531.81,120.07,531.58,120.44,531.13,120.71z M530.03,122.8
							c0.33,0,0.6-0.08,0.81-0.23c0.21-0.15,0.32-0.37,0.34-0.66c0.02-0.28-0.07-0.5-0.26-0.66c-0.19-0.15-0.45-0.23-0.78-0.23
							c-0.33,0-0.6,0.08-0.81,0.23c-0.21,0.15-0.32,0.37-0.34,0.66c-0.02,0.29,0.07,0.51,0.26,0.66
							C529.44,122.72,529.7,122.8,530.03,122.8z M530.28,118.79c-0.26,0-0.49,0.07-0.67,0.21c-0.19,0.14-0.29,0.34-0.3,0.61
							c-0.02,0.26,0.06,0.46,0.23,0.6c0.17,0.14,0.38,0.22,0.64,0.22c0.26,0,0.48-0.07,0.67-0.22c0.19-0.14,0.29-0.34,0.3-0.6
							c0.02-0.27-0.06-0.47-0.22-0.61C530.76,118.85,530.54,118.79,530.28,118.79z"/>
					</g>
					<g>
						<g>
							<g>
								<line class="st142" x1="502.58" y1="110.3" x2="502.3" y2="114.87"/>
								<line class="st142" x1="504.76" y1="112.59" x2="500.12" y2="112.59"/>
							</g>
							<polyline class="st143" points="516.93,111.92 514.46,114.21 512.28,111.92 							"/>
						</g>
						<line class="st144" x1="447.14" y1="113" x2="491.98" y2="113.04"/>
						<line class="st144" x1="524.52" y1="113.07" x2="569.36" y2="113.11"/>
						<g>
							<line class="st144" x1="574.51" y1="112.25" x2="577.93" y2="112.26"/>
							<line class="st144" x1="574.4" y1="114.04" x2="577.82" y2="114.05"/>
						</g>
					</g>
					<g>
						<path d="M584.19,113.76c0.01-0.21,0.09-0.41,0.23-0.6c0.14-0.19,0.29-0.35,0.45-0.46c0.16-0.12,0.31-0.25,0.45-0.41
							c0.14-0.16,0.21-0.32,0.22-0.48c0.01-0.17-0.04-0.3-0.15-0.39s-0.27-0.14-0.48-0.14c-0.41,0-0.71,0.21-0.91,0.64l-0.83-0.49
							c0.17-0.36,0.42-0.63,0.75-0.82c0.33-0.19,0.69-0.29,1.09-0.29c0.44,0,0.82,0.13,1.13,0.38c0.31,0.25,0.45,0.6,0.42,1.04
							c-0.01,0.2-0.07,0.39-0.16,0.56c-0.1,0.17-0.21,0.32-0.34,0.44c-0.13,0.12-0.25,0.24-0.38,0.34
							c-0.13,0.11-0.24,0.22-0.33,0.34c-0.09,0.11-0.14,0.23-0.15,0.34L584.19,113.76z M585.04,115.37
							c-0.13,0.12-0.28,0.18-0.45,0.18c-0.17,0-0.31-0.06-0.43-0.18s-0.17-0.26-0.16-0.43c0.01-0.17,0.08-0.31,0.21-0.43
							c0.13-0.12,0.28-0.18,0.45-0.18c0.17,0,0.31,0.06,0.43,0.18c0.12,0.12,0.17,0.26,0.16,0.43
							C585.24,115.1,585.17,115.25,585.04,115.37z"/>
					</g>
				</g>
				<g>
					<g class="st11">
						<g>
							<polygon class="st145" points="401.54,44.28 392.16,48.62 392.27,48.55 401.64,44.21 							"/>
						</g>
						<path class="st16" d="M379.78,41.62c-0.83-5.22-1.66-10.44-2.5-15.73l-9.37,4.34c0.84,5.29,1.67,10.51,2.5,15.73
							c3.67,0.79,6.87,2.93,9.64,6.43l9.37-4.34C386.66,44.55,383.45,42.41,379.78,41.62z"/>
						<g>
							<path class="st25" d="M377.29,25.89c3.92,0.48,7.72,1.89,11.45,4.27c4.13,2.63,7.71,6.15,10.79,10.55
								c-3.38,2.45-6.73,4.89-10.11,7.34c-2.77-3.5-5.97-5.64-9.64-6.43C378.95,36.4,378.13,31.18,377.29,25.89z"/>
						</g>
						<g class="st11">
							<defs>
								<path id="SVGID_00000132776539924098061230000014967180824445050765_" class="st11" d="M364.03,46.71l9.37-4.34
									c0.93-0.43,1.96-0.75,3.09-0.96l-9.37,4.34C366,45.96,364.97,46.28,364.03,46.71z"/>
							</defs>
							<clipPath id="SVGID_00000097486557833518563790000017651719814763916684_">
								<use xlink:href="#SVGID_00000132776539924098061230000014967180824445050765_"  style="overflow:visible;"/>
							</clipPath>
							<g style="clip-path:url(#SVGID_00000097486557833518563790000017651719814763916684_);enable-background:new    ;">
								<path class="st147" d="M376.49,41.41l-9.37,4.34c-1.12,0.21-2.15,0.53-3.09,0.96l9.37-4.34
									C374.34,41.94,375.37,41.62,376.49,41.41"/>
							</g>
						</g>
						<g>
							<path class="st135" d="M387.63,71.77c0.34-0.16,0.67-0.35,0.99-0.54c0.07-0.04,0.13-0.08,0.2-0.12
								c0.31-0.2,0.61-0.42,0.89-0.66c0.05-0.04,0.1-0.09,0.15-0.13c0.26-0.23,0.52-0.47,0.76-0.73c0.03-0.04,0.07-0.07,0.11-0.11
								c0.26-0.28,0.49-0.58,0.72-0.89c0.02-0.03,0.05-0.06,0.08-0.09c0.03-0.05,0.06-0.1,0.1-0.15c0.11-0.16,0.22-0.33,0.32-0.5
								c0.06-0.1,0.12-0.19,0.17-0.29c0.11-0.19,0.21-0.39,0.31-0.59c0.04-0.08,0.09-0.16,0.12-0.25c0.13-0.29,0.26-0.58,0.38-0.89
								c0.02-0.05,0.03-0.1,0.05-0.15c0.09-0.26,0.18-0.52,0.26-0.8c0.03-0.11,0.06-0.22,0.09-0.33c0.06-0.22,0.11-0.44,0.16-0.66
								c0.03-0.13,0.05-0.26,0.08-0.39c0.04-0.22,0.08-0.44,0.11-0.67c0.02-0.13,0.04-0.26,0.05-0.4c0.03-0.24,0.05-0.49,0.06-0.74
								c0.01-0.12,0.02-0.24,0.02-0.36c0.02-0.37,0.02-0.75,0.01-1.13c-0.01-0.34-0.03-0.68-0.05-1.03
								c-0.01-0.11-0.02-0.23-0.03-0.34c-0.02-0.23-0.04-0.46-0.07-0.68c-0.02-0.13-0.04-0.27-0.06-0.4
								c-0.03-0.2-0.06-0.41-0.1-0.61c-0.03-0.14-0.06-0.29-0.09-0.43c-0.04-0.2-0.08-0.39-0.13-0.59
								c-0.03-0.15-0.07-0.29-0.11-0.44c-0.05-0.19-0.1-0.38-0.16-0.57c-0.04-0.15-0.09-0.3-0.14-0.44
								c-0.06-0.19-0.12-0.37-0.19-0.56c-0.05-0.15-0.1-0.3-0.16-0.44c-0.07-0.19-0.14-0.37-0.22-0.56
								c-0.06-0.15-0.12-0.29-0.18-0.44c-0.03-0.07-0.06-0.15-0.09-0.22c-0.09-0.2-0.18-0.41-0.28-0.61
								c-0.01-0.03-0.02-0.05-0.03-0.08c-0.02-0.05-0.04-0.1-0.04-0.14c0-0.02-0.01-0.03-0.01-0.05c0-0.05,0.01-0.1,0.04-0.15
								c0.02-0.03,0.06-0.07,0.1-0.1c3.24-2.34,6.47-4.69,9.7-7.04l-9.37,4.34c-3.23,2.35-6.46,4.7-9.7,7.04
								c-0.04,0.03-0.08,0.06-0.1,0.1c0,0,0,0,0,0.01c-0.03,0.05-0.04,0.09-0.04,0.15c0,0.01,0.01,0.03,0.01,0.05
								c0.01,0.04,0.02,0.09,0.04,0.14c0,0.01,0,0.01,0.01,0.02c0.01,0.02,0.02,0.04,0.03,0.06c0.13,0.28,0.25,0.55,0.37,0.83
								c0.06,0.15,0.12,0.29,0.18,0.44c0.08,0.19,0.15,0.37,0.22,0.56c0.06,0.15,0.11,0.3,0.16,0.44c0.06,0.19,0.13,0.37,0.19,0.56
								c0.05,0.15,0.09,0.3,0.14,0.44c0.06,0.19,0.11,0.38,0.16,0.57c0.04,0.15,0.08,0.29,0.11,0.44c0.05,0.2,0.09,0.39,0.13,0.59
								c0.03,0.14,0.06,0.28,0.09,0.42c0.04,0.21,0.07,0.41,0.1,0.62c0.02,0.13,0.04,0.27,0.06,0.4c0.03,0.23,0.05,0.45,0.07,0.68
								c0.01,0.11,0.02,0.23,0.03,0.34c0.03,0.34,0.04,0.68,0.05,1.03c0.01,0.38,0,0.76-0.01,1.13c-0.01,0.12-0.02,0.24-0.02,0.36
								c-0.02,0.25-0.04,0.5-0.06,0.74c-0.02,0.13-0.03,0.26-0.05,0.4c-0.03,0.23-0.07,0.45-0.11,0.67
								c-0.02,0.13-0.05,0.26-0.08,0.39c-0.05,0.22-0.1,0.44-0.16,0.66c-0.03,0.11-0.06,0.22-0.09,0.33
								c-0.08,0.27-0.17,0.53-0.26,0.79c-0.02,0.05-0.03,0.1-0.05,0.15c-0.11,0.3-0.24,0.6-0.38,0.89
								c-0.04,0.08-0.08,0.16-0.13,0.25c-0.1,0.2-0.2,0.4-0.31,0.59c-0.06,0.1-0.12,0.2-0.18,0.29c-0.1,0.17-0.21,0.34-0.32,0.5
								c-0.06,0.08-0.12,0.17-0.18,0.25c-0.23,0.31-0.47,0.61-0.72,0.89c-0.03,0.04-0.07,0.07-0.11,0.11
								c-0.24,0.26-0.49,0.5-0.76,0.73c-0.05,0.04-0.1,0.09-0.15,0.13c-0.29,0.24-0.58,0.45-0.89,0.66
								c-0.06,0.04-0.13,0.08-0.2,0.12c-0.32,0.2-0.65,0.39-0.99,0.54l0,0c0,0,0,0,0,0L387.63,71.77z"/>
							<path class="st135" d="M385.57,88.28c-4.08-0.19-8.27-1.52-12.11-3.85c1.46-4.43,2.9-8.82,4.35-13.21l-9.37,4.34
								c-1.45,4.39-2.89,8.79-4.35,13.21c3.85,2.33,8.03,3.66,12.11,3.85c3.21,0.15,6.35-0.4,9.22-1.73l9.37-4.34
								C391.92,87.87,388.78,88.43,385.57,88.28z"/>
						</g>
						<g>
							<path class="st27" d="M401.64,44.21c5.11,8.51,8.16,22.75,2.16,33.66c-4.15,7.54-11.03,10.75-18.22,10.41
								c-4.08-0.19-8.27-1.52-12.11-3.85c1.46-4.43,2.9-8.82,4.35-13.21c0.7,0.28,1.37,0.58,2.05,0.81c1.1,0.37,2.18,0.57,3.21,0.62
								c6.17,0.29,10.94-4.86,10.76-12.44c-0.07-2.84-0.74-5.63-2.05-8.36c-0.11-0.24-0.15-0.37,0.05-0.52
								c3.24-2.34,6.47-4.69,9.7-7.04L401.64,44.21z"/>
						</g>
						<path class="st4" d="M357.97,84.23c0.12,0.11,0.23,0.21,0.35,0.32c0.18,0.16,0.36,0.31,0.54,0.47
							c0.11,0.1,0.22,0.19,0.34,0.29c0.2,0.16,0.39,0.32,0.59,0.48c0.1,0.08,0.19,0.16,0.29,0.23c0.29,0.23,0.59,0.45,0.89,0.66
							l9.37-4.34c-0.3-0.21-0.59-0.44-0.89-0.66c-0.1-0.08-0.19-0.15-0.29-0.23c-0.2-0.16-0.4-0.32-0.59-0.48
							c-0.11-0.09-0.22-0.19-0.34-0.29c-0.18-0.15-0.36-0.31-0.54-0.47c-0.12-0.11-0.24-0.21-0.35-0.32
							c-0.17-0.16-0.34-0.32-0.51-0.48c-0.12-0.11-0.24-0.23-0.35-0.34c-0.17-0.16-0.33-0.33-0.5-0.5
							c-0.11-0.12-0.23-0.23-0.34-0.35c-0.17-0.18-0.34-0.36-0.51-0.54c-0.11-0.12-0.21-0.23-0.32-0.35
							c-0.18-0.2-0.36-0.41-0.54-0.62c-0.09-0.1-0.17-0.2-0.26-0.3c-0.26-0.31-0.53-0.63-0.79-0.96c0,0,0-0.01-0.01-0.01
							c-0.26-0.32-0.51-0.65-0.75-0.99c-0.08-0.11-0.16-0.22-0.24-0.34c-0.17-0.23-0.33-0.46-0.5-0.69
							c-0.09-0.13-0.19-0.27-0.28-0.41c-0.15-0.22-0.29-0.43-0.44-0.65c-0.1-0.15-0.19-0.29-0.28-0.44
							c-0.14-0.22-0.27-0.43-0.41-0.65c-0.09-0.15-0.19-0.31-0.28-0.46c-0.13-0.22-0.26-0.45-0.39-0.67
							c-0.09-0.15-0.18-0.31-0.26-0.47c-0.13-0.24-0.26-0.47-0.39-0.71c-0.08-0.15-0.16-0.3-0.24-0.45c-0.14-0.26-0.27-0.53-0.4-0.8
							c-0.06-0.13-0.13-0.25-0.19-0.38c-0.19-0.4-0.38-0.8-0.56-1.21c0,0,0-0.01-0.01-0.01c-0.27-0.6-0.52-1.22-0.76-1.84
							c-0.04-0.09-0.07-0.18-0.11-0.27c-0.23-0.6-0.44-1.2-0.64-1.81c-0.04-0.11-0.07-0.23-0.11-0.34c-0.2-0.61-0.38-1.23-0.55-1.86
							c-0.03-0.1-0.05-0.19-0.08-0.29c-0.17-0.66-0.33-1.32-0.47-1.99c0,0,0-0.01,0-0.01c-0.14-0.67-0.25-1.34-0.36-2.01
							c-0.02-0.1-0.03-0.2-0.05-0.3c-0.09-0.65-0.17-1.3-0.23-1.95c-0.01-0.12-0.02-0.25-0.03-0.37c-0.05-0.66-0.09-1.31-0.11-1.97
							c0-0.1,0-0.2-0.01-0.3c-0.01-0.7-0.02-1.39,0.01-2.09c0.03-0.72,0.08-1.43,0.15-2.12c0.02-0.23,0.06-0.45,0.08-0.67
							c0.05-0.45,0.11-0.91,0.18-1.35c0.04-0.26,0.1-0.51,0.14-0.77c0.08-0.39,0.15-0.78,0.24-1.16c0.06-0.26,0.13-0.51,0.2-0.77
							c0.09-0.36,0.19-0.71,0.3-1.06c0.08-0.25,0.16-0.5,0.24-0.74c0.11-0.34,0.23-0.67,0.36-0.99c0.09-0.24,0.18-0.47,0.28-0.7
							c0.14-0.32,0.28-0.63,0.42-0.94c0.1-0.22,0.2-0.43,0.31-0.64c0.16-0.31,0.33-0.61,0.5-0.91c0.11-0.19,0.21-0.38,0.33-0.57
							c0.2-0.32,0.4-0.63,0.61-0.93c0.1-0.15,0.2-0.3,0.3-0.45c0.09-0.13,0.19-0.25,0.28-0.37c0.2-0.26,0.39-0.52,0.6-0.77
							c0.12-0.14,0.24-0.28,0.36-0.42c0.19-0.22,0.38-0.43,0.58-0.64c0.13-0.14,0.27-0.27,0.4-0.41c0.19-0.19,0.39-0.38,0.59-0.57
							c0.14-0.13,0.28-0.26,0.43-0.38c0.2-0.18,0.41-0.35,0.62-0.52c0.14-0.12,0.29-0.23,0.44-0.34c0.22-0.16,0.44-0.32,0.67-0.47
							c0.14-0.1,0.29-0.2,0.43-0.29c0.25-0.16,0.5-0.31,0.76-0.46c0.12-0.07,0.25-0.15,0.37-0.22c0.38-0.21,0.77-0.41,1.16-0.59
							c0,0,0,0,0,0l0,0c0,0,0,0,0,0l-9.37,4.34c-0.39,0.18-0.78,0.38-1.17,0.59c-0.12,0.07-0.25,0.15-0.37,0.22
							c-0.26,0.15-0.51,0.3-0.76,0.46c-0.14,0.09-0.29,0.19-0.43,0.29c-0.23,0.15-0.45,0.31-0.67,0.48
							c-0.15,0.11-0.29,0.22-0.43,0.34c-0.21,0.17-0.42,0.34-0.62,0.52c-0.14,0.12-0.28,0.25-0.42,0.38
							c-0.2,0.18-0.4,0.38-0.59,0.57c-0.13,0.13-0.27,0.27-0.4,0.41c-0.2,0.21-0.39,0.42-0.58,0.64c-0.12,0.14-0.24,0.27-0.36,0.42
							c-0.2,0.25-0.4,0.51-0.6,0.77c-0.09,0.13-0.19,0.25-0.28,0.37c-0.02,0.02-0.04,0.05-0.05,0.07c-0.09,0.12-0.16,0.25-0.25,0.38
							c-0.21,0.31-0.42,0.62-0.61,0.94c-0.11,0.18-0.22,0.38-0.32,0.57c-0.17,0.3-0.34,0.6-0.5,0.91c-0.11,0.21-0.21,0.43-0.31,0.64
							c-0.15,0.31-0.29,0.62-0.42,0.94c-0.1,0.23-0.19,0.46-0.28,0.7c-0.13,0.33-0.25,0.66-0.36,0.99
							c-0.08,0.24-0.16,0.49-0.24,0.74c-0.11,0.35-0.21,0.7-0.3,1.06c-0.07,0.25-0.13,0.51-0.2,0.77c-0.09,0.38-0.17,0.77-0.24,1.17
							c-0.05,0.25-0.1,0.5-0.14,0.76c-0.07,0.44-0.13,0.9-0.18,1.35c-0.03,0.23-0.06,0.44-0.08,0.67c-0.07,0.69-0.12,1.4-0.15,2.12
							c-0.03,0.7-0.03,1.4-0.01,2.09c0,0.1,0,0.2,0.01,0.3c0.02,0.66,0.06,1.32,0.11,1.98c0.01,0.12,0.02,0.24,0.03,0.37
							c0.06,0.65,0.14,1.3,0.23,1.95c0.01,0.1,0.03,0.2,0.05,0.3c0.1,0.67,0.22,1.35,0.36,2.01c0,0,0,0.01,0,0.01
							c0.14,0.67,0.3,1.33,0.47,1.99c0.03,0.1,0.05,0.19,0.07,0.29c0.17,0.62,0.35,1.24,0.55,1.86c0.04,0.11,0.07,0.23,0.11,0.34
							c0.2,0.61,0.41,1.22,0.64,1.81c0.03,0.09,0.07,0.18,0.11,0.27c0.24,0.62,0.49,1.24,0.76,1.84c0,0,0,0.01,0,0.01c0,0,0,0,0,0
							c0.18,0.41,0.37,0.81,0.56,1.21c0.06,0.13,0.13,0.25,0.19,0.38c0.13,0.27,0.27,0.54,0.4,0.8c0.08,0.15,0.16,0.3,0.24,0.45
							c0.13,0.24,0.25,0.48,0.38,0.71c0.09,0.16,0.18,0.31,0.26,0.47c0.13,0.23,0.26,0.45,0.39,0.67c0.09,0.16,0.19,0.31,0.28,0.46
							c0.13,0.22,0.27,0.43,0.41,0.65c0.1,0.15,0.19,0.3,0.29,0.45c0.14,0.22,0.29,0.44,0.44,0.65c0.09,0.14,0.19,0.27,0.28,0.41
							c0.16,0.24,0.33,0.47,0.5,0.7c0.08,0.11,0.16,0.22,0.24,0.33c0.25,0.33,0.49,0.66,0.75,0.97c0.01,0.01,0.01,0.01,0.02,0.02
							c0.26,0.33,0.52,0.65,0.78,0.96c0.09,0.1,0.17,0.2,0.26,0.3c0.18,0.21,0.36,0.42,0.55,0.63c0.1,0.12,0.21,0.23,0.31,0.34
							c0.17,0.18,0.34,0.37,0.51,0.55c0.11,0.12,0.23,0.23,0.34,0.35c0.17,0.17,0.33,0.34,0.5,0.5c0.12,0.11,0.23,0.23,0.35,0.34
							C357.63,83.91,357.8,84.07,357.97,84.23z"/>
						<g>
							<path class="st5" d="M374.01,25.77c0.83,5.25,1.66,10.45,2.48,15.64c-5.32,1-8.63,4.44-9.07,10.97
								c-0.44,6.54,2.28,12.09,7.28,16.7c-1.45,4.4-2.91,8.83-4.36,13.25c-8.93-6.4-16.75-19.66-16.22-33.65
								C354.66,33.82,364.27,25.79,374.01,25.77z"/>
						</g>
					</g>
				</g>
			</g>
		</g>
		<g>
			<g>
				<path class="st148" d="M391.49,297.31c1.29-0.18,2.39,0.05,3.3,0.69c0.23,0.16,0.43,0.34,0.62,0.53l-7.95,4.02l-3.91,3.58
					c1.21,2.01,2.77,3.44,4.68,4.3c1.9,0.85,3.96,1.13,6.15,0.83c1.2-0.17,2.27-0.49,3.23-0.97l9.46-4.78
					c-0.96,0.48-2.03,0.81-3.23,0.97c-2.19,0.3-4.25,0.02-6.15-0.83c-0.68-0.31-1.31-0.71-1.9-1.17l8.51-4.3
					c0.51-0.26,0.92-0.6,1.23-1.03c0.6-0.83,0.77-1.88,0.49-3.13c-0.27-1.23-0.86-2.16-1.77-2.8c-0.92-0.64-2.01-0.87-3.3-0.69
					l-8.18,1.13l-1.19-7.85l5.71-0.79l9.46-4.78l-10.39,1.44l-5.03,2.54l-1.12-7.38l-9.46,4.78l2.56,16.82L391.49,297.31z
					 M396.56,300.8c0.27,1.26,0.1,2.31-0.49,3.13c-0.12,0.16-0.26,0.3-0.41,0.44c-1.01-0.8-1.9-1.79-2.64-3.02l2.68-2.45
					C396.1,299.42,396.39,300.05,396.56,300.8z"/>
				<polygon class="st148" points="429.43,295.2 438.9,290.42 424.41,292.42 423.24,287.09 413.78,291.88 414.94,297.2 				"/>
				<polygon class="st148" points="455.13,291.33 464.59,286.55 463.04,279.43 453.58,284.22 				"/>
				<polygon class="st148" points="456.33,296.82 457.44,301.92 462.8,301.17 472.27,296.39 466.9,297.13 466.39,294.77 
					474.06,290.9 471.15,291.3 466.18,293.81 465.79,292.04 453,293.81 451.8,288.32 456.57,267.66 447.11,272.44 442.34,293.1 
					443.53,298.59 				"/>
				<path class="st148" d="M453.18,360.72l7.99-4.04c1-0.5,1.69-1.39,2.09-2.65c0.57-1.82,0.52-4.31-0.18-7.49
					c-0.7-3.2-1.7-5.57-3.01-7.13c-1.31-1.56-2.87-2.21-4.67-1.97c-0.54,0.07-1.03,0.22-1.45,0.44l-7.84,3.96
					c0.11-1.76,0.45-3.36,1.04-4.78c0.65-1.55,1.55-2.77,2.72-3.67c0.39-0.3,0.8-0.56,1.25-0.78c0,0,0,0,0,0l-9.46,4.78
					c-1.78,0.9-3.1,2.39-3.97,4.45c-0.21,0.49-0.37,1.02-0.52,1.55c-0.29-0.89-0.76-1.61-1.43-2.12c-0.82-0.63-1.73-0.87-2.76-0.73
					c-0.51,0.07-0.97,0.21-1.38,0.42l-5.03,2.54l-2.46-1.11c0.4-2.18,1.27-3.91,2.64-5.23c0.32-0.31,0.65-0.58,1-0.83
					c0.35-0.25,0.71-0.47,1.09-0.66l0,0l-9.46,4.78c-0.76,0.38-1.46,0.88-2.1,1.5c-1.36,1.31-2.24,3.05-2.64,5.23l5.11,2.3l6.6-3.34
					c0.76,0.61,1.27,1.48,1.52,2.61c0.35,1.6-0.24,3.74-1.78,6.43l-6.93,11.82l0.96,4.42l18.07-2.5l6.02-3.04
					c2.16,1.57,4.58,2.19,7.28,1.82c1.15-0.16,2.18-0.47,3.08-0.93l9.46-4.78c-0.91,0.46-1.93,0.77-3.08,0.93
					C458.06,363.32,455.47,362.58,453.18,360.72z M429.59,366.64l-0.96-4.42l6.93-11.82c0.43-0.75,0.78-1.45,1.06-2.12
					c0.04,1.64,0.25,3.41,0.67,5.31c1.03,4.72,2.82,8.37,5.36,10.94c0.1,0.1,0.2,0.18,0.29,0.27L429.59,366.64z M452.1,359.74
					c-2.54-2.57-4.32-6.22-5.36-10.94c-0.52-2.4-0.74-4.6-0.66-6.58c1.74-0.19,3.25,0.46,4.53,1.98c1.31,1.56,2.32,3.93,3.01,7.13
					c0.69,3.17,0.75,5.67,0.18,7.49c-0.21,0.67-0.51,1.22-0.89,1.68C452.64,360.26,452.37,360.01,452.1,359.74z"/>
				<polygon class="st148" points="451.12,332.62 451.12,332.62 451.12,332.62 				"/>
				<polygon class="st148" points="428.84,335.68 428.84,335.68 428.84,335.68 				"/>
				<polygon class="st148" points="388.89,328.63 387.69,323.13 378.22,327.91 379.42,333.41 479.88,319.52 489.34,314.74 				"/>
			</g>
			<g>
				<path class="st26" d="M405.55,274.71l1.21,5.52l-10.39,1.44l0.83,5.45l2.78-0.38c2.6-0.36,4.98,0.2,7.13,1.68
					c2.16,1.49,3.56,3.77,4.24,6.85c0.67,3.09,0.27,5.63-1.22,7.63c-1.48,2-3.58,3.19-6.28,3.56c-2.19,0.3-4.25,0.02-6.15-0.83
					c-1.91-0.86-3.48-2.29-4.68-4.3l3.91-3.58c1.19,2.3,3.08,3.28,5.66,2.92c1.36-0.19,2.34-0.7,2.95-1.53
					c0.6-0.83,0.77-1.88,0.49-3.13c-0.27-1.23-0.86-2.16-1.77-2.8c-0.92-0.64-2.01-0.87-3.3-0.69l-8.18,1.13l-2.56-16.82
					L405.55,274.71z"/>
				<polygon class="st26" points="437.73,285.09 438.9,290.42 424.41,292.42 423.24,287.09 				"/>
				<polygon class="st26" points="462.28,266.87 457.56,287.52 464.59,286.55 463.04,279.43 468.4,278.69 469.96,285.81 
					472.86,285.41 474.06,290.9 471.15,291.3 472.27,296.39 466.9,297.13 465.79,292.04 453,293.81 451.8,288.32 456.57,267.66 				
					"/>
				<path class="st26" d="M463.05,334.87c2.53,2.59,4.31,6.23,5.33,10.94c1.03,4.72,0.9,8.63-0.39,11.73
					c-1.29,3.11-3.63,4.9-7.03,5.37c-3.37,0.47-6.32-0.59-8.86-3.17c-2.54-2.57-4.32-6.22-5.35-10.94
					c-1.03-4.71-0.89-8.62,0.41-11.74c1.3-3.1,3.63-4.9,7-5.36C457.56,331.23,460.52,332.3,463.05,334.87z M463.27,354.03
					c0.57-1.82,0.52-4.31-0.18-7.49c-0.7-3.2-1.7-5.57-3.01-7.13c-1.31-1.56-2.87-2.21-4.67-1.97c-1.8,0.25-2.98,1.29-3.53,3.1
					c-0.56,1.81-0.49,4.32,0.21,7.52c0.7,3.21,1.69,5.58,2.99,7.12c1.29,1.55,2.83,2.18,4.63,1.94
					C461.5,356.87,462.69,355.85,463.27,354.03"/>
				<path class="st26" d="M431.64,334.82c2.45-0.34,4.73,0.23,6.85,1.69c2.12,1.46,3.5,3.62,4.13,6.51
					c0.67,3.12-0.11,6.52-2.35,10.21l-4.02,6.62l10.16-1.41l1.25,5.71l-18.07,2.5l-0.96-4.42l6.93-11.82
					c1.54-2.69,2.13-4.82,1.78-6.43c-0.26-1.17-0.79-2.07-1.6-2.69c-0.82-0.63-1.73-0.87-2.76-0.73c-2.04,0.28-3.28,1.66-3.76,4.15
					l-5.11-2.3c0.4-2.18,1.27-3.91,2.64-5.23C428.1,335.87,429.73,335.08,431.64,334.82z"/>
				<polygon class="st26" points="488.14,309.24 489.34,314.74 388.89,328.63 387.69,323.13 				"/>
			</g>
		</g>
	</g>
</g>
</svg>
